SplineFontDB: 3.0
FontName: Alice-Regular
FullName: Alice
FamilyName: Alice
Weight: Book
Copyright: Copyright (c) 2011, Cyreal (www.cyreal.org)\nwith Reserved Font Name "Alice" and "Alice Regular".\n\nThis Font Software is licensed under the SIL Open Font License,\nVersion 1.1. This license is available with a FAQ at:\nhttp://scripts.sil.org/OFL
Version: 1.010
ItalicAngle: 0
UnderlinePosition: -50
UnderlineWidth: 50
Ascent: 800
Descent: 200
InvalidEm: 0
sfntRevision: 0x0001028f
LayerCount: 2
Layer: 0 1 "Back" 1
Layer: 1 1 "Fore" 0
XUID: [1021 591 -286901576 5646217]
FSType: 0
OS2Version: 3
OS2_WeightWidthSlopeOnly: 0
OS2_UseTypoMetrics: 1
CreationTime: 1313729485
ModificationTime: 1313729724
PfmFamily: 17
TTFWeight: 400
TTFWidth: 5
LineGap: 0
VLineGap: 0
Panose: 2 0 5 3 8 0 0 2 0 4
OS2TypoAscent: 909
OS2TypoAOffset: 0
OS2TypoDescent: -234
OS2TypoDOffset: 0
OS2TypoLinegap: 0
OS2WinAscent: 909
OS2WinAOffset: 0
OS2WinDescent: 234
OS2WinDOffset: 0
HheadAscent: 909
HheadAOffset: 0
HheadDescent: -234
HheadDOffset: 0
OS2SubXSize: 700
OS2SubYSize: 650
OS2SubXOff: 0
OS2SubYOff: 140
OS2SupXSize: 700
OS2SupYSize: 650
OS2SupXOff: 0
OS2SupYOff: 477
OS2StrikeYSize: 50
OS2StrikeYPos: 250
OS2CapHeight: 0
OS2XHeight: 0
OS2Vendor: '    '
OS2CodePages: 00000003.00000000
OS2UnicodeRanges: 80000027.40000043.00000000.00000000
Lookup: 4 0 1 "'liga' Standard Ligatures in Latin lookup 0" { "'liga' Standard Ligatures in Latin lookup 0 subtable"  } ['liga' ('latn' <'dflt' > ) ]
Lookup: 258 0 0 "'kern' Horizontal Kerning in Latin lookup 0" { "'kern' Horizontal Kerning in Latin lookup 0 per glyph data 0"  "'kern' Horizontal Kerning in Latin lookup 0 kerning class 1"  } ['kern' ('latn' <'dflt' > ) ]
DEI: 91125
KernClass2: 70+ 55 "'kern' Horizontal Kerning in Latin lookup 0 kerning class 1"
 40 comma period quotesinglbase quotedblbase
 5 slash
 28 hyphen uni00AD endash emdash
 8 asterisk
 20 quotedbl quotesingle
 9 backslash
 24 quoteright quotedblright
 22 quoteleft quotedblleft

StartChar: exclam
Encoding: 33 33 4
Width: 262
Flags: W
LayerCount: 2
Back
Fore
SplineSet
130 -12 m 0,0,1
 103 -12 103 -12 85 5.5 c 128,-1,2
 67 23 67 23 67 52 c 0,3,4
 67 78 67 78 85 96.5 c 128,-1,5
 103 115 103 115 131 115 c 256,6,7
 159 115 159 115 177 96.5 c 128,-1,8
 195 78 195 78 195 52 c 0,9,10
 195 23 195 23 177 5.5 c 128,-1,11
 159 -12 159 -12 130 -12 c 0,0,1
155 221 m 0,12,13
 155 213 155 213 147.5 210 c 128,-1,14
 140 207 140 207 131 207 c 0,15,16
 123 207 123 207 115 210.5 c 128,-1,17
 107 214 107 214 107 221 c 0,18,19
 107 252 107 252 102.5 295 c 128,-1,20
 98 338 98 338 92 385.5 c 128,-1,21
 86 433 86 433 81.5 481 c 128,-1,22
 77 529 77 529 77 570 c 0,23,24
 77 621 77 621 88.5 654 c 128,-1,25
 100 687 100 687 131 687 c 256,26,27
 162 687 162 687 173.5 654 c 128,-1,28
 185 621 185 621 185 570 c 0,29,30
 185 529 185 529 180.5 481 c 128,-1,31
 176 433 176 433 170 385.5 c 128,-1,32
 164 338 164 338 159.5 295 c 128,-1,33
 155 252 155 252 155 221 c 0,12,13
EndSplineSet
EndChar

StartChar: quotedbl
Encoding: 34 34 5
Width: 339
Flags: W
LayerCount: 2
Back
Fore
SplineSet
111 408 m 0,0,1
 111 402 111 402 105.5 399.5 c 128,-1,2
 100 397 100 397 93 397 c 0,3,4
 87 397 87 397 81 400 c 128,-1,5
 75 403 75 403 75 408 c 0,6,7
 74 428 74 428 69 454.5 c 128,-1,8
 64 481 64 481 59 509 c 128,-1,9
 54 537 54 537 49.5 565 c 128,-1,10
 45 593 45 593 45 617 c 0,11,12
 45 648 45 648 55.5 668 c 128,-1,13
 66 688 66 688 93 688 c 256,14,15
 120 688 120 688 130 668.5 c 128,-1,16
 140 649 140 649 140 618 c 0,17,18
 140 594 140 594 136 566 c 128,-1,19
 132 538 132 538 126.5 509.5 c 128,-1,20
 121 481 121 481 116.5 454.5 c 128,-1,21
 112 428 112 428 111 408 c 0,0,1
264 408 m 0,22,23
 264 402 264 402 258.5 399.5 c 128,-1,24
 253 397 253 397 246 397 c 0,25,26
 240 397 240 397 234 400 c 128,-1,27
 228 403 228 403 228 408 c 0,28,29
 227 428 227 428 222 454.5 c 128,-1,30
 217 481 217 481 212 509 c 128,-1,31
 207 537 207 537 202.5 565 c 128,-1,32
 198 593 198 593 198 617 c 0,33,34
 198 648 198 648 208.5 668 c 128,-1,35
 219 688 219 688 246 688 c 256,36,37
 273 688 273 688 283 668.5 c 128,-1,38
 293 649 293 649 293 618 c 0,39,40
 293 594 293 594 289 566 c 128,-1,41
 285 538 285 538 279.5 509.5 c 128,-1,42
 274 481 274 481 269.5 454.5 c 128,-1,43
 265 428 265 428 264 408 c 0,22,23
EndSplineSet
EndChar

StartChar: numbersign
Encoding: 35 35 6
Width: 616
Flags: W
LayerCount: 2
Back
Fore
SplineSet
249 398 m 1,0,-1
 214 233 l 1,1,-1
 369 233 l 1,2,-1
 403 398 l 1,3,-1
 249 398 l 1,0,-1
449 612 m 2,4,5
 454 631 454 631 474 631 c 0,6,7
 485 631 485 631 493.5 626 c 128,-1,8
 502 621 502 621 503 612 c 2,9,-1
 469 453 l 1,10,-1
 555 453 l 2,11,12
 564 452 564 452 569 443 c 128,-1,13
 574 434 574 434 574 423 c 0,14,15
 574 414 574 414 569 406 c 128,-1,16
 564 398 564 398 555 398 c 2,17,-1
 458 398 l 1,18,-1
 423 233 l 1,19,-1
 515 233 l 2,20,21
 524 232 524 232 529 223 c 128,-1,22
 534 214 534 214 534 203 c 0,23,24
 534 194 534 194 529 186 c 128,-1,25
 524 178 524 178 515 178 c 2,26,-1
 413 178 l 1,27,-1
 379 18 l 2,28,29
 377 10 377 10 370 5 c 128,-1,30
 363 0 363 0 355 0 c 0,31,32
 343 0 343 0 334.5 5 c 128,-1,33
 326 10 326 10 325 18 c 2,34,-1
 359 178 l 1,35,-1
 203 178 l 1,36,-1
 170 19 l 2,37,38
 168 10 168 10 161 5 c 128,-1,39
 154 0 154 0 145 0 c 0,40,41
 134 0 134 0 125 5 c 128,-1,42
 116 10 116 10 115 19 c 2,43,-1
 148 178 l 1,44,-1
 61 178 l 2,45,46
 52 178 52 178 47 186 c 128,-1,47
 42 194 42 194 42 203 c 0,48,49
 42 214 42 214 47 223 c 128,-1,50
 52 232 52 232 61 233 c 2,51,-1
 160 233 l 1,52,-1
 195 398 l 1,53,-1
 101 398 l 2,54,55
 92 398 92 398 87 406 c 128,-1,56
 82 414 82 414 82 423 c 0,57,58
 82 434 82 434 87 443 c 128,-1,59
 92 452 92 452 101 453 c 2,60,-1
 206 453 l 1,61,-1
 240 613 l 2,62,63
 242 621 242 621 249 626 c 128,-1,64
 256 631 256 631 264 631 c 0,65,66
 276 631 276 631 284.5 626 c 128,-1,67
 293 621 293 621 294 613 c 2,68,-1
 260 453 l 1,69,-1
 413 453 l 1,70,-1
 449 612 l 2,4,5
EndSplineSet
EndChar

StartChar: dollar
Encoding: 36 36 7
Width: 500
Flags: W
LayerCount: 2
Back
Fore
SplineSet
261 -66 m 2,0,1
 261 -89 261 -89 241 -89 c 0,2,3
 222 -89 222 -89 222 -66 c 2,4,-1
 222 -13 l 1,5,-1
 209 -13 l 2,6,7
 196 -13 196 -13 174 -10.5 c 128,-1,8
 152 -8 152 -8 129.5 1 c 128,-1,9
 107 10 107 10 87.5 26.5 c 128,-1,10
 68 43 68 43 61 71 c 0,11,12
 58 86 58 86 60.5 102.5 c 128,-1,13
 63 119 63 119 70.5 132 c 128,-1,14
 78 145 78 145 91 153.5 c 128,-1,15
 104 162 104 162 121 162 c 0,16,17
 142 162 142 162 152.5 152 c 128,-1,18
 163 142 163 142 163 137 c 0,19,20
 163 135 163 135 158.5 131.5 c 128,-1,21
 154 128 154 128 148.5 122 c 128,-1,22
 143 116 143 116 138.5 107 c 128,-1,23
 134 98 134 98 134 86 c 0,24,25
 135 69 135 69 142.5 57.5 c 128,-1,26
 150 46 150 46 162 38.5 c 128,-1,27
 174 31 174 31 189.5 26.5 c 128,-1,28
 205 22 205 22 222 21 c 1,29,-1
 222 257 l 1,30,31
 193 269 193 269 164.5 282.5 c 128,-1,32
 136 296 136 296 113.5 313.5 c 128,-1,33
 91 331 91 331 77 355 c 128,-1,34
 63 379 63 379 62 413 c 0,35,36
 61 445 61 445 72.5 470.5 c 128,-1,37
 84 496 84 496 106 515 c 128,-1,38
 128 534 128 534 157.5 546 c 128,-1,39
 187 558 187 558 222 563 c 1,40,-1
 222 617 l 2,41,42
 222 640 222 640 241 640 c 0,43,44
 261 640 261 640 261 617 c 2,45,-1
 261 566 l 1,46,-1
 265 566 l 2,47,48
 277 566 277 566 299 563.5 c 128,-1,49
 321 561 321 561 343.5 552 c 128,-1,50
 366 543 366 543 385 526.5 c 128,-1,51
 404 510 404 510 411 482 c 0,52,53
 415 467 415 467 412.5 450.5 c 128,-1,54
 410 434 410 434 402 421 c 128,-1,55
 394 408 394 408 381 399.5 c 128,-1,56
 368 391 368 391 351 391 c 0,57,58
 331 391 331 391 319.5 401 c 128,-1,59
 308 411 308 411 308 416 c 0,60,61
 308 417 308 417 313 421 c 128,-1,62
 318 425 318 425 323.5 431 c 128,-1,63
 329 437 329 437 334 446 c 128,-1,64
 339 455 339 455 339 467 c 0,65,66
 339 483 339 483 331.5 494.5 c 128,-1,67
 324 506 324 506 313 513.5 c 128,-1,68
 302 521 302 521 288 525 c 128,-1,69
 274 529 274 529 261 530 c 1,70,-1
 261 330 l 1,71,72
 292 318 292 318 325 301.5 c 128,-1,73
 358 285 358 285 385 263.5 c 128,-1,74
 412 242 412 242 430 214 c 128,-1,75
 448 186 448 186 449 151 c 0,76,77
 450 67 450 67 402 29 c 128,-1,78
 354 -9 354 -9 261 -13 c 1,79,-1
 261 -66 l 2,0,1
370 113 m 0,80,81
 370 138 370 138 361.5 157 c 128,-1,82
 353 176 353 176 338 191 c 128,-1,83
 323 206 323 206 303 217.5 c 128,-1,84
 283 229 283 229 261 239 c 1,85,-1
 261 21 l 1,86,87
 305 26 305 26 337 49 c 128,-1,88
 369 72 369 72 370 113 c 0,80,81
136 446 m 0,89,90
 136 421 136 421 143 404.5 c 128,-1,91
 150 388 150 388 162 376.5 c 128,-1,92
 174 365 174 365 189.5 358 c 128,-1,93
 205 351 205 351 222 345 c 1,94,-1
 222 529 l 1,95,96
 177 522 177 522 156.5 498.5 c 128,-1,97
 136 475 136 475 136 446 c 0,89,90
EndSplineSet
EndChar

StartChar: percent
Encoding: 37 37 8
Width: 776
Flags: W
LayerCount: 2
Back
Fore
SplineSet
575 318 m 0,0,1
 611 318 611 318 640 304.5 c 128,-1,2
 669 291 669 291 689.5 268.5 c 128,-1,3
 710 246 710 246 721.5 216.5 c 128,-1,4
 733 187 733 187 733 154 c 0,5,6
 733 112 733 112 718.5 79.5 c 128,-1,7
 704 47 704 47 681 25 c 128,-1,8
 658 3 658 3 630 -8.5 c 128,-1,9
 602 -20 602 -20 575 -20 c 0,10,11
 539 -20 539 -20 510.5 -6.5 c 128,-1,12
 482 7 482 7 461.5 30 c 128,-1,13
 441 53 441 53 430 83 c 128,-1,14
 419 113 419 113 419 146 c 0,15,16
 419 188 419 188 433.5 220 c 128,-1,17
 448 252 448 252 470.5 274 c 128,-1,18
 493 296 493 296 520.5 307 c 128,-1,19
 548 318 548 318 575 318 c 0,0,1
575 23 m 256,20,21
 598 23 598 23 614 33.5 c 128,-1,22
 630 44 630 44 639.5 62 c 128,-1,23
 649 80 649 80 653.5 104 c 128,-1,24
 658 128 658 128 658 154 c 0,25,26
 658 178 658 178 653.5 200.5 c 128,-1,27
 649 223 649 223 639.5 240 c 128,-1,28
 630 257 630 257 614 267 c 128,-1,29
 598 277 598 277 575 277 c 0,30,31
 551 277 551 277 535.5 266.5 c 128,-1,32
 520 256 520 256 510.5 238 c 128,-1,33
 501 220 501 220 497.5 196.5 c 128,-1,34
 494 173 494 173 494 147 c 0,35,36
 494 123 494 123 498 100.5 c 128,-1,37
 502 78 502 78 511.5 60.5 c 128,-1,38
 521 43 521 43 536.5 33 c 128,-1,39
 552 23 552 23 575 23 c 256,20,21
200 649 m 0,40,41
 236 649 236 649 265 635.5 c 128,-1,42
 294 622 294 622 314.5 599.5 c 128,-1,43
 335 577 335 577 346 547.5 c 128,-1,44
 357 518 357 518 357 486 c 0,45,46
 357 444 357 444 342.5 411.5 c 128,-1,47
 328 379 328 379 305 357 c 128,-1,48
 282 335 282 335 254.5 323.5 c 128,-1,49
 227 312 227 312 200 312 c 0,50,51
 164 312 164 312 135 325.5 c 128,-1,52
 106 339 106 339 86 362 c 128,-1,53
 66 385 66 385 55 415 c 128,-1,54
 44 445 44 445 44 478 c 0,55,56
 44 520 44 520 58.5 551.5 c 128,-1,57
 73 583 73 583 95.5 605 c 128,-1,58
 118 627 118 627 145.5 638 c 128,-1,59
 173 649 173 649 200 649 c 0,40,41
200 354 m 256,60,61
 223 354 223 354 239 364.5 c 128,-1,62
 255 375 255 375 264.5 393 c 128,-1,63
 274 411 274 411 278.5 435 c 128,-1,64
 283 459 283 459 283 486 c 0,65,66
 283 510 283 510 278.5 532.5 c 128,-1,67
 274 555 274 555 264.5 571.5 c 128,-1,68
 255 588 255 588 239 598 c 128,-1,69
 223 608 223 608 200 608 c 0,70,71
 176 608 176 608 160 597.5 c 128,-1,72
 144 587 144 587 134.5 569.5 c 128,-1,73
 125 552 125 552 121.5 528.5 c 128,-1,74
 118 505 118 505 118 479 c 0,75,76
 118 454 118 454 122 431.5 c 128,-1,77
 126 409 126 409 135.5 391.5 c 128,-1,78
 145 374 145 374 161 364 c 128,-1,79
 177 354 177 354 200 354 c 256,60,61
163 6 m 2,80,81
 154 -4 154 -4 145.5 -6 c 128,-1,82
 137 -8 137 -8 128 -5 c 0,83,84
 117 0 117 0 111 10.5 c 128,-1,85
 105 21 105 21 113 31 c 2,86,-1
 596 617 l 2,87,88
 605 628 605 628 615 629 c 128,-1,89
 625 630 625 630 633 628 c 0,90,91
 645 623 645 623 650.5 612.5 c 128,-1,92
 656 602 656 602 648 591 c 2,93,-1
 163 6 l 2,80,81
EndSplineSet
EndChar

StartChar: ampersand
Encoding: 38 38 9
Width: 875
Flags: W
LayerCount: 2
Back
Fore
SplineSet
649 285 m 0,0,1
 649 312 649 312 641 338 c 128,-1,2
 633 364 633 364 618 384 c 128,-1,3
 603 404 603 404 580.5 416.5 c 128,-1,4
 558 429 558 429 529 429 c 0,5,6
 517 429 517 429 502 425 c 128,-1,7
 487 421 487 421 474 413 c 128,-1,8
 461 405 461 405 452.5 392.5 c 128,-1,9
 444 380 444 380 445 363 c 0,10,11
 446 349 446 349 454 338 c 128,-1,12
 462 327 462 327 479 324 c 0,13,14
 492 322 492 322 502.5 326 c 128,-1,15
 513 330 513 330 520.5 334.5 c 128,-1,16
 528 339 528 339 532.5 343.5 c 128,-1,17
 537 348 537 348 539 348 c 0,18,19
 544 347 544 347 552.5 333 c 128,-1,20
 561 319 561 319 558 298 c 0,21,22
 554 271 554 271 534.5 256.5 c 128,-1,23
 515 242 515 242 488 242 c 0,24,25
 450 242 450 242 427 272.5 c 128,-1,26
 404 303 404 303 404 351 c 0,27,28
 404 403 404 403 424 435.5 c 128,-1,29
 444 468 444 468 475.5 487.5 c 128,-1,30
 507 507 507 507 547.5 516.5 c 128,-1,31
 588 526 588 526 629 531 c 128,-1,32
 670 536 670 536 708 540.5 c 128,-1,33
 746 545 746 545 774 554 c 0,34,35
 796 562 796 562 811 576.5 c 128,-1,36
 826 591 826 591 825 611 c 0,37,38
 824 623 824 623 816 632 c 128,-1,39
 808 641 808 641 788 644 c 0,40,41
 775 645 775 645 764.5 641.5 c 128,-1,42
 754 638 754 638 746.5 633.5 c 128,-1,43
 739 629 739 629 734 624.5 c 128,-1,44
 729 620 729 620 728 620 c 0,45,46
 723 621 723 621 714.5 635 c 128,-1,47
 706 649 706 649 709 670 c 0,48,49
 712 690 712 690 723.5 702.5 c 128,-1,50
 735 715 735 715 750.5 721 c 128,-1,51
 766 727 766 727 783.5 726.5 c 128,-1,52
 801 726 801 726 817 719 c 0,53,54
 844 706 844 706 854 679.5 c 128,-1,55
 864 653 864 653 863 627 c 0,56,57
 862 586 862 586 841.5 553.5 c 128,-1,58
 821 521 821 521 786 498.5 c 128,-1,59
 751 476 751 476 705 464.5 c 128,-1,60
 659 453 659 453 608 453 c 1,61,62
 650 418 650 418 672 376.5 c 128,-1,63
 694 335 694 335 694 284 c 0,64,65
 694 212 694 212 667.5 155.5 c 128,-1,66
 641 99 641 99 594.5 59.5 c 128,-1,67
 548 20 548 20 485.5 -0.5 c 128,-1,68
 423 -21 423 -21 351 -20 c 0,69,70
 292 -19 292 -19 236 -3.5 c 128,-1,71
 180 12 180 12 136.5 44.5 c 128,-1,72
 93 77 93 77 67 127 c 128,-1,73
 41 177 41 177 41 246 c 0,74,75
 41 281 41 281 51.5 313.5 c 128,-1,76
 62 346 62 346 82.5 372.5 c 128,-1,77
 103 399 103 399 134 417 c 128,-1,78
 165 435 165 435 206 442 c 1,79,-1
 206 445 l 1,80,81
 173 470 173 470 158 499 c 128,-1,82
 143 528 143 528 143 562 c 0,83,84
 143 628 143 628 190.5 668 c 128,-1,85
 238 708 238 708 323 708 c 0,86,87
 350 708 350 708 376 702 c 128,-1,88
 402 696 402 696 421.5 683 c 128,-1,89
 441 670 441 670 453 650.5 c 128,-1,90
 465 631 465 631 465 604 c 0,91,92
 465 574 465 574 447.5 550 c 128,-1,93
 430 526 430 526 397 526 c 0,94,95
 375 526 375 526 363 537 c 128,-1,96
 351 548 351 548 351 553 c 0,97,98
 351 554 351 554 356 558 c 128,-1,99
 361 562 361 562 367.5 569 c 128,-1,100
 374 576 374 576 379 585.5 c 128,-1,101
 384 595 384 595 384 608 c 0,102,103
 384 638 384 638 363 655 c 128,-1,104
 342 672 342 672 312 672 c 0,105,106
 261 672 261 672 236 641.5 c 128,-1,107
 211 611 211 611 211 571 c 0,108,109
 211 498 211 498 272 465 c 1,110,-1
 305 465 l 2,111,112
 317 465 317 465 324.5 463 c 128,-1,113
 332 461 332 461 333 441 c 0,114,115
 333 432 333 432 328.5 424.5 c 128,-1,116
 324 417 324 417 314 417 c 2,117,-1
 279 417 l 2,118,119
 244 414 244 414 219.5 399.5 c 128,-1,120
 195 385 195 385 178.5 363.5 c 128,-1,121
 162 342 162 342 154.5 315.5 c 128,-1,122
 147 289 147 289 147 262 c 0,123,124
 147 213 147 213 164.5 173.5 c 128,-1,125
 182 134 182 134 213 106.5 c 128,-1,126
 244 79 244 79 287.5 64.5 c 128,-1,127
 331 50 331 50 382 50 c 0,128,129
 437 50 437 50 485.5 67.5 c 128,-1,130
 534 85 534 85 570.5 116 c 128,-1,131
 607 147 607 147 628 190.5 c 128,-1,132
 649 234 649 234 649 285 c 0,0,1
EndSplineSet
EndChar

StartChar: quotesingle
Encoding: 39 39 10
Width: 186
Flags: W
LayerCount: 2
Back
Fore
SplineSet
111 408 m 0,0,1
 111 402 111 402 105.5 399.5 c 128,-1,2
 100 397 100 397 93 397 c 0,3,4
 87 397 87 397 81 400 c 128,-1,5
 75 403 75 403 75 408 c 0,6,7
 74 428 74 428 69 454.5 c 128,-1,8
 64 481 64 481 59 509 c 128,-1,9
 54 537 54 537 49.5 565 c 128,-1,10
 45 593 45 593 45 617 c 0,11,12
 45 648 45 648 55.5 668 c 128,-1,13
 66 688 66 688 93 688 c 256,14,15
 120 688 120 688 130 668.5 c 128,-1,16
 140 649 140 649 140 618 c 0,17,18
 140 594 140 594 136 566 c 128,-1,19
 132 538 132 538 126.5 509.5 c 128,-1,20
 121 481 121 481 116.5 454.5 c 128,-1,21
 112 428 112 428 111 408 c 0,0,1
EndSplineSet
EndChar

StartChar: parenleft
Encoding: 40 40 11
Width: 293
Flags: W
LayerCount: 2
Back
Fore
SplineSet
257 -165 m 0,0,1
 148 -90 148 -90 92 26 c 128,-1,2
 36 142 36 142 36 282 c 0,3,4
 36 420 36 420 92.5 535.5 c 128,-1,5
 149 651 149 651 258 728 c 0,6,7
 268 734 268 734 274 730.5 c 128,-1,8
 280 727 280 727 283 720 c 0,9,10
 289 705 289 705 276 693 c 0,11,12
 242 660 242 660 213.5 615 c 128,-1,13
 185 570 185 570 164.5 517 c 128,-1,14
 144 464 144 464 132.5 404 c 128,-1,15
 121 344 121 344 121 281 c 256,16,17
 121 218 121 218 132.5 158 c 128,-1,18
 144 98 144 98 164 45 c 128,-1,19
 184 -8 184 -8 212.5 -52.5 c 128,-1,20
 241 -97 241 -97 275 -130 c 0,21,22
 288 -142 288 -142 282 -157 c 0,23,24
 279 -164 279 -164 273 -167.5 c 128,-1,25
 267 -171 267 -171 257 -165 c 0,0,1
EndSplineSet
EndChar

StartChar: parenright
Encoding: 41 41 12
Width: 293
Flags: W
LayerCount: 2
Back
Fore
SplineSet
36 -165 m 0,0,1
 26 -171 26 -171 20 -167.5 c 128,-1,2
 14 -164 14 -164 11 -157 c 0,3,4
 5 -142 5 -142 18 -130 c 0,5,6
 52 -97 52 -97 80.5 -52.5 c 128,-1,7
 109 -8 109 -8 129 45 c 128,-1,8
 149 98 149 98 160.5 158 c 128,-1,9
 172 218 172 218 172 281 c 256,10,11
 172 344 172 344 160.5 404 c 128,-1,12
 149 464 149 464 128.5 517 c 128,-1,13
 108 570 108 570 79.5 615 c 128,-1,14
 51 660 51 660 17 693 c 0,15,16
 4 705 4 705 10 720 c 0,17,18
 13 727 13 727 19 730.5 c 128,-1,19
 25 734 25 734 35 728 c 0,20,21
 144 651 144 651 200.5 535.5 c 128,-1,22
 257 420 257 420 257 282 c 0,23,24
 257 142 257 142 201 26 c 128,-1,25
 145 -90 145 -90 36 -165 c 0,0,1
EndSplineSet
EndChar

StartChar: asterisk
Encoding: 42 42 13
Width: 526
Flags: W
LayerCount: 2
Back
Fore
SplineSet
220 703 m 0,0,1
 226 692 226 692 229 678.5 c 128,-1,2
 232 665 232 665 234.5 647.5 c 128,-1,3
 237 630 237 630 242 608.5 c 128,-1,4
 247 587 247 587 258 561 c 1,5,-1
 267 562 l 1,6,7
 279 587 279 587 283.5 608 c 128,-1,8
 288 629 288 629 290 646.5 c 128,-1,9
 292 664 292 664 294.5 678 c 128,-1,10
 297 692 297 692 303 703 c 0,11,12
 316 723 316 723 335 727 c 128,-1,13
 354 731 354 731 370 722 c 0,14,15
 387 714 387 714 393.5 696 c 128,-1,16
 400 678 400 678 387 658 c 0,17,18
 381 646 381 646 369.5 637 c 128,-1,19
 358 628 358 628 343.5 617.5 c 128,-1,20
 329 607 329 607 312.5 592.5 c 128,-1,21
 296 578 296 578 279 555 c 1,22,-1
 282 547 l 1,23,24
 312 551 312 551 333.5 557.5 c 128,-1,25
 355 564 355 564 372 571 c 128,-1,26
 389 578 389 578 402.5 583 c 128,-1,27
 416 588 416 588 429 588 c 0,28,29
 455 588 455 588 469 574 c 128,-1,30
 483 560 483 560 482 542 c 0,31,32
 482 524 482 524 468 510 c 128,-1,33
 454 496 454 496 429 496 c 0,34,35
 416 496 416 496 402.5 500.5 c 128,-1,36
 389 505 389 505 372 511.5 c 128,-1,37
 355 518 355 518 333.5 524.5 c 128,-1,38
 312 531 312 531 283 534 c 1,39,-1
 277 528 l 1,40,41
 295 506 295 506 312.5 491.5 c 128,-1,42
 330 477 330 477 344.5 466.5 c 128,-1,43
 359 456 359 456 370.5 447 c 128,-1,44
 382 438 382 438 388 428 c 0,45,46
 400 406 400 406 395.5 388.5 c 128,-1,47
 391 371 391 371 375 361 c 0,48,49
 357 351 357 351 337 356 c 128,-1,50
 317 361 317 361 305 380 c 0,51,52
 298 391 298 391 295.5 404.5 c 128,-1,53
 293 418 293 418 290 435.5 c 128,-1,54
 287 453 287 453 282 474 c 128,-1,55
 277 495 277 495 266 521 c 1,56,-1
 257 520 l 1,57,58
 245 494 245 494 240.5 473.5 c 128,-1,59
 236 453 236 453 233.5 435.5 c 128,-1,60
 231 418 231 418 229 404.5 c 128,-1,61
 227 391 227 391 221 380 c 0,62,63
 210 359 210 359 190.5 355.5 c 128,-1,64
 171 352 171 352 156 361 c 0,65,66
 139 369 139 369 131.5 387 c 128,-1,67
 124 405 124 405 138 425 c 0,68,69
 144 436 144 436 155 445 c 128,-1,70
 166 454 166 454 180.5 464.5 c 128,-1,71
 195 475 195 475 211.5 489.5 c 128,-1,72
 228 504 228 504 245 527 c 1,73,-1
 242 535 l 1,74,75
 213 532 213 532 191 525 c 128,-1,76
 169 518 169 518 152 511.5 c 128,-1,77
 135 505 135 505 121.5 500 c 128,-1,78
 108 495 108 495 95 495 c 0,79,80
 71 494 71 494 57 508.5 c 128,-1,81
 43 523 43 523 44 541 c 0,82,83
 43 559 43 559 57 573 c 128,-1,84
 71 587 71 587 95 587 c 0,85,86
 108 587 108 587 122 582 c 128,-1,87
 136 577 136 577 153 570.5 c 128,-1,88
 170 564 170 564 191 557.5 c 128,-1,89
 212 551 212 551 242 548 c 1,90,-1
 248 554 l 1,91,92
 229 576 229 576 211.5 591 c 128,-1,93
 194 606 194 606 179.5 616.5 c 128,-1,94
 165 627 165 627 154 635.5 c 128,-1,95
 143 644 143 644 136 655 c 0,96,97
 125 677 125 677 130 694.5 c 128,-1,98
 135 712 135 712 151 722 c 0,99,100
 168 732 168 732 187.5 727 c 128,-1,101
 207 722 207 722 220 703 c 0,0,1
EndSplineSet
EndChar

StartChar: plus
Encoding: 43 43 14
Width: 566
Flags: W
LayerCount: 2
Back
Fore
SplineSet
252 479 m 2,0,1
 252 490 252 490 262 497 c 128,-1,2
 272 504 272 504 284 504 c 0,3,4
 295 504 295 504 305 497 c 128,-1,5
 315 490 315 490 315 479 c 2,6,-1
 315 291 l 1,7,-1
 508 291 l 2,8,9
 518 291 518 291 524 282.5 c 128,-1,10
 530 274 530 274 530 264 c 256,11,12
 530 254 530 254 524 245.5 c 128,-1,13
 518 237 518 237 508 237 c 2,14,-1
 315 237 l 1,15,-1
 315 25 l 2,16,17
 315 14 315 14 305 7 c 128,-1,18
 295 0 295 0 283 0 c 0,19,20
 272 0 272 0 262 7 c 128,-1,21
 252 14 252 14 252 25 c 2,22,-1
 252 237 l 1,23,-1
 58 237 l 2,24,25
 48 237 48 237 42 245.5 c 128,-1,26
 36 254 36 254 36 264 c 256,27,28
 36 274 36 274 42 282.5 c 128,-1,29
 48 291 48 291 58 291 c 2,30,-1
 252 291 l 1,31,-1
 252 479 l 2,0,1
EndSplineSet
EndChar

StartChar: comma
Encoding: 44 44 15
Width: 237
Flags: W
LayerCount: 2
Back
Fore
SplineSet
45 97 m 0,0,1
 45 116 45 116 59.5 131.5 c 128,-1,2
 74 147 74 147 95 147 c 0,3,4
 117 147 117 147 135.5 136.5 c 128,-1,5
 154 126 154 126 167.5 108.5 c 128,-1,6
 181 91 181 91 188.5 70 c 128,-1,7
 196 49 196 49 196 28 c 0,8,9
 196 -3 196 -3 182.5 -27.5 c 128,-1,10
 169 -52 169 -52 148 -70 c 128,-1,11
 127 -88 127 -88 100.5 -100.5 c 128,-1,12
 74 -113 74 -113 48 -120 c 0,13,14
 40 -123 40 -123 34.5 -119.5 c 128,-1,15
 29 -116 29 -116 26.5 -110 c 128,-1,16
 24 -104 24 -104 25.5 -98 c 128,-1,17
 27 -92 27 -92 35 -89 c 0,18,19
 77 -73 77 -73 98.5 -51.5 c 128,-1,20
 120 -30 120 -30 120 0 c 0,21,22
 120 18 120 18 108.5 29 c 128,-1,23
 97 40 97 40 82.5 49.5 c 128,-1,24
 68 59 68 59 56.5 69.5 c 128,-1,25
 45 80 45 80 45 97 c 0,0,1
EndSplineSet
EndChar

StartChar: hyphen
Encoding: 45 45 16
Width: 385
Flags: W
LayerCount: 2
Back
Fore
SplineSet
83 199 m 2,0,1
 72 199 72 199 66 210 c 128,-1,2
 60 221 60 221 60 231 c 0,3,4
 60 242 60 242 66 252.5 c 128,-1,5
 72 263 72 263 83 263 c 2,6,-1
 302 263 l 2,7,8
 313 263 313 263 319 252.5 c 128,-1,9
 325 242 325 242 325 231 c 0,10,11
 325 221 325 221 319 210 c 128,-1,12
 313 199 313 199 302 199 c 2,13,-1
 83 199 l 2,0,1
EndSplineSet
EndChar

StartChar: period
Encoding: 46 46 17
Width: 222
Flags: W
LayerCount: 2
Back
Fore
SplineSet
110 -12 m 0,0,1
 83 -12 83 -12 65 5 c 128,-1,2
 47 22 47 22 47 51 c 0,3,4
 47 77 47 77 65 95 c 128,-1,5
 83 113 83 113 111 113 c 0,6,7
 138 113 138 113 156.5 95 c 128,-1,8
 175 77 175 77 175 51 c 0,9,10
 175 22 175 22 156.5 5 c 128,-1,11
 138 -12 138 -12 110 -12 c 0,0,1
EndSplineSet
EndChar

StartChar: slash
Encoding: 47 47 18
Width: 394
Flags: W
LayerCount: 2
Back
Fore
SplineSet
88 -177 m 2,0,1
 84 -188 84 -188 74.5 -192.5 c 128,-1,2
 65 -197 65 -197 56 -195 c 0,3,4
 45 -193 45 -193 38.5 -185 c 128,-1,5
 32 -177 32 -177 34 -166 c 2,6,-1
 304 685 l 2,7,8
 308 696 308 696 317.5 701 c 128,-1,9
 327 706 327 706 337 704 c 0,10,11
 348 702 348 702 355 693 c 128,-1,12
 362 684 362 684 360 674 c 2,13,-1
 88 -177 l 2,0,1
EndSplineSet
EndChar

StartChar: zero
Encoding: 48 48 19
Width: 585
Flags: W
LayerCount: 2
Back
Fore
SplineSet
531 256 m 256,0,1
 531 203 531 203 515.5 153.5 c 128,-1,2
 500 104 500 104 470 65.5 c 128,-1,3
 440 27 440 27 395.5 3.5 c 128,-1,4
 351 -20 351 -20 293 -20 c 0,5,6
 232 -20 232 -20 187 3 c 128,-1,7
 142 26 142 26 113 64.5 c 128,-1,8
 84 103 84 103 69.5 153 c 128,-1,9
 55 203 55 203 55 256 c 0,10,11
 55 310 55 310 69.5 359.5 c 128,-1,12
 84 409 84 409 113 447 c 128,-1,13
 142 485 142 485 187 507.5 c 128,-1,14
 232 530 232 530 293 530 c 0,15,16
 351 530 351 530 395.5 507 c 128,-1,17
 440 484 440 484 470 446 c 128,-1,18
 500 408 500 408 515.5 358.5 c 128,-1,19
 531 309 531 309 531 256 c 256,0,1
435 256 m 256,20,21
 435 373 435 373 398 433 c 128,-1,22
 361 493 361 493 294 493 c 0,23,24
 225 493 225 493 188 433 c 128,-1,25
 151 373 151 373 151 256 c 256,26,27
 151 139 151 139 188 78 c 128,-1,28
 225 17 225 17 294 17 c 0,29,30
 361 17 361 17 398 78 c 128,-1,31
 435 139 435 139 435 256 c 256,20,21
EndSplineSet
EndChar

StartChar: one
Encoding: 49 49 20
Width: 428
Flags: W
LayerCount: 2
Back
Fore
SplineSet
74 441 m 0,0,1
 63 441 63 441 59.5 448.5 c 128,-1,2
 56 456 56 456 56 465 c 0,3,4
 57 483 57 483 64 485 c 128,-1,5
 71 487 71 487 82 487 c 0,6,7
 107 487 107 487 135 493 c 128,-1,8
 163 499 163 499 187 507 c 128,-1,9
 211 515 211 515 229.5 522.5 c 128,-1,10
 248 530 248 530 254 533 c 0,11,12
 262 536 262 536 271 533.5 c 128,-1,13
 280 531 280 531 280 512 c 2,14,-1
 280 133 l 2,15,16
 280 100 280 100 286 81.5 c 128,-1,17
 292 63 292 63 305.5 54 c 128,-1,18
 319 45 319 45 341.5 43 c 128,-1,19
 364 41 364 41 396 41 c 0,20,21
 407 41 407 41 414 40 c 128,-1,22
 421 39 421 39 422 21 c 0,23,24
 422 12 422 12 418.5 4.5 c 128,-1,25
 415 -3 415 -3 404 -3 c 0,26,27
 386 -2 386 -2 362.5 -1.5 c 128,-1,28
 339 -1 339 -1 315 -0.5 c 128,-1,29
 291 0 291 0 270 0 c 128,-1,30
 249 0 249 0 236 0 c 256,31,32
 223 0 223 0 202 0 c 128,-1,33
 181 0 181 0 157.5 -0.5 c 128,-1,34
 134 -1 134 -1 110.5 -1.5 c 128,-1,35
 87 -2 87 -2 69 -3 c 0,36,37
 58 -3 58 -3 54.5 4.5 c 128,-1,38
 51 12 51 12 51 21 c 0,39,40
 52 39 52 39 59 40 c 128,-1,41
 66 41 66 41 77 41 c 0,42,43
 109 41 109 41 131.5 43 c 128,-1,44
 154 45 154 45 167.5 54 c 128,-1,45
 181 63 181 63 187 81.5 c 128,-1,46
 193 100 193 100 193 133 c 2,47,-1
 193 341 l 2,48,49
 194 384 194 384 189.5 405 c 128,-1,50
 185 426 185 426 171.5 433.5 c 128,-1,51
 158 441 158 441 134.5 440.5 c 128,-1,52
 111 440 111 440 74 441 c 0,0,1
EndSplineSet
EndChar

StartChar: two
Encoding: 50 50 21
Width: 491
Flags: W
LayerCount: 2
Back
Fore
SplineSet
60 408 m 0,0,1
 60 440 60 440 77 463 c 128,-1,2
 94 486 94 486 120 501 c 128,-1,3
 146 516 146 516 178 523 c 128,-1,4
 210 530 210 530 240 530 c 0,5,6
 273 530 273 530 306 522 c 128,-1,7
 339 514 339 514 365 496 c 128,-1,8
 391 478 391 478 407.5 449.5 c 128,-1,9
 424 421 424 421 424 380 c 0,10,11
 424 322 424 322 392.5 278 c 128,-1,12
 361 234 361 234 316 198.5 c 128,-1,13
 271 163 271 163 221 133.5 c 128,-1,14
 171 104 171 104 135 76 c 1,15,-1
 135 71 l 1,16,-1
 403 71 l 2,17,18
 423 71 423 71 437 66.5 c 128,-1,19
 451 62 451 62 451 36 c 0,20,21
 451 19 451 19 443 9.5 c 128,-1,22
 435 0 435 0 416 0 c 2,23,-1
 81 0 l 2,24,25
 61 0 61 0 53.5 9.5 c 128,-1,26
 46 19 46 19 46 36 c 0,27,28
 48 59 48 59 59 72 c 128,-1,29
 70 85 70 85 92 99 c 0,30,31
 129 124 129 124 170.5 153 c 128,-1,32
 212 182 212 182 247 217.5 c 128,-1,33
 282 253 282 253 305 296 c 128,-1,34
 328 339 328 339 328 393 c 0,35,36
 328 441 328 441 302.5 467.5 c 128,-1,37
 277 494 277 494 231 494 c 0,38,39
 193 494 193 494 167 475 c 128,-1,40
 141 456 141 456 141 421 c 0,41,42
 141 408 141 408 146 398.5 c 128,-1,43
 151 389 151 389 157.5 382 c 128,-1,44
 164 375 164 375 169 371 c 128,-1,45
 174 367 174 367 174 366 c 0,46,47
 174 361 174 361 162 350 c 128,-1,48
 150 339 150 339 128 339 c 0,49,50
 96 339 96 339 78 359 c 128,-1,51
 60 379 60 379 60 408 c 0,0,1
EndSplineSet
EndChar

StartChar: three
Encoding: 51 51 22
Width: 487
Flags: W
LayerCount: 2
Back
Fore
SplineSet
194 247 m 2,0,1
 186 247 186 247 182.5 253 c 128,-1,2
 179 259 179 259 179 267 c 256,3,4
 179 275 179 275 182.5 282 c 128,-1,5
 186 289 186 289 194 290 c 2,6,-1
 231 290 l 1,7,8
 271 294 271 294 294 325.5 c 128,-1,9
 317 357 317 357 317 400 c 0,10,11
 317 440 317 440 297 467.5 c 128,-1,12
 277 495 277 495 228 495 c 0,13,14
 194 495 194 495 169 478.5 c 128,-1,15
 144 462 144 462 144 427 c 0,16,17
 144 414 144 414 149 404.5 c 128,-1,18
 154 395 154 395 160.5 389 c 128,-1,19
 167 383 167 383 172 379.5 c 128,-1,20
 177 376 177 376 177 375 c 0,21,22
 177 370 177 370 165 359 c 128,-1,23
 153 348 153 348 131 348 c 0,24,25
 98 348 98 348 80.5 368.5 c 128,-1,26
 63 389 63 389 63 419 c 0,27,28
 63 448 63 448 78 469 c 128,-1,29
 93 490 93 490 117 503.5 c 128,-1,30
 141 517 141 517 170.5 523.5 c 128,-1,31
 200 530 200 530 230 530 c 0,32,33
 262 530 262 530 294 523.5 c 128,-1,34
 326 517 326 517 351.5 502 c 128,-1,35
 377 487 377 487 392.5 462 c 128,-1,36
 408 437 408 437 408 400 c 0,37,38
 408 361 408 361 380.5 324 c 128,-1,39
 353 287 353 287 294 271 c 1,40,-1
 294 267 l 1,41,42
 316 265 316 265 340 258 c 128,-1,43
 364 251 364 251 384.5 236.5 c 128,-1,44
 405 222 405 222 418.5 198 c 128,-1,45
 432 174 432 174 432 138 c 0,46,47
 432 94 432 94 414.5 64 c 128,-1,48
 397 34 397 34 368.5 15.5 c 128,-1,49
 340 -3 340 -3 302.5 -11.5 c 128,-1,50
 265 -20 265 -20 225 -20 c 0,51,52
 195 -20 195 -20 164.5 -14 c 128,-1,53
 134 -8 134 -8 108.5 5 c 128,-1,54
 83 18 83 18 67 39.5 c 128,-1,55
 51 61 51 61 51 92 c 0,56,57
 51 118 51 118 67.5 140.5 c 128,-1,58
 84 163 84 163 119 163 c 0,59,60
 141 163 141 163 153 152 c 128,-1,61
 165 141 165 141 165 136 c 0,62,63
 165 134 165 134 160 131 c 128,-1,64
 155 128 155 128 148.5 122 c 128,-1,65
 142 116 142 116 137 106.5 c 128,-1,66
 132 97 132 97 132 83 c 0,67,68
 132 51 132 51 158.5 34 c 128,-1,69
 185 17 185 17 227 17 c 0,70,71
 249 17 249 17 268.5 24 c 128,-1,72
 288 31 288 31 303 45 c 128,-1,73
 318 59 318 59 326.5 81.5 c 128,-1,74
 335 104 335 104 335 136 c 0,75,76
 335 183 335 183 310 213.5 c 128,-1,77
 285 244 285 244 231 247 c 2,78,-1
 194 247 l 2,0,1
EndSplineSet
EndChar

StartChar: four
Encoding: 52 52 23
Width: 496
Flags: W
LayerCount: 2
Back
Fore
SplineSet
373 7 m 2,0,1
 373 -2 373 -2 359.5 -7 c 128,-1,2
 346 -12 346 -12 330 -12 c 256,3,4
 314 -12 314 -12 301 -7 c 128,-1,5
 288 -2 288 -2 286 7 c 2,6,-1
 286 160 l 1,7,-1
 47 160 l 2,8,9
 30 160 30 160 22.5 170.5 c 128,-1,10
 15 181 15 181 15 195 c 0,11,12
 15 208 15 208 22 217 c 2,13,-1
 303 524 l 2,14,15
 309 530 309 530 317.5 532 c 128,-1,16
 326 534 326 534 334 534 c 0,17,18
 348 534 348 534 360 526 c 128,-1,19
 372 518 372 518 373 499 c 2,20,-1
 373 209 l 1,21,-1
 433 209 l 2,22,23
 444 209 444 209 451.5 206.5 c 128,-1,24
 459 204 459 204 460 185 c 0,25,26
 460 175 460 175 456 167.5 c 128,-1,27
 452 160 452 160 441 160 c 2,28,-1
 373 160 l 1,29,-1
 373 7 l 2,0,1
286 209 m 1,30,-1
 286 446 l 1,31,-1
 73 209 l 1,32,-1
 286 209 l 1,30,-1
EndSplineSet
EndChar

StartChar: five
Encoding: 53 53 24
Width: 485
Flags: W
LayerCount: 2
Back
Fore
SplineSet
129 258 m 0,0,1
 124 254 124 254 113.5 248 c 128,-1,2
 103 242 103 242 94 242 c 0,3,4
 87 242 87 242 84 246.5 c 128,-1,5
 81 251 81 251 79.5 257.5 c 128,-1,6
 78 264 78 264 78.5 271 c 128,-1,7
 79 278 79 278 79 282 c 2,8,-1
 110 520 l 1,9,-1
 365 520 l 2,10,11
 375 520 375 520 383.5 520 c 128,-1,12
 392 520 392 520 398.5 517 c 128,-1,13
 405 514 405 514 409 507 c 128,-1,14
 413 500 413 500 414 486 c 0,15,16
 414 472 414 472 406 460.5 c 128,-1,17
 398 449 398 449 378 449 c 2,18,-1
 156 449 l 1,19,-1
 135 310 l 1,20,21
 156 322 156 322 183.5 330 c 128,-1,22
 211 338 211 338 243 338 c 0,23,24
 273 338 273 338 306 328 c 128,-1,25
 339 318 339 318 366.5 297 c 128,-1,26
 394 276 394 276 412.5 242.5 c 128,-1,27
 431 209 431 209 431 163 c 0,28,29
 431 118 431 118 411 84 c 128,-1,30
 391 50 391 50 359.5 26.5 c 128,-1,31
 328 3 328 3 289 -8.5 c 128,-1,32
 250 -20 250 -20 213 -20 c 0,33,34
 199 -20 199 -20 175.5 -17 c 128,-1,35
 152 -14 152 -14 127 -4.5 c 128,-1,36
 102 5 102 5 81 22.5 c 128,-1,37
 60 40 60 40 53 70 c 0,38,39
 49 87 49 87 51.5 104.5 c 128,-1,40
 54 122 54 122 62.5 136.5 c 128,-1,41
 71 151 71 151 85.5 160 c 128,-1,42
 100 169 100 169 119 169 c 0,43,44
 141 169 141 169 153 158 c 128,-1,45
 165 147 165 147 165 142 c 0,46,47
 165 140 165 140 160 136.5 c 128,-1,48
 155 133 155 133 148.5 126 c 128,-1,49
 142 119 142 119 137 109.5 c 128,-1,50
 132 100 132 100 132 87 c 0,51,52
 132 70 132 70 139.5 57 c 128,-1,53
 147 44 147 44 159 35 c 128,-1,54
 171 26 171 26 185.5 21 c 128,-1,55
 200 16 200 16 215 16 c 0,56,57
 244 16 244 16 266.5 28.5 c 128,-1,58
 289 41 289 41 304 61.5 c 128,-1,59
 319 82 319 82 327 107 c 128,-1,60
 335 132 335 132 335 158 c 256,61,62
 335 184 335 184 329 208 c 128,-1,63
 323 232 323 232 310 250.5 c 128,-1,64
 297 269 297 269 275.5 281 c 128,-1,65
 254 293 254 293 224 294 c 0,66,67
 199 295 199 295 175.5 284.5 c 128,-1,68
 152 274 152 274 129 258 c 0,0,1
EndSplineSet
EndChar

StartChar: six
Encoding: 54 54 25
Width: 509
Flags: W
LayerCount: 2
Back
Fore
SplineSet
377 494 m 0,0,1
 280 464 280 464 228 411 c 128,-1,2
 176 358 176 358 159 289 c 1,3,4
 194 312 194 312 226 320.5 c 128,-1,5
 258 329 258 329 292 329 c 0,6,7
 328 329 328 329 360 316.5 c 128,-1,8
 392 304 392 304 415.5 282 c 128,-1,9
 439 260 439 260 452.5 229.5 c 128,-1,10
 466 199 466 199 466 163 c 0,11,12
 466 121 466 121 448.5 87.5 c 128,-1,13
 431 54 431 54 402.5 30 c 128,-1,14
 374 6 374 6 337 -7 c 128,-1,15
 300 -20 300 -20 261 -20 c 0,16,17
 214 -20 214 -20 175.5 -5 c 128,-1,18
 137 10 137 10 110 38.5 c 128,-1,19
 83 67 83 67 68 107.5 c 128,-1,20
 53 148 53 148 53 200 c 0,21,22
 53 261 53 261 75.5 316 c 128,-1,23
 98 371 98 371 138.5 415 c 128,-1,24
 179 459 179 459 235.5 489.5 c 128,-1,25
 292 520 292 520 360 532 c 0,26,27
 376 534 376 534 385.5 531.5 c 128,-1,28
 395 529 395 529 395 515 c 0,29,30
 395 510 395 510 391.5 503.5 c 128,-1,31
 388 497 388 497 377 494 c 0,0,1
370 154 m 0,32,33
 370 214 370 214 339 249 c 128,-1,34
 308 284 308 284 258 284 c 0,35,36
 232 284 232 284 205 271.5 c 128,-1,37
 178 259 178 259 155 238 c 0,38,39
 153 232 153 232 151 221 c 128,-1,40
 149 210 149 210 149 199 c 0,41,42
 149 173 149 173 154.5 140.5 c 128,-1,43
 160 108 160 108 172.5 79.5 c 128,-1,44
 185 51 185 51 206.5 31.5 c 128,-1,45
 228 12 228 12 261 12 c 0,46,47
 308 12 308 12 339 51 c 128,-1,48
 370 90 370 90 370 154 c 0,32,33
EndSplineSet
EndChar

StartChar: seven
Encoding: 55 55 26
Width: 426
Flags: W
LayerCount: 2
Back
Fore
SplineSet
128 23 m 0,0,1
 128 42 128 42 139 74 c 128,-1,2
 150 106 150 106 167.5 145 c 128,-1,3
 185 184 185 184 207.5 227 c 128,-1,4
 230 270 230 270 252.5 311 c 128,-1,5
 275 352 275 352 295.5 388.5 c 128,-1,6
 316 425 316 425 330 451 c 1,7,-1
 155 451 l 2,8,9
 137 451 137 451 124.5 449 c 128,-1,10
 112 447 112 447 103 440 c 128,-1,11
 94 433 94 433 88.5 419 c 128,-1,12
 83 405 83 405 80 381 c 0,13,14
 78 373 78 373 74 369.5 c 128,-1,15
 70 366 70 366 57 366 c 0,16,17
 40 366 40 366 40 383 c 2,18,-1
 44 500 l 2,19,20
 44 514 44 514 53 518 c 128,-1,21
 62 522 62 522 73 522 c 2,22,-1
 378 522 l 2,23,24
 397 522 397 522 402.5 515 c 128,-1,25
 408 508 408 508 406 497 c 128,-1,26
 404 486 404 486 397.5 473.5 c 128,-1,27
 391 461 391 461 385 451 c 0,28,29
 355 400 355 400 328.5 338.5 c 128,-1,30
 302 277 302 277 279 216.5 c 128,-1,31
 256 156 256 156 237 102 c 128,-1,32
 218 48 218 48 202 12 c 0,33,34
 194 -6 194 -6 183 -13 c 128,-1,35
 172 -20 172 -20 161 -20 c 0,36,37
 149 -20 149 -20 138.5 -9.5 c 128,-1,38
 128 1 128 1 128 23 c 0,0,1
EndSplineSet
EndChar

StartChar: eight
Encoding: 56 56 27
Width: 513
Flags: W
LayerCount: 2
Back
Fore
SplineSet
161 404 m 0,0,1
 161 384 161 384 172.5 367.5 c 128,-1,2
 184 351 184 351 203.5 337 c 128,-1,3
 223 323 223 323 249 311 c 128,-1,4
 275 299 275 299 303 287 c 1,5,6
 330 307 330 307 344.5 335.5 c 128,-1,7
 359 364 359 364 359 394 c 0,8,9
 359 414 359 414 353 432.5 c 128,-1,10
 347 451 347 451 334.5 465 c 128,-1,11
 322 479 322 479 303.5 487.5 c 128,-1,12
 285 496 285 496 260 496 c 0,13,14
 213 496 213 496 187 469.5 c 128,-1,15
 161 443 161 443 161 404 c 0,0,1
458 131 m 0,16,17
 458 101 458 101 443 73.5 c 128,-1,18
 428 46 428 46 400.5 25 c 128,-1,19
 373 4 373 4 334.5 -8 c 128,-1,20
 296 -20 296 -20 249 -20 c 0,21,22
 204 -20 204 -20 168 -9 c 128,-1,23
 132 2 132 2 106.5 21.5 c 128,-1,24
 81 41 81 41 67.5 67.5 c 128,-1,25
 54 94 54 94 54 126 c 0,26,27
 54 172 54 172 84.5 204 c 128,-1,28
 115 236 115 236 171 260 c 1,29,30
 123 289 123 289 100.5 319 c 128,-1,31
 78 349 78 349 78 387 c 0,32,33
 78 417 78 417 93.5 443.5 c 128,-1,34
 109 470 109 470 135 489 c 128,-1,35
 161 508 161 508 194.5 519 c 128,-1,36
 228 530 228 530 265 530 c 0,37,38
 303 530 303 530 334.5 519.5 c 128,-1,39
 366 509 366 509 389 490.5 c 128,-1,40
 412 472 412 472 424.5 447 c 128,-1,41
 437 422 437 422 437 393 c 0,42,43
 437 320 437 320 337 269 c 1,44,45
 403 241 403 241 430.5 210 c 128,-1,46
 458 179 458 179 458 131 c 0,16,17
368 113 m 0,47,48
 368 136 368 136 356.5 153.5 c 128,-1,49
 345 171 345 171 324.5 185.5 c 128,-1,50
 304 200 304 200 274.5 214 c 128,-1,51
 245 228 245 228 209 244 c 1,52,53
 179 224 179 224 161.5 194.5 c 128,-1,54
 144 165 144 165 144 130 c 0,55,56
 144 78 144 78 175 45.5 c 128,-1,57
 206 13 206 13 258 13 c 0,58,59
 309 13 309 13 338.5 41.5 c 128,-1,60
 368 70 368 70 368 113 c 0,47,48
EndSplineSet
EndChar

StartChar: nine
Encoding: 57 57 28
Width: 508
Flags: W
LayerCount: 2
Back
Fore
SplineSet
131 16 m 0,0,1
 228 46 228 46 280 99 c 128,-1,2
 332 152 332 152 349 221 c 1,3,4
 314 198 314 198 282 189.5 c 128,-1,5
 250 181 250 181 216 181 c 0,6,7
 180 181 180 181 148 193.5 c 128,-1,8
 116 206 116 206 92.5 228 c 128,-1,9
 69 250 69 250 55.5 280.5 c 128,-1,10
 42 311 42 311 42 347 c 0,11,12
 42 389 42 389 59.5 422.5 c 128,-1,13
 77 456 77 456 105.5 480 c 128,-1,14
 134 504 134 504 171 517 c 128,-1,15
 208 530 208 530 247 530 c 0,16,17
 294 530 294 530 332.5 515 c 128,-1,18
 371 500 371 500 398 471.5 c 128,-1,19
 425 443 425 443 440 402.5 c 128,-1,20
 455 362 455 362 455 310 c 0,21,22
 455 248 455 248 432.5 193.5 c 128,-1,23
 410 139 410 139 369.5 95 c 128,-1,24
 329 51 329 51 272.5 20.5 c 128,-1,25
 216 -10 216 -10 148 -22 c 0,26,27
 132 -24 132 -24 122.5 -21.5 c 128,-1,28
 113 -19 113 -19 113 -5 c 0,29,30
 113 0 113 0 116.5 6.5 c 128,-1,31
 120 13 120 13 131 16 c 0,0,1
138 356 m 0,32,33
 138 296 138 296 169 261 c 128,-1,34
 200 226 200 226 250 226 c 0,35,36
 276 226 276 226 303 238.5 c 128,-1,37
 330 251 330 251 353 272 c 0,38,39
 355 278 355 278 357 289 c 128,-1,40
 359 300 359 300 359 311 c 0,41,42
 359 337 359 337 353.5 369.5 c 128,-1,43
 348 402 348 402 335.5 430.5 c 128,-1,44
 323 459 323 459 301.5 478.5 c 128,-1,45
 280 498 280 498 247 498 c 0,46,47
 200 498 200 498 169 459 c 128,-1,48
 138 420 138 420 138 356 c 0,32,33
EndSplineSet
EndChar

StartChar: colon
Encoding: 58 58 29
Width: 248
Flags: W
LayerCount: 2
Back
Fore
SplineSet
124 429 m 0,0,1
 152 429 152 429 169.5 411.5 c 128,-1,2
 187 394 187 394 187 366 c 256,3,4
 187 338 187 338 169.5 321 c 128,-1,5
 152 304 152 304 123 304 c 0,6,7
 95 304 95 304 77.5 321 c 128,-1,8
 60 338 60 338 60 366 c 256,9,10
 60 394 60 394 77.5 411.5 c 128,-1,11
 95 429 95 429 124 429 c 0,0,1
123 -12 m 0,12,13
 96 -12 96 -12 78 5.5 c 128,-1,14
 60 23 60 23 60 52 c 0,15,16
 60 78 60 78 78 95.5 c 128,-1,17
 96 113 96 113 124 113 c 0,18,19
 153 113 153 113 170.5 95.5 c 128,-1,20
 188 78 188 78 188 52 c 0,21,22
 188 23 188 23 170 5.5 c 128,-1,23
 152 -12 152 -12 123 -12 c 0,12,13
EndSplineSet
EndChar

StartChar: semicolon
Encoding: 59 59 30
Width: 261
Flags: W
LayerCount: 2
Back
Fore
SplineSet
128 426 m 0,0,1
 156 426 156 426 173.5 408.5 c 128,-1,2
 191 391 191 391 191 363 c 0,3,4
 191 336 191 336 173.5 318.5 c 128,-1,5
 156 301 156 301 127 301 c 0,6,7
 101 301 101 301 82.5 318.5 c 128,-1,8
 64 336 64 336 64 363 c 0,9,10
 64 391 64 391 83 408.5 c 128,-1,11
 102 426 102 426 128 426 c 0,0,1
58 97 m 0,12,13
 58 116 58 116 72.5 131.5 c 128,-1,14
 87 147 87 147 108 147 c 0,15,16
 130 147 130 147 148.5 136.5 c 128,-1,17
 167 126 167 126 180.5 108.5 c 128,-1,18
 194 91 194 91 201.5 70 c 128,-1,19
 209 49 209 49 209 28 c 0,20,21
 209 -3 209 -3 195.5 -27.5 c 128,-1,22
 182 -52 182 -52 161 -70 c 128,-1,23
 140 -88 140 -88 113.5 -100.5 c 128,-1,24
 87 -113 87 -113 61 -120 c 0,25,26
 53 -123 53 -123 47.5 -119.5 c 128,-1,27
 42 -116 42 -116 39.5 -110 c 128,-1,28
 37 -104 37 -104 38.5 -98 c 128,-1,29
 40 -92 40 -92 48 -89 c 0,30,31
 90 -73 90 -73 111.5 -51.5 c 128,-1,32
 133 -30 133 -30 133 0 c 0,33,34
 133 18 133 18 121.5 29 c 128,-1,35
 110 40 110 40 95.5 49.5 c 128,-1,36
 81 59 81 59 69.5 69.5 c 128,-1,37
 58 80 58 80 58 97 c 0,12,13
EndSplineSet
EndChar

StartChar: less
Encoding: 60 60 31
Width: 529
Flags: W
LayerCount: 2
Back
Fore
SplineSet
49 232 m 2,0,1
 36 241 36 241 36 257 c 0,2,3
 36 264 36 264 39 271 c 128,-1,4
 42 278 42 278 49 282 c 2,5,-1
 441 488 l 2,6,7
 449 490 449 490 453 490 c 0,8,9
 466 490 466 490 471 480.5 c 128,-1,10
 476 471 476 471 476 461 c 0,11,12
 476 442 476 442 458 433 c 2,13,-1
 124 259 l 1,14,-1
 124 256 l 1,15,-1
 458 82 l 2,16,17
 476 71 476 71 476 54 c 0,18,19
 476 44 476 44 471 34 c 128,-1,20
 466 24 466 24 453 24 c 0,21,22
 447 24 447 24 441 27 c 2,23,-1
 49 232 l 2,0,1
EndSplineSet
EndChar

StartChar: equal
Encoding: 61 61 32
Width: 630
Flags: W
LayerCount: 2
Back
Fore
SplineSet
91 147 m 2,0,1
 80 147 80 147 74 155.5 c 128,-1,2
 68 164 68 164 68 174 c 0,3,4
 68 185 68 185 74 193 c 128,-1,5
 80 201 80 201 91 201 c 2,6,-1
 539 201 l 2,7,8
 550 201 550 201 556 193 c 128,-1,9
 562 185 562 185 562 174 c 0,10,11
 562 164 562 164 556 155.5 c 128,-1,12
 550 147 550 147 539 147 c 2,13,-1
 91 147 l 2,0,1
91 315 m 2,14,15
 80 315 80 315 74 323.5 c 128,-1,16
 68 332 68 332 68 342 c 0,17,18
 68 353 68 353 74 361 c 128,-1,19
 80 369 80 369 91 369 c 2,20,-1
 539 369 l 2,21,22
 550 369 550 369 556 361 c 128,-1,23
 562 353 562 353 562 342 c 0,24,25
 562 332 562 332 556 323.5 c 128,-1,26
 550 315 550 315 539 315 c 2,27,-1
 91 315 l 2,14,15
EndSplineSet
EndChar

StartChar: greater
Encoding: 62 62 33
Width: 529
Flags: W
LayerCount: 2
Back
Fore
SplineSet
88 27 m 2,0,1
 82 24 82 24 76 24 c 0,2,3
 63 24 63 24 58 34 c 128,-1,4
 53 44 53 44 53 54 c 0,5,6
 53 71 53 71 71 82 c 2,7,-1
 405 256 l 1,8,-1
 405 259 l 1,9,-1
 71 433 l 2,10,11
 53 442 53 442 53 461 c 0,12,13
 53 471 53 471 58 480.5 c 128,-1,14
 63 490 63 490 76 490 c 0,15,16
 80 490 80 490 88 488 c 2,17,-1
 480 282 l 2,18,19
 487 278 487 278 490 271 c 128,-1,20
 493 264 493 264 493 257 c 0,21,22
 493 241 493 241 480 232 c 2,23,-1
 88 27 l 2,0,1
EndSplineSet
EndChar

StartChar: question
Encoding: 63 63 34
Width: 435
Flags: W
LayerCount: 2
Back
Fore
SplineSet
211 -12 m 0,0,1
 184 -12 184 -12 166 5.5 c 128,-1,2
 148 23 148 23 148 52 c 0,3,4
 148 78 148 78 166 96.5 c 128,-1,5
 184 115 184 115 212 115 c 256,6,7
 240 115 240 115 258 96.5 c 128,-1,8
 276 78 276 78 276 52 c 0,9,10
 276 23 276 23 258 5.5 c 128,-1,11
 240 -12 240 -12 211 -12 c 0,0,1
207 687 m 0,12,13
 242 688 242 688 275 681 c 128,-1,14
 308 674 308 674 333.5 657.5 c 128,-1,15
 359 641 359 641 374 614 c 128,-1,16
 389 587 389 587 389 548 c 0,17,18
 389 520 389 520 378.5 497.5 c 128,-1,19
 368 475 368 475 350.5 455.5 c 128,-1,20
 333 436 333 436 311.5 420 c 128,-1,21
 290 404 290 404 269 390 c 0,22,23
 250 377 250 377 232.5 364 c 128,-1,24
 215 351 215 351 201 337 c 128,-1,25
 187 323 187 323 178.5 306.5 c 128,-1,26
 170 290 170 290 170 271 c 256,27,28
 170 252 170 252 182.5 240 c 128,-1,29
 195 228 195 228 209 228 c 0,30,31
 226 228 226 228 241 236.5 c 128,-1,32
 256 245 256 245 270 259 c 0,33,34
 279 268 279 268 288 271 c 128,-1,35
 297 274 297 274 305 273 c 0,36,37
 321 271 321 271 330.5 259 c 128,-1,38
 340 247 340 247 327 233 c 0,39,40
 305 211 305 211 278 199 c 128,-1,41
 251 187 251 187 226 187 c 0,42,43
 203 187 203 187 182 195.5 c 128,-1,44
 161 204 161 204 144.5 220 c 128,-1,45
 128 236 128 236 118 258.5 c 128,-1,46
 108 281 108 281 108 310 c 0,47,48
 108 333 108 333 117 351.5 c 128,-1,49
 126 370 126 370 141 385.5 c 128,-1,50
 156 401 156 401 174.5 414 c 128,-1,51
 193 427 193 427 213 439 c 0,52,53
 232 451 232 451 250 463 c 128,-1,54
 268 475 268 475 282 489 c 128,-1,55
 296 503 296 503 304.5 519.5 c 128,-1,56
 313 536 313 536 313 557 c 0,57,58
 313 596 313 596 287.5 624 c 128,-1,59
 262 652 262 652 212 651 c 0,60,61
 197 651 197 651 181.5 646.5 c 128,-1,62
 166 642 166 642 154 633 c 128,-1,63
 142 624 142 624 134 610.5 c 128,-1,64
 126 597 126 597 126 580 c 0,65,66
 126 567 126 567 131 557.5 c 128,-1,67
 136 548 136 548 142.5 541 c 128,-1,68
 149 534 149 534 154 530 c 128,-1,69
 159 526 159 526 159 525 c 0,70,71
 159 520 159 520 147 509 c 128,-1,72
 135 498 135 498 113 498 c 0,73,74
 94 498 94 498 79.5 507 c 128,-1,75
 65 516 65 516 56.5 530.5 c 128,-1,76
 48 545 48 545 45.5 562.5 c 128,-1,77
 43 580 43 580 47 597 c 0,78,79
 54 627 54 627 75 644.5 c 128,-1,80
 96 662 96 662 121 671.5 c 128,-1,81
 146 681 146 681 169.5 684 c 128,-1,82
 193 687 193 687 207 687 c 0,12,13
EndSplineSet
EndChar

StartChar: at
Encoding: 64 64 35
Width: 878
Flags: W
LayerCount: 2
Back
Fore
SplineSet
706 -30 m 0,0,1
 713 -26 713 -26 718 -29 c 128,-1,2
 723 -32 723 -32 725.5 -37.5 c 128,-1,3
 728 -43 728 -43 727 -50 c 128,-1,4
 726 -57 726 -57 720 -61 c 0,5,6
 669 -97 669 -97 603.5 -119 c 128,-1,7
 538 -141 538 -141 459 -141 c 0,8,9
 385 -141 385 -141 312 -119 c 128,-1,10
 239 -97 239 -97 181 -52.5 c 128,-1,11
 123 -8 123 -8 87 59.5 c 128,-1,12
 51 127 51 127 51 219 c 0,13,14
 51 297 51 297 83 370.5 c 128,-1,15
 115 444 115 444 174 501 c 128,-1,16
 233 558 233 558 316 592.5 c 128,-1,17
 399 627 399 627 501 627 c 0,18,19
 585 627 585 627 647.5 602.5 c 128,-1,20
 710 578 710 578 751.5 536.5 c 128,-1,21
 793 495 793 495 814 441 c 128,-1,22
 835 387 835 387 835 328 c 0,23,24
 835 273 835 273 817.5 224.5 c 128,-1,25
 800 176 800 176 768.5 139.5 c 128,-1,26
 737 103 737 103 693.5 82 c 128,-1,27
 650 61 650 61 598 61 c 0,28,29
 556 61 556 61 526 80 c 128,-1,30
 496 99 496 99 492 137 c 1,31,32
 467 103 467 103 436.5 83 c 128,-1,33
 406 63 406 63 374 63 c 0,34,35
 352 63 352 63 331.5 70 c 128,-1,36
 311 77 311 77 294.5 92 c 128,-1,37
 278 107 278 107 268 131.5 c 128,-1,38
 258 156 258 156 258 192 c 0,39,40
 258 225 258 225 274.5 268 c 128,-1,41
 291 311 291 311 322 349 c 128,-1,42
 353 387 353 387 396 413 c 128,-1,43
 439 439 439 439 492 439 c 0,44,45
 520 439 520 439 541.5 427 c 128,-1,46
 563 415 563 415 571 388 c 1,47,-1
 587 424 l 2,48,49
 591 432 591 432 599 435 c 128,-1,50
 607 438 607 438 616 438 c 0,51,52
 623 438 623 438 631.5 435.5 c 128,-1,53
 640 433 640 433 646.5 428 c 128,-1,54
 653 423 653 423 656.5 415.5 c 128,-1,55
 660 408 660 408 658 399 c 2,56,-1
 574 182 l 2,57,58
 568 168 568 168 566 153 c 128,-1,59
 564 138 564 138 567.5 125.5 c 128,-1,60
 571 113 571 113 581 105 c 128,-1,61
 591 97 591 97 609 97 c 0,62,63
 647 97 647 97 679.5 114.5 c 128,-1,64
 712 132 712 132 736 163 c 128,-1,65
 760 194 760 194 773.5 237.5 c 128,-1,66
 787 281 787 281 787 333 c 256,67,68
 787 385 787 385 768.5 430 c 128,-1,69
 750 475 750 475 713.5 509 c 128,-1,70
 677 543 677 543 622.5 562.5 c 128,-1,71
 568 582 568 582 495 582 c 0,72,73
 431 582 431 582 367 558.5 c 128,-1,74
 303 535 303 535 252 489.5 c 128,-1,75
 201 444 201 444 169 378 c 128,-1,76
 137 312 137 312 137 227 c 0,77,78
 137 145 137 145 162 84 c 128,-1,79
 187 23 187 23 230.5 -17.5 c 128,-1,80
 274 -58 274 -58 333.5 -78 c 128,-1,81
 393 -98 393 -98 462 -98 c 0,82,83
 539 -98 539 -98 597 -78.5 c 128,-1,84
 655 -59 655 -59 706 -30 c 0,0,1
554 339 m 1,85,86
 543 406 543 406 489 406 c 0,87,88
 464 406 464 406 438.5 382 c 128,-1,89
 413 358 413 358 392 322.5 c 128,-1,90
 371 287 371 287 358 246.5 c 128,-1,91
 345 206 345 206 345 173 c 0,92,93
 345 131 345 131 364.5 118.5 c 128,-1,94
 384 106 384 106 409.5 113 c 128,-1,95
 435 120 435 120 460.5 141 c 128,-1,96
 486 162 486 162 497 188 c 2,97,-1
 554 339 l 1,85,86
EndSplineSet
EndChar

StartChar: A
Encoding: 65 65 36
Width: 653
Flags: W
LayerCount: 2
Back
Fore
SplineSet
196 243 m 1,0,-1
 406 243 l 1,1,-1
 305 500 l 1,2,-1
 302 500 l 1,3,-1
 196 243 l 1,0,-1
236 637 m 0,4,5
 267 637 267 637 290.5 632.5 c 128,-1,6
 314 628 314 628 332.5 617 c 128,-1,7
 351 606 351 606 366 585 c 128,-1,8
 381 564 381 564 395 531 c 2,9,-1
 563 117 l 2,10,11
 568 104 568 104 574 90.5 c 128,-1,12
 580 77 580 77 588 66 c 128,-1,13
 596 55 596 55 607 47.5 c 128,-1,14
 618 40 618 40 634 40 c 0,15,16
 645 40 645 40 651.5 38 c 128,-1,17
 658 36 658 36 659 19 c 0,18,19
 659 11 659 11 654.5 4 c 128,-1,20
 650 -3 650 -3 641 -3 c 0,21,22
 609 -1 609 -1 585 -0.5 c 128,-1,23
 561 0 561 0 531 0 c 0,24,25
 471 0 471 0 407 -3 c 0,26,27
 397 -3 397 -3 393 4 c 128,-1,28
 389 11 389 11 389 19 c 0,29,30
 390 36 390 36 396.5 38 c 128,-1,31
 403 40 403 40 414 40 c 0,32,33
 438 40 438 40 451 44.5 c 128,-1,34
 464 49 464 49 467.5 58 c 128,-1,35
 471 67 471 67 468.5 81.5 c 128,-1,36
 466 96 466 96 458 117 c 2,37,-1
 424 200 l 1,38,-1
 177 200 l 1,39,40
 153 139 153 139 145 117 c 0,41,42
 137 91 137 91 134 76 c 128,-1,43
 131 61 131 61 137 53 c 128,-1,44
 143 45 143 45 159.5 42.5 c 128,-1,45
 176 40 176 40 205 40 c 0,46,47
 216 40 216 40 222.5 38 c 128,-1,48
 229 36 229 36 230 19 c 0,49,50
 230 11 230 11 225.5 4 c 128,-1,51
 221 -3 221 -3 212 -3 c 0,52,53
 180 -1 180 -1 156.5 -0.5 c 128,-1,54
 133 0 133 0 103 0 c 0,55,56
 88 0 88 0 77 0 c 128,-1,57
 66 0 66 0 55.5 -0.5 c 128,-1,58
 45 -1 45 -1 33.5 -1.5 c 128,-1,59
 22 -2 22 -2 6 -3 c 0,60,61
 -4 -3 -4 -3 -8 4 c 128,-1,62
 -12 11 -12 11 -12 19 c 0,63,64
 -11 36 -11 36 -4.5 38 c 128,-1,65
 2 40 2 40 13 40 c 0,66,67
 33 40 33 40 45.5 46.5 c 128,-1,68
 58 53 58 53 66.5 64 c 128,-1,69
 75 75 75 75 81 89 c 128,-1,70
 87 103 87 103 93 117 c 2,71,-1
 268 531 l 2,72,73
 275 549 275 549 273 560 c 128,-1,74
 271 571 271 571 263.5 578 c 128,-1,75
 256 585 256 585 244.5 588.5 c 128,-1,76
 233 592 233 592 221 594 c 0,77,78
 206 597 206 597 201 599.5 c 128,-1,79
 196 602 196 602 196 617 c 0,80,81
 196 634 196 634 207.5 635.5 c 128,-1,82
 219 637 219 637 236 637 c 0,4,5
EndSplineSet
EndChar

StartChar: B
Encoding: 66 66 37
Width: 621
Flags: W
LayerCount: 2
Back
Fore
SplineSet
303 39 m 0,0,1
 336 39 336 39 366 47 c 128,-1,2
 396 55 396 55 418 72.5 c 128,-1,3
 440 90 440 90 453 119 c 128,-1,4
 466 148 466 148 466 192 c 0,5,6
 464 216 464 216 453 238 c 128,-1,7
 442 260 442 260 419.5 277.5 c 128,-1,8
 397 295 397 295 361 305.5 c 128,-1,9
 325 316 325 316 272 316 c 2,10,-1
 231 316 l 1,11,-1
 231 117 l 2,12,13
 231 92 231 92 234.5 76.5 c 128,-1,14
 238 61 238 61 246 53 c 128,-1,15
 254 45 254 45 268 42 c 128,-1,16
 282 39 282 39 303 39 c 0,0,1
231 594 m 1,17,-1
 231 356 l 1,18,-1
 273 356 l 2,19,20
 293 356 293 356 318.5 358 c 128,-1,21
 344 360 344 360 366 371 c 128,-1,22
 388 382 388 382 403 406 c 128,-1,23
 418 430 418 430 418 475 c 0,24,25
 418 528 418 528 392.5 561 c 128,-1,26
 367 594 367 594 301 594 c 2,27,-1
 231 594 l 1,17,-1
179 0 m 2,28,29
 149 0 149 0 120.5 -0.5 c 128,-1,30
 92 -1 92 -1 60 -3 c 0,31,32
 50 -3 50 -3 46 4 c 128,-1,33
 42 11 42 11 42 19 c 0,34,35
 43 36 43 36 49.5 38 c 128,-1,36
 56 40 56 40 67 40 c 0,37,38
 91 40 91 40 104 46.5 c 128,-1,39
 117 53 117 53 123 64 c 128,-1,40
 129 75 129 75 130.5 89 c 128,-1,41
 132 103 132 103 132 117 c 2,42,-1
 132 514 l 2,43,44
 132 528 132 528 130.5 542 c 128,-1,45
 129 556 129 556 123 567 c 128,-1,46
 117 578 117 578 104 584.5 c 128,-1,47
 91 591 91 591 67 591 c 0,48,49
 56 591 56 591 49.5 593 c 128,-1,50
 43 595 43 595 42 612 c 0,51,52
 42 620 42 620 46 627 c 128,-1,53
 50 634 50 634 60 634 c 0,54,55
 92 632 92 632 120 631.5 c 128,-1,56
 148 631 148 631 178 631 c 2,57,-1
 319 631 l 2,58,59
 377 631 377 631 410 622.5 c 128,-1,60
 443 614 443 614 469 598 c 0,61,62
 495 581 495 581 510 551.5 c 128,-1,63
 525 522 525 522 525 487 c 0,64,65
 525 453 525 453 512.5 427.5 c 128,-1,66
 500 402 500 402 480 384 c 128,-1,67
 460 366 460 366 436 355 c 128,-1,68
 412 344 412 344 390 339 c 1,69,-1
 390 336 l 1,70,71
 430 336 430 336 463.5 324.5 c 128,-1,72
 497 313 497 313 521 293 c 128,-1,73
 545 273 545 273 559 247 c 128,-1,74
 573 221 573 221 574 192 c 0,75,76
 575 135 575 135 549 98 c 128,-1,77
 523 61 523 61 482.5 39 c 128,-1,78
 442 17 442 17 393 8 c 128,-1,79
 344 -1 344 -1 299 -1 c 2,80,-1
 179 0 l 2,28,29
EndSplineSet
EndChar

StartChar: C
Encoding: 67 67 38
Width: 639
Flags: W
LayerCount: 2
Back
Fore
SplineSet
596 510 m 0,0,1
 596 489 596 489 589.5 469.5 c 128,-1,2
 583 450 583 450 570 435 c 128,-1,3
 557 420 557 420 537.5 411 c 128,-1,4
 518 402 518 402 494 402 c 0,5,6
 479 402 479 402 468.5 406.5 c 128,-1,7
 458 411 458 411 451.5 417 c 128,-1,8
 445 423 445 423 442.5 429 c 128,-1,9
 440 435 440 435 440 438 c 0,10,11
 440 440 440 440 448 444.5 c 128,-1,12
 456 449 456 449 465 457.5 c 128,-1,13
 474 466 474 466 482 479.5 c 128,-1,14
 490 493 490 493 490 513 c 0,15,16
 490 558 490 558 460 584.5 c 128,-1,17
 430 611 430 611 375 611 c 0,18,19
 330 611 330 611 291.5 591.5 c 128,-1,20
 253 572 253 572 225 534.5 c 128,-1,21
 197 497 197 497 181.5 442.5 c 128,-1,22
 166 388 166 388 166 317 c 0,23,24
 166 257 166 257 182.5 204.5 c 128,-1,25
 199 152 199 152 229 113 c 128,-1,26
 259 74 259 74 301 51.5 c 128,-1,27
 343 29 343 29 394 29 c 0,28,29
 448 29 448 29 486 51 c 128,-1,30
 524 73 524 73 556 124 c 0,31,32
 565 141 565 141 588 127 c 0,33,34
 597 121 597 121 602 112.5 c 128,-1,35
 607 104 607 104 600 95 c 0,36,37
 571 59 571 59 545.5 36.5 c 128,-1,38
 520 14 520 14 492.5 1.5 c 128,-1,39
 465 -11 465 -11 432.5 -15.5 c 128,-1,40
 400 -20 400 -20 358 -20 c 0,41,42
 295 -20 295 -20 239 2.5 c 128,-1,43
 183 25 183 25 140.5 68 c 128,-1,44
 98 111 98 111 73.5 172.5 c 128,-1,45
 49 234 49 234 49 311 c 0,46,47
 49 387 49 387 72 450 c 128,-1,48
 95 513 95 513 137.5 557.5 c 128,-1,49
 180 602 180 602 240.5 626.5 c 128,-1,50
 301 651 301 651 376 651 c 0,51,52
 412 651 412 651 451 644 c 128,-1,53
 490 637 490 637 522.5 620.5 c 128,-1,54
 555 604 555 604 575.5 577 c 128,-1,55
 596 550 596 550 596 510 c 0,0,1
EndSplineSet
EndChar

StartChar: D
Encoding: 68 68 39
Width: 728
Flags: W
LayerCount: 2
Back
Fore
SplineSet
335 631 m 2,0,1
 407 631 407 631 469.5 609.5 c 128,-1,2
 532 588 532 588 578.5 547 c 128,-1,3
 625 506 625 506 652 446.5 c 128,-1,4
 679 387 679 387 679 312 c 0,5,6
 679 232 679 232 647.5 173 c 128,-1,7
 616 114 616 114 565 75.5 c 128,-1,8
 514 37 514 37 449 18.5 c 128,-1,9
 384 0 384 0 317 0 c 2,10,-1
 179 0 l 2,11,12
 149 0 149 0 121 -0.5 c 128,-1,13
 93 -1 93 -1 60 -3 c 0,14,15
 51 -3 51 -3 47 4 c 128,-1,16
 43 11 43 11 43 19 c 0,17,18
 44 36 44 36 50.5 38 c 128,-1,19
 57 40 57 40 68 40 c 0,20,21
 92 40 92 40 105 46.5 c 128,-1,22
 118 53 118 53 124 64 c 128,-1,23
 130 75 130 75 131.5 89 c 128,-1,24
 133 103 133 103 133 117 c 2,25,-1
 133 514 l 2,26,27
 133 528 133 528 131.5 542 c 128,-1,28
 130 556 130 556 124 567 c 128,-1,29
 118 578 118 578 105 584.5 c 128,-1,30
 92 591 92 591 68 591 c 0,31,32
 57 591 57 591 50.5 593 c 128,-1,33
 44 595 44 595 43 612 c 0,34,35
 43 620 43 620 47 627 c 128,-1,36
 51 634 51 634 60 634 c 0,37,38
 93 632 93 632 121 631.5 c 128,-1,39
 149 631 149 631 179 631 c 2,40,-1
 335 631 l 2,0,1
558 312 m 0,41,42
 558 373 558 373 541.5 425 c 128,-1,43
 525 477 525 477 493.5 515 c 128,-1,44
 462 553 462 553 415.5 574 c 128,-1,45
 369 595 369 595 310 595 c 0,46,47
 302 595 302 595 232 594 c 1,48,-1
 232 105 l 2,49,50
 232 64 232 64 256.5 50.5 c 128,-1,51
 281 37 281 37 332 37 c 0,52,53
 393 37 393 37 436 57 c 128,-1,54
 479 77 479 77 506 113 c 128,-1,55
 533 149 533 149 545.5 199.5 c 128,-1,56
 558 250 558 250 558 312 c 0,41,42
EndSplineSet
EndChar

StartChar: E
Encoding: 69 69 40
Width: 594
Flags: W
LayerCount: 2
Back
Fore
SplineSet
493 631 m 2,0,1
 504 631 504 631 511.5 626 c 128,-1,2
 519 621 519 621 519 607 c 2,3,-1
 522 467 l 2,4,5
 522 457 522 457 512.5 452 c 128,-1,6
 503 447 503 447 495 447 c 0,7,8
 484 447 484 447 475 451.5 c 128,-1,9
 466 456 466 456 464 465 c 0,10,11
 459 499 459 499 452.5 522.5 c 128,-1,12
 446 546 446 546 435.5 561 c 128,-1,13
 425 576 425 576 408.5 583 c 128,-1,14
 392 590 392 590 366 591 c 2,15,-1
 232 591 l 1,16,-1
 232 337 l 1,17,-1
 413 337 l 2,18,19
 421 336 421 336 424.5 329 c 128,-1,20
 428 322 428 322 428 314 c 256,21,22
 428 306 428 306 424.5 300 c 128,-1,23
 421 294 421 294 413 294 c 2,24,-1
 232 294 l 1,25,-1
 232 105 l 2,26,27
 233 95 233 95 234 83.5 c 128,-1,28
 235 72 235 72 241.5 62 c 128,-1,29
 248 52 248 52 262 45.5 c 128,-1,30
 276 39 276 39 302 40 c 2,31,-1
 394 40 l 2,32,33
 420 41 420 41 436.5 46.5 c 128,-1,34
 453 52 453 52 464 65.5 c 128,-1,35
 475 79 475 79 483 101 c 128,-1,36
 491 123 491 123 501 156 c 0,37,38
 505 166 505 166 514.5 169 c 128,-1,39
 524 172 524 172 535 170 c 0,40,41
 543 168 543 168 551.5 162.5 c 128,-1,42
 560 157 560 157 559 147 c 2,43,-1
 539 21 l 2,44,45
 536 7 536 7 529.5 3.5 c 128,-1,46
 523 0 523 0 510 0 c 2,47,-1
 180 0 l 2,48,49
 150 0 150 0 121.5 -0.5 c 128,-1,50
 93 -1 93 -1 60 -3 c 0,51,52
 51 -3 51 -3 47 4 c 128,-1,53
 43 11 43 11 43 19 c 0,54,55
 44 36 44 36 50.5 38 c 128,-1,56
 57 40 57 40 68 40 c 0,57,58
 92 40 92 40 105 46.5 c 128,-1,59
 118 53 118 53 124 64 c 128,-1,60
 130 75 130 75 131.5 89 c 128,-1,61
 133 103 133 103 133 117 c 2,62,-1
 133 514 l 2,63,64
 133 528 133 528 131.5 542 c 128,-1,65
 130 556 130 556 124 567 c 128,-1,66
 118 578 118 578 105 584.5 c 128,-1,67
 92 591 92 591 68 591 c 0,68,69
 57 591 57 591 50.5 593 c 128,-1,70
 44 595 44 595 43 612 c 0,71,72
 43 620 43 620 47 627 c 128,-1,73
 51 634 51 634 60 634 c 0,74,75
 93 632 93 632 121 631.5 c 128,-1,76
 149 631 149 631 179 631 c 2,77,-1
 493 631 l 2,0,1
EndSplineSet
EndChar

StartChar: F
Encoding: 70 70 41
Width: 525
Flags: W
LayerCount: 2
Back
Fore
SplineSet
133 514 m 2,0,1
 133 528 133 528 131.5 542 c 128,-1,2
 130 556 130 556 124 567 c 128,-1,3
 118 578 118 578 105 584.5 c 128,-1,4
 92 591 92 591 68 591 c 0,5,6
 57 591 57 591 50.5 593 c 128,-1,7
 44 595 44 595 43 612 c 0,8,9
 43 620 43 620 47 627 c 128,-1,10
 51 634 51 634 60 634 c 0,11,12
 92 632 92 632 120.5 631.5 c 128,-1,13
 149 631 149 631 179 631 c 2,14,-1
 468 631 l 2,15,16
 479 631 479 631 486.5 626 c 128,-1,17
 494 621 494 621 494 607 c 2,18,-1
 497 467 l 2,19,20
 497 457 497 457 487.5 452 c 128,-1,21
 478 447 478 447 470 447 c 0,22,23
 459 447 459 447 449.5 451.5 c 128,-1,24
 440 456 440 456 438 465 c 0,25,26
 433 499 433 499 427 522.5 c 128,-1,27
 421 546 421 546 410.5 561 c 128,-1,28
 400 576 400 576 383.5 583 c 128,-1,29
 367 590 367 590 341 591 c 2,30,-1
 232 591 l 1,31,-1
 232 331 l 1,32,-1
 411 331 l 2,33,34
 419 330 419 330 423 323 c 128,-1,35
 427 316 427 316 427 308 c 256,36,37
 427 300 427 300 423 294 c 128,-1,38
 419 288 419 288 411 288 c 2,39,-1
 232 288 l 1,40,-1
 232 117 l 2,41,42
 232 103 232 103 233.5 89 c 128,-1,43
 235 75 235 75 241 64 c 128,-1,44
 247 53 247 53 260 46.5 c 128,-1,45
 273 40 273 40 297 40 c 0,46,47
 307 40 307 40 314 38 c 128,-1,48
 321 36 321 36 322 19 c 0,49,50
 322 11 322 11 318 4 c 128,-1,51
 314 -3 314 -3 304 -3 c 0,52,53
 239 0 239 0 180 0 c 0,54,55
 150 0 150 0 121 -0.5 c 128,-1,56
 92 -1 92 -1 60 -3 c 0,57,58
 51 -3 51 -3 47 4 c 128,-1,59
 43 11 43 11 43 19 c 0,60,61
 44 36 44 36 50.5 38 c 128,-1,62
 57 40 57 40 68 40 c 0,63,64
 92 40 92 40 105 46.5 c 128,-1,65
 118 53 118 53 124 64 c 128,-1,66
 130 75 130 75 131.5 89 c 128,-1,67
 133 103 133 103 133 117 c 2,68,-1
 133 514 l 2,0,1
EndSplineSet
EndChar

StartChar: G
Encoding: 71 71 42
Width: 692
Flags: W
LayerCount: 2
Back
Fore
SplineSet
590 29 m 1,0,1
 561 15 561 15 535 5.5 c 128,-1,2
 509 -4 509 -4 482.5 -9.5 c 128,-1,3
 456 -15 456 -15 426 -17.5 c 128,-1,4
 396 -20 396 -20 359 -20 c 0,5,6
 296 -20 296 -20 239.5 0 c 128,-1,7
 183 20 183 20 140.5 61 c 128,-1,8
 98 102 98 102 73.5 164 c 128,-1,9
 49 226 49 226 49 311 c 0,10,11
 49 387 49 387 74.5 450 c 128,-1,12
 100 513 100 513 146.5 557.5 c 128,-1,13
 193 602 193 602 257 626.5 c 128,-1,14
 321 651 321 651 398 651 c 0,15,16
 433 651 433 651 470.5 643 c 128,-1,17
 508 635 508 635 539 618 c 128,-1,18
 570 601 570 601 590 574.5 c 128,-1,19
 610 548 610 548 610 510 c 0,20,21
 610 489 610 489 603.5 469.5 c 128,-1,22
 597 450 597 450 585 435 c 128,-1,23
 573 420 573 420 555 411 c 128,-1,24
 537 402 537 402 515 402 c 0,25,26
 496 402 496 402 475.5 411.5 c 128,-1,27
 455 421 455 421 454 438 c 0,28,29
 454 440 454 440 462 445 c 128,-1,30
 470 450 470 450 479 459 c 128,-1,31
 488 468 488 468 496 482 c 128,-1,32
 504 496 504 496 504 517 c 0,33,34
 504 560 504 560 471 585.5 c 128,-1,35
 438 611 438 611 386 611 c 0,36,37
 340 611 340 611 300 591.5 c 128,-1,38
 260 572 260 572 230 534.5 c 128,-1,39
 200 497 200 497 183 442.5 c 128,-1,40
 166 388 166 388 166 317 c 0,41,42
 166 249 166 249 182.5 196 c 128,-1,43
 199 143 199 143 229 105.5 c 128,-1,44
 259 68 259 68 301 48.5 c 128,-1,45
 343 29 343 29 394 29 c 0,46,47
 427 29 427 29 451 33 c 128,-1,48
 475 37 475 37 502 45 c 1,49,-1
 502 147 l 2,50,51
 502 168 502 168 501.5 182.5 c 128,-1,52
 501 197 501 197 495.5 206 c 128,-1,53
 490 215 490 215 478 219.5 c 128,-1,54
 466 224 466 224 444 224 c 0,55,56
 433 224 433 224 425 226 c 128,-1,57
 417 228 417 228 416 245 c 0,58,59
 416 253 416 253 421 260 c 128,-1,60
 426 267 426 267 437 267 c 0,61,62
 453 266 453 266 465.5 265.5 c 128,-1,63
 478 265 478 265 490.5 264.5 c 128,-1,64
 503 264 503 264 516.5 264 c 128,-1,65
 530 264 530 264 547 264 c 256,66,67
 564 264 564 264 577 264 c 128,-1,68
 590 264 590 264 602 264.5 c 128,-1,69
 614 265 614 265 626.5 265.5 c 128,-1,70
 639 266 639 266 655 267 c 0,71,72
 665 267 665 267 669.5 260 c 128,-1,73
 674 253 674 253 674 245 c 0,74,75
 673 228 673 228 665 226 c 128,-1,76
 657 224 657 224 646 224 c 0,77,78
 625 224 625 224 613.5 219 c 128,-1,79
 602 214 602 214 597 204.5 c 128,-1,80
 592 195 592 195 591 180.5 c 128,-1,81
 590 166 590 166 590 147 c 2,82,-1
 590 29 l 1,0,1
EndSplineSet
EndChar

StartChar: H
Encoding: 72 72 43
Width: 777
Flags: W
LayerCount: 2
Back
Fore
SplineSet
232 294 m 1,0,-1
 232 117 l 2,1,2
 232 103 232 103 233.5 89 c 128,-1,3
 235 75 235 75 241 64 c 128,-1,4
 247 53 247 53 260 46.5 c 128,-1,5
 273 40 273 40 297 40 c 0,6,7
 308 40 308 40 314.5 38 c 128,-1,8
 321 36 321 36 322 19 c 0,9,10
 322 11 322 11 318 4 c 128,-1,11
 314 -3 314 -3 304 -3 c 0,12,13
 239 0 239 0 180 0 c 0,14,15
 150 0 150 0 121.5 -0.5 c 128,-1,16
 93 -1 93 -1 61 -3 c 0,17,18
 51 -3 51 -3 47 4 c 128,-1,19
 43 11 43 11 43 19 c 0,20,21
 44 36 44 36 50.5 38 c 128,-1,22
 57 40 57 40 68 40 c 0,23,24
 92 40 92 40 105 46.5 c 128,-1,25
 118 53 118 53 124 64 c 128,-1,26
 130 75 130 75 131.5 89 c 128,-1,27
 133 103 133 103 133 117 c 2,28,-1
 133 514 l 2,29,30
 133 528 133 528 131.5 542 c 128,-1,31
 130 556 130 556 124 567 c 128,-1,32
 118 578 118 578 105 584.5 c 128,-1,33
 92 591 92 591 68 591 c 0,34,35
 57 591 57 591 50.5 593 c 128,-1,36
 44 595 44 595 43 612 c 0,37,38
 43 620 43 620 47 627 c 128,-1,39
 51 634 51 634 61 634 c 0,40,41
 93 632 93 632 121 631.5 c 128,-1,42
 149 631 149 631 179 631 c 0,43,44
 239 631 239 631 304 634 c 0,45,46
 314 634 314 634 318 627 c 128,-1,47
 322 620 322 620 322 612 c 0,48,49
 321 595 321 595 314.5 593 c 128,-1,50
 308 591 308 591 297 591 c 0,51,52
 273 591 273 591 260 584.5 c 128,-1,53
 247 578 247 578 241 567 c 128,-1,54
 235 556 235 556 233.5 542 c 128,-1,55
 232 528 232 528 232 514 c 2,56,-1
 232 337 l 1,57,-1
 546 337 l 1,58,-1
 546 514 l 2,59,60
 546 528 546 528 544.5 542 c 128,-1,61
 543 556 543 556 537 567 c 128,-1,62
 531 578 531 578 518 584.5 c 128,-1,63
 505 591 505 591 481 591 c 0,64,65
 470 591 470 591 463 593 c 128,-1,66
 456 595 456 595 455 612 c 0,67,68
 455 620 455 620 459.5 627 c 128,-1,69
 464 634 464 634 473 634 c 0,70,71
 537 631 537 631 598 631 c 0,72,73
 628 631 628 631 656.5 631.5 c 128,-1,74
 685 632 685 632 717 634 c 0,75,76
 726 634 726 634 730.5 627 c 128,-1,77
 735 620 735 620 735 612 c 0,78,79
 734 595 734 595 727 593 c 128,-1,80
 720 591 720 591 710 591 c 0,81,82
 686 591 686 591 673 584.5 c 128,-1,83
 660 578 660 578 653.5 567 c 128,-1,84
 647 556 647 556 645.5 542 c 128,-1,85
 644 528 644 528 644 514 c 2,86,-1
 644 117 l 2,87,88
 644 103 644 103 645.5 89 c 128,-1,89
 647 75 647 75 653.5 64 c 128,-1,90
 660 53 660 53 673 46.5 c 128,-1,91
 686 40 686 40 710 40 c 0,92,93
 720 40 720 40 727 38 c 128,-1,94
 734 36 734 36 735 19 c 0,95,96
 735 11 735 11 730.5 4 c 128,-1,97
 726 -3 726 -3 717 -3 c 0,98,99
 685 -1 685 -1 656 -0.5 c 128,-1,100
 627 0 627 0 597 0 c 0,101,102
 537 0 537 0 473 -3 c 0,103,104
 464 -3 464 -3 459.5 4 c 128,-1,105
 455 11 455 11 455 19 c 0,106,107
 456 36 456 36 463 38 c 128,-1,108
 470 40 470 40 481 40 c 0,109,110
 505 40 505 40 518 46.5 c 128,-1,111
 531 53 531 53 537 64 c 128,-1,112
 543 75 543 75 544.5 89 c 128,-1,113
 546 103 546 103 546 117 c 2,114,-1
 546 294 l 1,115,-1
 232 294 l 1,0,-1
EndSplineSet
EndChar

StartChar: I
Encoding: 73 73 44
Width: 364
Flags: W
LayerCount: 2
Back
Fore
SplineSet
231 117 m 2,0,1
 231 103 231 103 232.5 89 c 128,-1,2
 234 75 234 75 240 64 c 128,-1,3
 246 53 246 53 259 46.5 c 128,-1,4
 272 40 272 40 296 40 c 0,5,6
 307 40 307 40 313.5 38 c 128,-1,7
 320 36 320 36 322 19 c 0,8,9
 322 11 322 11 317.5 4 c 128,-1,10
 313 -3 313 -3 304 -3 c 0,11,12
 239 0 239 0 180 0 c 0,13,14
 150 0 150 0 121 -0.5 c 128,-1,15
 92 -1 92 -1 60 -3 c 0,16,17
 50 -3 50 -3 46 4 c 128,-1,18
 42 11 42 11 42 19 c 0,19,20
 43 36 43 36 50 38 c 128,-1,21
 57 40 57 40 67 40 c 0,22,23
 91 40 91 40 104 46.5 c 128,-1,24
 117 53 117 53 123 64 c 128,-1,25
 129 75 129 75 130.5 89 c 128,-1,26
 132 103 132 103 133 117 c 2,27,-1
 133 514 l 2,28,29
 132 528 132 528 130.5 542 c 128,-1,30
 129 556 129 556 123 567 c 128,-1,31
 117 578 117 578 104 584.5 c 128,-1,32
 91 591 91 591 67 591 c 0,33,34
 57 591 57 591 50 593 c 128,-1,35
 43 595 43 595 42 612 c 0,36,37
 42 620 42 620 46 627 c 128,-1,38
 50 634 50 634 60 634 c 0,39,40
 92 632 92 632 120.5 631.5 c 128,-1,41
 149 631 149 631 179 631 c 0,42,43
 239 631 239 631 304 634 c 0,44,45
 313 634 313 634 317.5 627 c 128,-1,46
 322 620 322 620 322 612 c 0,47,48
 320 595 320 595 313.5 593 c 128,-1,49
 307 591 307 591 296 591 c 0,50,51
 272 591 272 591 259 584.5 c 128,-1,52
 246 578 246 578 240 567 c 128,-1,53
 234 556 234 556 232.5 542 c 128,-1,54
 231 528 231 528 231 514 c 2,55,-1
 231 117 l 2,0,1
EndSplineSet
EndChar

StartChar: J
Encoding: 74 74 45
Width: 345
Flags: W
LayerCount: 2
Back
Fore
SplineSet
25 -192 m 0,0,1
 8 -195 8 -195 2 -175 c 0,2,3
 -3 -156 -3 -156 12 -150 c 0,4,5
 51 -134 51 -134 73 -107.5 c 128,-1,6
 95 -81 95 -81 106.5 -42.5 c 128,-1,7
 118 -4 118 -4 121 46.5 c 128,-1,8
 124 97 124 97 124 162 c 2,9,-1
 124 514 l 2,10,11
 124 528 124 528 122.5 542 c 128,-1,12
 121 556 121 556 115 567 c 128,-1,13
 109 578 109 578 96 584.5 c 128,-1,14
 83 591 83 591 59 591 c 0,15,16
 48 591 48 591 41 593 c 128,-1,17
 34 595 34 595 33 612 c 0,18,19
 33 620 33 620 37.5 627 c 128,-1,20
 42 634 42 634 51 634 c 0,21,22
 83 632 83 632 111.5 631.5 c 128,-1,23
 140 631 140 631 170 631 c 0,24,25
 230 631 230 631 295 634 c 0,26,27
 304 634 304 634 308.5 627 c 128,-1,28
 313 620 313 620 313 612 c 0,29,30
 312 595 312 595 305 593 c 128,-1,31
 298 591 298 591 287 591 c 0,32,33
 263 591 263 591 250 584.5 c 128,-1,34
 237 578 237 578 231 567 c 128,-1,35
 225 556 225 556 223.5 542 c 128,-1,36
 222 528 222 528 222 514 c 2,37,-1
 222 128 l 2,38,39
 222 68 222 68 212.5 16 c 128,-1,40
 203 -36 203 -36 180 -78 c 128,-1,41
 157 -120 157 -120 119 -149.5 c 128,-1,42
 81 -179 81 -179 25 -192 c 0,0,1
EndSplineSet
EndChar

StartChar: K
Encoding: 75 75 46
Width: 700
Flags: W
LayerCount: 2
Back
Fore
SplineSet
458 542 m 0,0,1
 478 564 478 564 476.5 576 c 128,-1,2
 475 588 475 588 449 590 c 0,3,4
 436 591 436 591 435 611 c 0,5,6
 435 620 435 620 440 627 c 128,-1,7
 445 634 445 634 453 634 c 0,8,9
 479 632 479 632 508 631.5 c 128,-1,10
 537 631 537 631 563 631 c 0,11,12
 583 631 583 631 608.5 632 c 128,-1,13
 634 633 634 633 654 634 c 0,14,15
 664 634 664 634 668.5 627 c 128,-1,16
 673 620 673 620 673 611 c 0,17,18
 671 596 671 596 666 593 c 128,-1,19
 661 590 661 590 653 590 c 0,20,21
 615 592 615 592 579.5 578 c 128,-1,22
 544 564 544 564 503 523 c 0,23,24
 486 505 486 505 458.5 476.5 c 128,-1,25
 431 448 431 448 405 421 c 0,26,27
 374 389 374 389 341 354 c 1,28,29
 400 282 400 282 460.5 222.5 c 128,-1,30
 521 163 521 163 564 117 c 0,31,32
 581 100 581 100 594 86.5 c 128,-1,33
 607 73 607 73 619.5 63.5 c 128,-1,34
 632 54 632 54 645 48 c 128,-1,35
 658 42 658 42 675 40 c 0,36,37
 683 39 683 39 691 37.5 c 128,-1,38
 699 36 699 36 700 19 c 0,39,40
 700 11 700 11 696 4 c 128,-1,41
 692 -3 692 -3 682 -3 c 0,42,43
 666 -2 666 -2 656.5 -1.5 c 128,-1,44
 647 -1 647 -1 638.5 -0.5 c 128,-1,45
 630 0 630 0 621 0 c 128,-1,46
 612 0 612 0 597 0 c 2,47,-1
 533 0 l 1,48,49
 478 61 478 61 420.5 125.5 c 128,-1,50
 363 190 363 190 297 267 c 0,51,52
 279 288 279 288 263.5 296.5 c 128,-1,53
 248 305 248 305 232 307 c 1,54,-1
 232 117 l 2,55,56
 232 103 232 103 233.5 89 c 128,-1,57
 235 75 235 75 241 64 c 128,-1,58
 247 53 247 53 260 46.5 c 128,-1,59
 273 40 273 40 297 40 c 0,60,61
 308 40 308 40 314.5 38 c 128,-1,62
 321 36 321 36 322 19 c 0,63,64
 322 11 322 11 318 4 c 128,-1,65
 314 -3 314 -3 304 -3 c 0,66,67
 239 0 239 0 180 0 c 0,68,69
 150 0 150 0 121.5 -0.5 c 128,-1,70
 93 -1 93 -1 61 -3 c 0,71,72
 51 -3 51 -3 47 4 c 128,-1,73
 43 11 43 11 43 19 c 0,74,75
 44 36 44 36 50.5 38 c 128,-1,76
 57 40 57 40 68 40 c 0,77,78
 92 40 92 40 105 46.5 c 128,-1,79
 118 53 118 53 124 64 c 128,-1,80
 130 75 130 75 131.5 89 c 128,-1,81
 133 103 133 103 133 117 c 2,82,-1
 133 514 l 2,83,84
 133 528 133 528 131.5 542 c 128,-1,85
 130 556 130 556 124 567 c 128,-1,86
 118 578 118 578 105 584.5 c 128,-1,87
 92 591 92 591 68 591 c 0,88,89
 57 591 57 591 50.5 593 c 128,-1,90
 44 595 44 595 43 612 c 0,91,92
 43 621 43 621 47 627.5 c 128,-1,93
 51 634 51 634 61 634 c 0,94,95
 93 632 93 632 121 631.5 c 128,-1,96
 149 631 149 631 179 631 c 0,97,98
 239 631 239 631 304 634 c 0,99,100
 314 634 314 634 318 628 c 128,-1,101
 322 622 322 622 322 612 c 0,102,103
 321 597 321 597 315.5 594 c 128,-1,104
 310 591 310 591 297 591 c 0,105,106
 273 591 273 591 260 584.5 c 128,-1,107
 247 578 247 578 241 567 c 128,-1,108
 235 556 235 556 233.5 542 c 128,-1,109
 232 528 232 528 232 514 c 2,110,-1
 232 333 l 1,111,112
 249 337 249 337 271.5 353 c 128,-1,113
 294 369 294 369 317 389 c 0,114,115
 355 424 355 424 391 464.5 c 128,-1,116
 427 505 427 505 458 542 c 0,0,1
EndSplineSet
EndChar

StartChar: L
Encoding: 76 76 47
Width: 571
Flags: W
LayerCount: 2
Back
Fore
SplineSet
232 102 m 2,0,1
 233 92 233 92 234 81 c 128,-1,2
 235 70 235 70 241.5 60.5 c 128,-1,3
 248 51 248 51 262 45 c 128,-1,4
 276 39 276 39 302 40 c 2,5,-1
 392 40 l 2,6,7
 418 41 418 41 434.5 46.5 c 128,-1,8
 451 52 451 52 462 65.5 c 128,-1,9
 473 79 473 79 481 101 c 128,-1,10
 489 123 489 123 499 156 c 0,11,12
 503 166 503 166 512.5 169 c 128,-1,13
 522 172 522 172 533 170 c 0,14,15
 541 168 541 168 549.5 162.5 c 128,-1,16
 558 157 558 157 557 147 c 2,17,-1
 537 21 l 2,18,19
 534 7 534 7 527.5 3.5 c 128,-1,20
 521 0 521 0 508 0 c 2,21,-1
 180 0 l 2,22,23
 150 0 150 0 121.5 -0.5 c 128,-1,24
 93 -1 93 -1 60 -3 c 0,25,26
 51 -3 51 -3 47 4 c 128,-1,27
 43 11 43 11 43 19 c 0,28,29
 44 34 44 34 50.5 37 c 128,-1,30
 57 40 57 40 68 40 c 0,31,32
 92 40 92 40 105 46.5 c 128,-1,33
 118 53 118 53 124 64 c 128,-1,34
 130 75 130 75 131.5 89 c 128,-1,35
 133 103 133 103 133 117 c 2,36,-1
 133 514 l 2,37,38
 133 528 133 528 131.5 542 c 128,-1,39
 130 556 130 556 124 567 c 128,-1,40
 118 578 118 578 105 584.5 c 128,-1,41
 92 591 92 591 68 591 c 0,42,43
 57 591 57 591 50.5 593.5 c 128,-1,44
 44 596 44 596 43 612 c 0,45,46
 43 622 43 622 47 628 c 128,-1,47
 51 634 51 634 60 634 c 0,48,49
 93 632 93 632 121 631.5 c 128,-1,50
 149 631 149 631 179 631 c 0,51,52
 239 631 239 631 304 634 c 0,53,54
 314 634 314 634 318 627 c 128,-1,55
 322 620 322 620 322 612 c 0,56,57
 321 595 321 595 314 593 c 128,-1,58
 307 591 307 591 297 591 c 0,59,60
 273 591 273 591 260 584.5 c 128,-1,61
 247 578 247 578 241 567 c 128,-1,62
 235 556 235 556 233.5 542 c 128,-1,63
 232 528 232 528 232 514 c 2,64,-1
 232 102 l 2,0,1
EndSplineSet
EndChar

StartChar: M
Encoding: 77 77 48
Width: 889
Flags: W
LayerCount: 2
Back
Fore
SplineSet
448 5 m 2,0,1
 446 0 446 0 440 -2.5 c 128,-1,2
 434 -5 434 -5 428 -5 c 256,3,4
 422 -5 422 -5 416 -2.5 c 128,-1,5
 410 0 410 0 407 5 c 2,6,-1
 182 514 l 1,7,-1
 179 514 l 1,8,-1
 181 117 l 2,9,10
 181 103 181 103 182 89 c 128,-1,11
 183 75 183 75 189 64 c 128,-1,12
 195 53 195 53 207.5 46.5 c 128,-1,13
 220 40 220 40 244 40 c 0,14,15
 255 40 255 40 261.5 38 c 128,-1,16
 268 36 268 36 270 19 c 0,17,18
 270 11 270 11 265.5 4 c 128,-1,19
 261 -3 261 -3 252 -3 c 0,20,21
 236 -2 236 -2 225.5 -1.5 c 128,-1,22
 215 -1 215 -1 205.5 -0.5 c 128,-1,23
 196 0 196 0 186 0 c 128,-1,24
 176 0 176 0 161 0 c 256,25,26
 146 0 146 0 134.5 0 c 128,-1,27
 123 0 123 0 112.5 -0.5 c 128,-1,28
 102 -1 102 -1 90 -1.5 c 128,-1,29
 78 -2 78 -2 62 -3 c 0,30,31
 52 -3 52 -3 48 4 c 128,-1,32
 44 11 44 11 44 19 c 0,33,34
 45 36 45 36 51.5 38 c 128,-1,35
 58 40 58 40 69 40 c 0,36,37
 93 40 93 40 105.5 46.5 c 128,-1,38
 118 53 118 53 124 64 c 128,-1,39
 130 75 130 75 131 89 c 128,-1,40
 132 103 132 103 132 117 c 2,41,-1
 134 514 l 2,42,43
 134 538 134 538 130 552 c 128,-1,44
 126 566 126 566 117.5 574 c 128,-1,45
 109 582 109 582 96.5 586.5 c 128,-1,46
 84 591 84 591 67 594 c 0,47,48
 53 597 53 597 47.5 599 c 128,-1,49
 42 601 42 601 42 617 c 0,50,51
 42 634 42 634 53.5 635.5 c 128,-1,52
 65 637 65 637 82 637 c 0,53,54
 119 637 119 637 149 632.5 c 128,-1,55
 179 628 179 628 203.5 617 c 128,-1,56
 228 606 228 606 247 585 c 128,-1,57
 266 564 266 564 280 531 c 2,58,-1
 452 145 l 1,59,-1
 455 145 l 1,60,-1
 652 631 l 1,61,-1
 709 631 l 2,62,63
 739 631 739 631 767.5 631.5 c 128,-1,64
 796 632 796 632 828 634 c 0,65,66
 838 634 838 634 842 627 c 128,-1,67
 846 620 846 620 846 612 c 0,68,69
 845 595 845 595 838 593 c 128,-1,70
 831 591 831 591 821 591 c 0,71,72
 797 591 797 591 784 584.5 c 128,-1,73
 771 578 771 578 765 567 c 128,-1,74
 759 556 759 556 757.5 542 c 128,-1,75
 756 528 756 528 756 514 c 2,76,-1
 756 117 l 2,77,78
 756 103 756 103 757.5 89 c 128,-1,79
 759 75 759 75 765 64 c 128,-1,80
 771 53 771 53 784 46.5 c 128,-1,81
 797 40 797 40 821 40 c 0,82,83
 831 40 831 40 838 38 c 128,-1,84
 845 36 845 36 846 19 c 0,85,86
 846 11 846 11 842 4 c 128,-1,87
 838 -3 838 -3 828 -3 c 0,88,89
 796 -1 796 -1 767 -0.5 c 128,-1,90
 738 0 738 0 708 0 c 0,91,92
 649 0 649 0 585 -3 c 0,93,94
 575 -3 575 -3 571 4 c 128,-1,95
 567 11 567 11 567 19 c 0,96,97
 568 36 568 36 574.5 38 c 128,-1,98
 581 40 581 40 592 40 c 0,99,100
 616 40 616 40 629 46.5 c 128,-1,101
 642 53 642 53 648 64 c 128,-1,102
 654 75 654 75 655.5 89 c 128,-1,103
 657 103 657 103 657 117 c 2,104,-1
 657 514 l 1,105,-1
 654 514 l 1,106,-1
 448 5 l 2,0,1
EndSplineSet
EndChar

StartChar: N
Encoding: 78 78 49
Width: 737
Flags: W
LayerCount: 2
Back
Fore
SplineSet
182 514 m 1,0,-1
 179 514 l 1,1,-1
 181 117 l 2,2,3
 181 103 181 103 182 89 c 128,-1,4
 183 75 183 75 189 64 c 128,-1,5
 195 53 195 53 207.5 46.5 c 128,-1,6
 220 40 220 40 244 40 c 0,7,8
 255 40 255 40 262 38 c 128,-1,9
 269 36 269 36 270 19 c 0,10,11
 270 11 270 11 265.5 4 c 128,-1,12
 261 -3 261 -3 252 -3 c 0,13,14
 236 -2 236 -2 224.5 -1.5 c 128,-1,15
 213 -1 213 -1 202.5 -0.5 c 128,-1,16
 192 0 192 0 181 0 c 128,-1,17
 170 0 170 0 155 0 c 256,18,19
 140 0 140 0 129.5 0 c 128,-1,20
 119 0 119 0 109.5 -0.5 c 128,-1,21
 100 -1 100 -1 89 -1.5 c 128,-1,22
 78 -2 78 -2 62 -3 c 0,23,24
 52 -3 52 -3 48 4 c 128,-1,25
 44 11 44 11 44 19 c 0,26,27
 45 36 45 36 51.5 38 c 128,-1,28
 58 40 58 40 69 40 c 0,29,30
 93 40 93 40 105.5 46.5 c 128,-1,31
 118 53 118 53 124 64 c 128,-1,32
 130 75 130 75 131 89 c 128,-1,33
 132 103 132 103 132 117 c 2,34,-1
 134 514 l 2,35,36
 134 537 134 537 130 551.5 c 128,-1,37
 126 566 126 566 118 574 c 128,-1,38
 110 582 110 582 97.5 586.5 c 128,-1,39
 85 591 85 591 67 594 c 0,40,41
 52 597 52 597 47 599.5 c 128,-1,42
 42 602 42 602 42 617 c 0,43,44
 42 634 42 634 53.5 635.5 c 128,-1,45
 65 637 65 637 82 637 c 0,46,47
 124 637 124 637 153 632 c 128,-1,48
 182 627 182 627 205 615 c 128,-1,49
 228 603 228 603 248 582.5 c 128,-1,50
 268 562 268 562 291 531 c 2,51,-1
 565 171 l 1,52,-1
 568 171 l 1,53,-1
 566 514 l 2,54,55
 566 528 566 528 565 542 c 128,-1,56
 564 556 564 556 558 567 c 128,-1,57
 552 578 552 578 539.5 584.5 c 128,-1,58
 527 591 527 591 503 591 c 0,59,60
 492 591 492 591 485.5 593 c 128,-1,61
 479 595 479 595 477 612 c 0,62,63
 477 620 477 620 481.5 627 c 128,-1,64
 486 634 486 634 495 634 c 0,65,66
 511 633 511 633 522.5 632.5 c 128,-1,67
 534 632 534 632 544 631.5 c 128,-1,68
 554 631 554 631 565 631 c 128,-1,69
 576 631 576 631 591 631 c 256,70,71
 606 631 606 631 616.5 631 c 128,-1,72
 627 631 627 631 637 631.5 c 128,-1,73
 647 632 647 632 658 632.5 c 128,-1,74
 669 633 669 633 685 634 c 0,75,76
 695 634 695 634 699 627 c 128,-1,77
 703 620 703 620 703 612 c 0,78,79
 702 595 702 595 695.5 593 c 128,-1,80
 689 591 689 591 678 591 c 0,81,82
 654 591 654 591 641.5 584.5 c 128,-1,83
 629 578 629 578 623 567 c 128,-1,84
 617 556 617 556 616 542 c 128,-1,85
 615 528 615 528 615 514 c 2,86,-1
 613 10 l 2,87,88
 612 2 612 2 603.5 -0.5 c 128,-1,89
 595 -3 595 -3 588 -3 c 0,90,91
 569 -3 569 -3 559 10 c 2,92,-1
 182 514 l 1,0,-1
EndSplineSet
EndChar

StartChar: O
Encoding: 79 79 50
Width: 735
Flags: W
LayerCount: 2
Back
Fore
SplineSet
366 651 m 0,0,1
 441 651 441 651 500.5 624 c 128,-1,2
 560 597 560 597 601.5 551.5 c 128,-1,3
 643 506 643 506 665.5 447 c 128,-1,4
 688 388 688 388 688 325 c 0,5,6
 688 242 688 242 658.5 178 c 128,-1,7
 629 114 629 114 582.5 70 c 128,-1,8
 536 26 536 26 478.5 3 c 128,-1,9
 421 -20 421 -20 366 -20 c 0,10,11
 292 -20 292 -20 233 7 c 128,-1,12
 174 34 174 34 133 79.5 c 128,-1,13
 92 125 92 125 69.5 184 c 128,-1,14
 47 243 47 243 47 307 c 0,15,16
 47 390 47 390 76 454 c 128,-1,17
 105 518 105 518 151 562 c 128,-1,18
 197 606 197 606 254 628.5 c 128,-1,19
 311 651 311 651 366 651 c 0,0,1
365 24 m 0,20,21
 418 24 418 24 456.5 48.5 c 128,-1,22
 495 73 495 73 520 114.5 c 128,-1,23
 545 156 545 156 557 210.5 c 128,-1,24
 569 265 569 265 569 325 c 0,25,26
 569 381 569 381 556.5 432.5 c 128,-1,27
 544 484 544 484 518.5 523 c 128,-1,28
 493 562 493 562 454.5 585 c 128,-1,29
 416 608 416 608 365 608 c 0,30,31
 312 608 312 608 274 584 c 128,-1,32
 236 560 236 560 211.5 519 c 128,-1,33
 187 478 187 478 175.5 424 c 128,-1,34
 164 370 164 370 164 310 c 0,35,36
 164 253 164 253 176 201.5 c 128,-1,37
 188 150 188 150 213 110.5 c 128,-1,38
 238 71 238 71 276 47.5 c 128,-1,39
 314 24 314 24 365 24 c 0,20,21
EndSplineSet
EndChar

StartChar: P
Encoding: 80 80 51
Width: 604
Flags: W
LayerCount: 2
Back
Fore
SplineSet
330 631 m 2,0,1
 346 631 346 631 370.5 629.5 c 128,-1,2
 395 628 395 628 422.5 622 c 128,-1,3
 450 616 450 616 478 604 c 128,-1,4
 506 592 506 592 529 572 c 128,-1,5
 552 552 552 552 566 522.5 c 128,-1,6
 580 493 580 493 580 451 c 0,7,8
 580 404 580 404 558.5 366 c 128,-1,9
 537 328 537 328 501.5 301 c 128,-1,10
 466 274 466 274 421.5 259.5 c 128,-1,11
 377 245 377 245 331 245 c 0,12,13
 308 245 308 245 282.5 248 c 128,-1,14
 257 251 257 251 231 261 c 1,15,-1
 231 117 l 2,16,17
 231 103 231 103 232.5 89 c 128,-1,18
 234 75 234 75 240 64 c 128,-1,19
 246 53 246 53 259 46.5 c 128,-1,20
 272 40 272 40 296 40 c 0,21,22
 307 40 307 40 314 38 c 128,-1,23
 321 36 321 36 322 19 c 0,24,25
 322 11 322 11 317.5 4 c 128,-1,26
 313 -3 313 -3 304 -3 c 0,27,28
 239 0 239 0 179 0 c 0,29,30
 149 0 149 0 120.5 -0.5 c 128,-1,31
 92 -1 92 -1 60 -3 c 0,32,33
 51 -3 51 -3 46.5 4 c 128,-1,34
 42 11 42 11 42 19 c 0,35,36
 43 36 43 36 50 38 c 128,-1,37
 57 40 57 40 68 40 c 0,38,39
 92 40 92 40 105 46.5 c 128,-1,40
 118 53 118 53 124 64 c 128,-1,41
 130 75 130 75 131.5 89 c 128,-1,42
 133 103 133 103 133 117 c 2,43,-1
 133 514 l 2,44,45
 133 528 133 528 131.5 542 c 128,-1,46
 130 556 130 556 124 567 c 128,-1,47
 118 578 118 578 105 584.5 c 128,-1,48
 92 591 92 591 68 591 c 0,49,50
 57 591 57 591 50 593 c 128,-1,51
 43 595 43 595 42 612 c 0,52,53
 42 620 42 620 46.5 627 c 128,-1,54
 51 634 51 634 60 634 c 0,55,56
 92 632 92 632 121 631.5 c 128,-1,57
 150 631 150 631 180 631 c 2,58,-1
 330 631 l 2,0,1
231 301 m 1,59,60
 241 296 241 296 260 293 c 128,-1,61
 279 290 279 290 302 290 c 256,62,63
 325 290 325 290 354 297 c 128,-1,64
 383 304 383 304 408.5 322 c 128,-1,65
 434 340 434 340 451.5 370.5 c 128,-1,66
 469 401 469 401 469 448 c 0,67,68
 469 499 469 499 448.5 528 c 128,-1,69
 428 557 428 557 399.5 572 c 128,-1,70
 371 587 371 587 341.5 590.5 c 128,-1,71
 312 594 312 594 294 594 c 256,72,73
 276 594 276 594 263.5 591.5 c 128,-1,74
 251 589 251 589 244 581 c 128,-1,75
 237 573 237 573 234 557.5 c 128,-1,76
 231 542 231 542 231 517 c 2,77,-1
 231 301 l 1,59,60
EndSplineSet
EndChar

StartChar: Q
Encoding: 81 81 52
Width: 735
Flags: W
LayerCount: 2
Back
Fore
SplineSet
734 -150 m 0,0,1
 753 -148 753 -148 761 -138 c 128,-1,2
 769 -128 769 -128 769 -115 c 0,3,4
 769 -92 769 -92 751.5 -71 c 128,-1,5
 734 -50 734 -50 703 -49 c 1,6,7
 700 -35 700 -35 714 -19 c 128,-1,8
 728 -3 728 -3 760 -3 c 0,9,10
 768 -3 768 -3 780 -7.5 c 128,-1,11
 792 -12 792 -12 803.5 -21.5 c 128,-1,12
 815 -31 815 -31 823 -46.5 c 128,-1,13
 831 -62 831 -62 831 -83 c 0,14,15
 831 -106 831 -106 818.5 -127 c 128,-1,16
 806 -148 806 -148 786.5 -164 c 128,-1,17
 767 -180 767 -180 743 -189.5 c 128,-1,18
 719 -199 719 -199 695 -200 c 0,19,20
 644 -200 644 -200 607.5 -183.5 c 128,-1,21
 571 -167 571 -167 539.5 -143 c 128,-1,22
 508 -119 508 -119 475.5 -91.5 c 128,-1,23
 443 -64 443 -64 400 -42 c 0,24,25
 382 -33 382 -33 364.5 -27 c 128,-1,26
 347 -21 347 -21 324 -16 c 0,27,28
 280 -6 280 -6 239.5 8.5 c 128,-1,29
 199 23 199 23 171 45 c 0,30,31
 111 91 111 91 79 160 c 128,-1,32
 47 229 47 229 47 307 c 0,33,34
 47 390 47 390 76 454 c 128,-1,35
 105 518 105 518 151 562 c 128,-1,36
 197 606 197 606 254 628.5 c 128,-1,37
 311 651 311 651 366 651 c 0,38,39
 441 651 441 651 501 624 c 128,-1,40
 561 597 561 597 602.5 551.5 c 128,-1,41
 644 506 644 506 666.5 447 c 128,-1,42
 689 388 689 388 689 325 c 0,43,44
 689 268 689 268 673.5 218 c 128,-1,45
 658 168 658 168 631 127.5 c 128,-1,46
 604 87 604 87 566 57 c 128,-1,47
 528 27 528 27 483 9 c 0,48,49
 478 7 478 7 468.5 4.5 c 128,-1,50
 459 2 459 2 442 1 c 1,51,-1
 442 -1 l 1,52,53
 469 -4 469 -4 491 -15 c 0,54,55
 528 -33 528 -33 560.5 -56.5 c 128,-1,56
 593 -80 593 -80 622.5 -101 c 128,-1,57
 652 -122 652 -122 679.5 -136 c 128,-1,58
 707 -150 707 -150 734 -150 c 0,0,1
365 21 m 0,59,60
 418 21 418 21 457 46 c 128,-1,61
 496 71 496 71 521 113 c 128,-1,62
 546 155 546 155 558 210 c 128,-1,63
 570 265 570 265 570 325 c 0,64,65
 570 381 570 381 557.5 432.5 c 128,-1,66
 545 484 545 484 519.5 523 c 128,-1,67
 494 562 494 562 455.5 585 c 128,-1,68
 417 608 417 608 365 608 c 0,69,70
 312 608 312 608 274 584 c 128,-1,71
 236 560 236 560 212 519 c 128,-1,72
 188 478 188 478 176.5 424 c 128,-1,73
 165 370 165 370 165 310 c 0,74,75
 165 253 165 253 177 201 c 128,-1,76
 189 149 189 149 214 109 c 128,-1,77
 239 69 239 69 276.5 45 c 128,-1,78
 314 21 314 21 365 21 c 0,59,60
EndSplineSet
EndChar

StartChar: R
Encoding: 82 82 53
Width: 671
Flags: W
LayerCount: 2
Back
Fore
SplineSet
302 594 m 0,0,1
 281 594 281 594 267 590.5 c 128,-1,2
 253 587 253 587 245.5 577.5 c 128,-1,3
 238 568 238 568 235 552 c 128,-1,4
 232 536 232 536 232 511 c 2,5,-1
 232 319 l 1,6,-1
 320 319 l 2,7,8
 371 319 371 319 400.5 333.5 c 128,-1,9
 430 348 430 348 445 369 c 128,-1,10
 460 390 460 390 464.5 414.5 c 128,-1,11
 469 439 469 439 469 459 c 0,12,13
 469 483 469 483 461 507.5 c 128,-1,14
 453 532 453 532 434 551 c 128,-1,15
 415 570 415 570 383 582 c 128,-1,16
 351 594 351 594 302 594 c 0,0,1
418 301 m 1,17,18
 456 241 456 241 495 180.5 c 128,-1,19
 534 120 534 120 585 67 c 0,20,21
 599 56 599 56 612.5 49 c 128,-1,22
 626 42 626 42 645 40 c 0,23,24
 653 39 653 39 661 37.5 c 128,-1,25
 669 36 669 36 670 19 c 0,26,27
 670 11 670 11 666 4 c 128,-1,28
 662 -3 662 -3 652 -3 c 0,29,30
 636 -2 636 -2 625.5 -1.5 c 128,-1,31
 615 -1 615 -1 606 -0.5 c 128,-1,32
 597 0 597 0 587 0 c 128,-1,33
 577 0 577 0 562 0 c 0,34,35
 520 8 520 8 492 28.5 c 128,-1,36
 464 49 464 49 437 87 c 0,37,38
 409 125 409 125 385 163.5 c 128,-1,39
 361 202 361 202 338 240 c 0,40,41
 331 250 331 250 325 258 c 128,-1,42
 319 266 319 266 311 270.5 c 128,-1,43
 303 275 303 275 291 277.5 c 128,-1,44
 279 280 279 280 261 280 c 2,45,-1
 232 280 l 1,46,-1
 232 117 l 2,47,48
 232 103 232 103 233.5 89 c 128,-1,49
 235 75 235 75 241 64 c 128,-1,50
 247 53 247 53 260 46.5 c 128,-1,51
 273 40 273 40 297 40 c 0,52,53
 307 40 307 40 314 38 c 128,-1,54
 321 36 321 36 322 19 c 0,55,56
 322 11 322 11 318 4 c 128,-1,57
 314 -3 314 -3 304 -3 c 0,58,59
 239 0 239 0 179 0 c 0,60,61
 149 0 149 0 121 -0.5 c 128,-1,62
 93 -1 93 -1 61 -3 c 0,63,64
 51 -3 51 -3 47 4 c 128,-1,65
 43 11 43 11 43 19 c 0,66,67
 44 36 44 36 50.5 38 c 128,-1,68
 57 40 57 40 68 40 c 0,69,70
 92 40 92 40 105 46.5 c 128,-1,71
 118 53 118 53 124 64 c 128,-1,72
 130 75 130 75 131.5 89 c 128,-1,73
 133 103 133 103 133 117 c 2,74,-1
 133 513 l 2,75,76
 133 527 133 527 131.5 541 c 128,-1,77
 130 555 130 555 124 566 c 128,-1,78
 118 577 118 577 105 584 c 128,-1,79
 92 591 92 591 68 591 c 0,80,81
 57 591 57 591 50.5 593 c 128,-1,82
 44 595 44 595 43 612 c 0,83,84
 43 620 43 620 47 627 c 128,-1,85
 51 634 51 634 61 634 c 0,86,87
 93 632 93 632 121.5 631.5 c 128,-1,88
 150 631 150 631 180 631 c 2,89,-1
 352 631 l 2,90,91
 413 630 413 630 456 615.5 c 128,-1,92
 499 601 499 601 526.5 578.5 c 128,-1,93
 554 556 554 556 567 527 c 128,-1,94
 580 498 580 498 580 468 c 0,95,96
 580 441 580 441 569 415.5 c 128,-1,97
 558 390 558 390 537 368 c 128,-1,98
 516 346 516 346 486 328.5 c 128,-1,99
 456 311 456 311 418 301 c 1,17,18
EndSplineSet
EndChar

StartChar: S
Encoding: 83 83 54
Width: 545
Flags: W
LayerCount: 2
Back
Fore
SplineSet
265 20 m 0,0,1
 297 20 297 20 322.5 30 c 128,-1,2
 348 40 348 40 365.5 56 c 128,-1,3
 383 72 383 72 392 92.5 c 128,-1,4
 401 113 401 113 401 134 c 0,5,6
 401 175 401 175 376 202 c 128,-1,7
 351 229 351 229 314 249 c 128,-1,8
 277 269 277 269 233.5 287 c 128,-1,9
 190 305 190 305 152 328.5 c 128,-1,10
 114 352 114 352 88.5 386 c 128,-1,11
 63 420 63 420 62 472 c 0,12,13
 61 519 61 519 77 553 c 128,-1,14
 93 587 93 587 122.5 608.5 c 128,-1,15
 152 630 152 630 192 640.5 c 128,-1,16
 232 651 232 651 278 651 c 0,17,18
 311 651 311 651 345 644 c 128,-1,19
 379 637 379 637 406 622 c 128,-1,20
 433 607 433 607 450 583 c 128,-1,21
 467 559 467 559 467 525 c 0,22,23
 467 489 467 489 442.5 465.5 c 128,-1,24
 418 442 418 442 379 442 c 0,25,26
 353 444 353 444 342.5 455.5 c 128,-1,27
 332 467 332 467 332 473 c 0,28,29
 332 475 332 475 339.5 477.5 c 128,-1,30
 347 480 347 480 356 486 c 128,-1,31
 365 492 365 492 372.5 502.5 c 128,-1,32
 380 513 380 513 380 531 c 0,33,34
 380 569 380 569 351 589.5 c 128,-1,35
 322 610 322 610 279 610 c 0,36,37
 246 610 246 610 222.5 601.5 c 128,-1,38
 199 593 199 593 184 579.5 c 128,-1,39
 169 566 169 566 162 548 c 128,-1,40
 155 530 155 530 155 511 c 0,41,42
 155 474 155 474 175 451 c 128,-1,43
 195 428 195 428 235 406 c 0,44,45
 280 382 280 382 326.5 362 c 128,-1,46
 373 342 373 342 411.5 316 c 128,-1,47
 450 290 450 290 474.5 253 c 128,-1,48
 499 216 499 216 499 157 c 0,49,50
 499 119 499 119 480.5 86.5 c 128,-1,51
 462 54 462 54 430.5 30.5 c 128,-1,52
 399 7 399 7 356 -6.5 c 128,-1,53
 313 -20 313 -20 265 -20 c 0,54,55
 160 -20 160 -20 104.5 16 c 128,-1,56
 49 52 49 52 49 124 c 0,57,58
 49 160 49 160 73.5 183.5 c 128,-1,59
 98 207 98 207 137 207 c 0,60,61
 163 205 163 205 173.5 193.5 c 128,-1,62
 184 182 184 182 184 176 c 0,63,64
 184 174 184 174 178.5 171.5 c 128,-1,65
 173 169 173 169 166 163 c 128,-1,66
 159 157 159 157 153.5 146.5 c 128,-1,67
 148 136 148 136 148 118 c 0,68,69
 148 73 148 73 175.5 46.5 c 128,-1,70
 203 20 203 20 265 20 c 0,0,1
EndSplineSet
EndChar

StartChar: T
Encoding: 84 84 55
Width: 600
Flags: W
LayerCount: 2
Back
Fore
SplineSet
545 631 m 2,0,1
 556 631 556 631 563.5 626 c 128,-1,2
 571 621 571 621 571 607 c 2,3,-1
 575 466 l 2,4,5
 575 456 575 456 566.5 451 c 128,-1,6
 558 446 558 446 550 446 c 0,7,8
 539 446 539 446 528.5 450.5 c 128,-1,9
 518 455 518 455 516 464 c 0,10,11
 511 498 511 498 504.5 522 c 128,-1,12
 498 546 498 546 487.5 562 c 128,-1,13
 477 578 477 578 460.5 585.5 c 128,-1,14
 444 593 444 593 418 594 c 2,15,-1
 350 594 l 1,16,-1
 350 117 l 2,17,18
 350 103 350 103 351.5 89 c 128,-1,19
 353 75 353 75 359 64 c 128,-1,20
 365 53 365 53 378 46.5 c 128,-1,21
 391 40 391 40 415 40 c 0,22,23
 425 40 425 40 432 38 c 128,-1,24
 439 36 439 36 440 19 c 0,25,26
 440 11 440 11 436 4 c 128,-1,27
 432 -3 432 -3 422 -3 c 0,28,29
 390 -1 390 -1 361.5 -0.5 c 128,-1,30
 333 0 333 0 304 0 c 0,31,32
 243 0 243 0 179 -3 c 0,33,34
 169 -3 169 -3 165 4 c 128,-1,35
 161 11 161 11 161 19 c 0,36,37
 162 36 162 36 168.5 38 c 128,-1,38
 175 40 175 40 186 40 c 0,39,40
 210 40 210 40 223 46.5 c 128,-1,41
 236 53 236 53 242 64 c 128,-1,42
 248 75 248 75 249.5 89 c 128,-1,43
 251 103 251 103 251 117 c 2,44,-1
 251 594 l 1,45,-1
 182 594 l 2,46,47
 156 593 156 593 139.5 585.5 c 128,-1,48
 123 578 123 578 112.5 562 c 128,-1,49
 102 546 102 546 96 522 c 128,-1,50
 90 498 90 498 85 464 c 0,51,52
 83 455 83 455 72 450.5 c 128,-1,53
 61 446 61 446 50 446 c 0,54,55
 42 446 42 446 34 451 c 128,-1,56
 26 456 26 456 26 466 c 2,57,-1
 29 607 l 2,58,59
 29 621 29 621 37 626 c 128,-1,60
 45 631 45 631 56 631 c 2,61,-1
 545 631 l 2,0,1
EndSplineSet
EndChar

StartChar: U
Encoding: 85 85 56
Width: 720
Flags: W
LayerCount: 2
Back
Fore
SplineSet
600 178 m 2,0,1
 600 125 600 125 577 87.5 c 128,-1,2
 554 50 554 50 518.5 26 c 128,-1,3
 483 2 483 2 440.5 -9 c 128,-1,4
 398 -20 398 -20 359 -20 c 0,5,6
 299 -20 299 -20 253.5 -3.5 c 128,-1,7
 208 13 208 13 178 40 c 128,-1,8
 148 67 148 67 132.5 101.5 c 128,-1,9
 117 136 117 136 117 173 c 2,10,-1
 117 514 l 2,11,12
 117 528 117 528 115.5 542 c 128,-1,13
 114 556 114 556 108 567 c 128,-1,14
 102 578 102 578 89 584.5 c 128,-1,15
 76 591 76 591 52 591 c 0,16,17
 41 591 41 591 34.5 593 c 128,-1,18
 28 595 28 595 27 612 c 0,19,20
 27 620 27 620 31 627 c 128,-1,21
 35 634 35 634 45 634 c 0,22,23
 77 632 77 632 105 631.5 c 128,-1,24
 133 631 133 631 163 631 c 0,25,26
 223 631 223 631 288 634 c 0,27,28
 298 634 298 634 302 627 c 128,-1,29
 306 620 306 620 306 612 c 0,30,31
 305 597 305 597 300 594 c 128,-1,32
 295 591 295 591 286 591 c 0,33,34
 260 591 260 591 246.5 584.5 c 128,-1,35
 233 578 233 578 226 567.5 c 128,-1,36
 219 557 219 557 217.5 543 c 128,-1,37
 216 529 216 529 216 514 c 2,38,-1
 216 202 l 2,39,40
 216 176 216 176 221 147.5 c 128,-1,41
 226 119 226 119 242.5 95 c 128,-1,42
 259 71 259 71 290.5 55 c 128,-1,43
 322 39 322 39 375 39 c 0,44,45
 426 39 426 39 458.5 52 c 128,-1,46
 491 65 491 65 510 86.5 c 128,-1,47
 529 108 529 108 536.5 134.5 c 128,-1,48
 544 161 544 161 544 188 c 2,49,-1
 544 451 l 2,50,51
 544 500 544 500 541.5 528 c 128,-1,52
 539 556 539 556 531 570 c 128,-1,53
 523 584 523 584 507.5 587.5 c 128,-1,54
 492 591 492 591 467 591 c 0,55,56
 457 591 457 591 450 593 c 128,-1,57
 443 595 443 595 442 612 c 0,58,59
 442 620 442 620 446 627 c 128,-1,60
 450 634 450 634 460 634 c 0,61,62
 492 632 492 632 517 631.5 c 128,-1,63
 542 631 542 631 572 631 c 256,64,65
 602 631 602 631 627 631.5 c 128,-1,66
 652 632 652 632 684 634 c 0,67,68
 694 634 694 634 698 627 c 128,-1,69
 702 620 702 620 702 612 c 0,70,71
 701 597 701 597 696 594 c 128,-1,72
 691 591 691 591 682 591 c 0,73,74
 655 591 655 591 638.5 588 c 128,-1,75
 622 585 622 585 613.5 572 c 128,-1,76
 605 559 605 559 602.5 532 c 128,-1,77
 600 505 600 505 600 457 c 2,78,-1
 600 178 l 2,0,1
EndSplineSet
EndChar

StartChar: V
Encoding: 86 86 57
Width: 648
Flags: W
LayerCount: 2
Back
Fore
SplineSet
498 542 m 2,0,1
 509 574 509 574 499 582.5 c 128,-1,2
 489 591 489 591 454 591 c 0,3,4
 443 591 443 591 436.5 593 c 128,-1,5
 430 595 430 595 429 612 c 0,6,7
 429 620 429 620 433 627 c 128,-1,8
 437 634 437 634 446 634 c 0,9,10
 478 632 478 632 501.5 631.5 c 128,-1,11
 525 631 525 631 555 631 c 0,12,13
 570 631 570 631 580.5 631 c 128,-1,14
 591 631 591 631 601 631.5 c 128,-1,15
 611 632 611 632 622 632.5 c 128,-1,16
 633 633 633 633 649 634 c 0,17,18
 659 634 659 634 663 627 c 128,-1,19
 667 620 667 620 667 612 c 0,20,21
 666 595 666 595 659.5 593 c 128,-1,22
 653 591 653 591 642 591 c 0,23,24
 604 591 604 591 582 577 c 128,-1,25
 560 563 560 563 544 523 c 2,26,27
 544 523 544 523 535.5 500.5 c 128,-1,28
 527 478 527 478 513.5 441 c 128,-1,29
 500 404 500 404 482.5 356 c 128,-1,30
 465 308 465 308 447 258 c 2,31,-1
 351 -10 l 1,32,-1
 304 -10 l 1,33,34
 250 137 250 137 209 251 c 0,35,36
 191 300 191 300 174 346.5 c 128,-1,37
 157 393 157 393 143.5 429.5 c 128,-1,38
 130 466 130 466 122 488 c 128,-1,39
 114 510 114 510 114 510 c 2,40,41
 106 530 106 530 98.5 544.5 c 128,-1,42
 91 559 91 559 82 568.5 c 128,-1,43
 73 578 73 578 61.5 584 c 128,-1,44
 50 590 50 590 34 593 c 0,45,46
 20 596 20 596 14.5 598 c 128,-1,47
 9 600 9 600 9 616 c 0,48,49
 9 633 9 633 20.5 634.5 c 128,-1,50
 32 636 32 636 49 636 c 0,51,52
 116 635 116 635 152.5 611.5 c 128,-1,53
 189 588 189 588 212 531 c 2,54,-1
 357 141 l 1,55,-1
 360 141 l 1,56,-1
 498 542 l 2,0,1
EndSplineSet
EndChar

StartChar: W
Encoding: 87 87 58
Width: 934
Flags: W
LayerCount: 2
Back
Fore
SplineSet
33 593 m 0,0,1
 19 596 19 596 13.5 598 c 128,-1,2
 8 600 8 600 8 616 c 0,3,4
 8 633 8 633 19.5 634.5 c 128,-1,5
 31 636 31 636 48 636 c 0,6,7
 115 635 115 635 151.5 611.5 c 128,-1,8
 188 588 188 588 211 531 c 1,9,-1
 325 165 l 1,10,-1
 329 165 l 1,11,-1
 451 631 l 1,12,-1
 503 631 l 1,13,-1
 666 165 l 1,14,-1
 669 165 l 1,15,-1
 782 542 l 2,16,17
 790 574 790 574 781.5 582.5 c 128,-1,18
 773 591 773 591 738 591 c 0,19,20
 727 591 727 591 720.5 593 c 128,-1,21
 714 595 714 595 713 612 c 0,22,23
 713 620 713 620 717 627 c 128,-1,24
 721 634 721 634 730 634 c 0,25,26
 762 632 762 632 785.5 631.5 c 128,-1,27
 809 631 809 631 839 631 c 0,28,29
 854 631 854 631 864.5 631 c 128,-1,30
 875 631 875 631 885 631.5 c 128,-1,31
 895 632 895 632 906 632.5 c 128,-1,32
 917 633 917 633 933 634 c 0,33,34
 943 634 943 634 947 627 c 128,-1,35
 951 620 951 620 951 612 c 0,36,37
 950 595 950 595 943.5 593 c 128,-1,38
 937 591 937 591 926 591 c 0,39,40
 888 591 888 591 863.5 576.5 c 128,-1,41
 839 562 839 562 828 523 c 2,42,-1
 664 -10 l 1,43,-1
 617 -10 l 1,44,-1
 455 467 l 1,45,-1
 326 -10 l 1,46,-1
 279 -10 l 1,47,-1
 113 510 l 2,48,49
 105 530 105 530 97.5 544.5 c 128,-1,50
 90 559 90 559 81 568.5 c 128,-1,51
 72 578 72 578 60.5 584 c 128,-1,52
 49 590 49 590 33 593 c 0,0,1
EndSplineSet
EndChar

StartChar: X
Encoding: 88 88 59
Width: 653
Flags: W
LayerCount: 2
Back
Fore
SplineSet
543 109 m 1,0,1
 560 84 560 84 580.5 62 c 128,-1,2
 601 40 601 40 634 40 c 0,3,4
 645 40 645 40 651.5 38 c 128,-1,5
 658 36 658 36 659 19 c 0,6,7
 659 11 659 11 655 4 c 128,-1,8
 651 -3 651 -3 642 -3 c 0,9,10
 610 -1 610 -1 581 -0.5 c 128,-1,11
 552 0 552 0 522 0 c 0,12,13
 464 0 464 0 400 -3 c 0,14,15
 390 -3 390 -3 386 4 c 128,-1,16
 382 11 382 11 382 19 c 0,17,18
 383 36 383 36 390 38 c 128,-1,19
 397 40 397 40 407 40 c 0,20,21
 437 40 437 40 445 55 c 128,-1,22
 453 70 453 70 439 89 c 2,23,-1
 311 272 l 1,24,-1
 183 89 l 2,25,26
 172 73 172 73 171 63.5 c 128,-1,27
 170 54 170 54 176.5 48.5 c 128,-1,28
 183 43 183 43 196.5 41.5 c 128,-1,29
 210 40 210 40 227 40 c 0,30,31
 238 40 238 40 244.5 38 c 128,-1,32
 251 36 251 36 252 19 c 0,33,34
 252 11 252 11 248 4 c 128,-1,35
 244 -3 244 -3 235 -3 c 0,36,37
 203 -1 203 -1 179.5 -0.5 c 128,-1,38
 156 0 156 0 126 0 c 0,39,40
 111 0 111 0 99.5 0 c 128,-1,41
 88 0 88 0 76.5 -0.5 c 128,-1,42
 65 -1 65 -1 53 -1.5 c 128,-1,43
 41 -2 41 -2 25 -3 c 0,44,45
 15 -3 15 -3 11 4 c 128,-1,46
 7 11 7 11 7 19 c 0,47,48
 8 36 8 36 14.5 38 c 128,-1,49
 21 40 21 40 32 40 c 0,50,51
 51 40 51 40 64.5 43.5 c 128,-1,52
 78 47 78 47 89.5 54.5 c 128,-1,53
 101 62 101 62 112 75 c 128,-1,54
 123 88 123 88 137 108 c 2,55,-1
 282 314 l 1,56,-1
 154 515 l 2,57,58
 129 553 129 553 106 569.5 c 128,-1,59
 83 586 83 586 51 593 c 0,60,61
 37 596 37 596 31.5 598 c 128,-1,62
 26 600 26 600 26 616 c 0,63,64
 26 633 26 633 37.5 634.5 c 128,-1,65
 49 636 49 636 66 636 c 0,66,67
 101 636 101 636 128.5 630.5 c 128,-1,68
 156 625 156 625 178.5 612.5 c 128,-1,69
 201 600 201 600 220 580 c 128,-1,70
 239 560 239 560 259 532 c 2,71,-1
 341 398 l 1,72,-1
 440 542 l 2,73,74
 451 558 451 558 452 568 c 128,-1,75
 453 578 453 578 446 583 c 128,-1,76
 439 588 439 588 426 589.5 c 128,-1,77
 413 591 413 591 396 591 c 0,78,79
 385 591 385 591 378.5 593 c 128,-1,80
 372 595 372 595 371 612 c 0,81,82
 371 620 371 620 375 627 c 128,-1,83
 379 634 379 634 388 634 c 0,84,85
 420 632 420 632 443.5 631.5 c 128,-1,86
 467 631 467 631 497 631 c 0,87,88
 512 631 512 631 523.5 631 c 128,-1,89
 535 631 535 631 546.5 631.5 c 128,-1,90
 558 632 558 632 570 632.5 c 128,-1,91
 582 633 582 633 598 634 c 0,92,93
 608 634 608 634 612 627 c 128,-1,94
 616 620 616 620 616 612 c 0,95,96
 615 595 615 595 608.5 593 c 128,-1,97
 602 591 602 591 591 591 c 0,98,99
 572 591 572 591 558 587.5 c 128,-1,100
 544 584 544 584 532.5 576.5 c 128,-1,101
 521 569 521 569 510 555.5 c 128,-1,102
 499 542 499 542 486 523 c 2,103,-1
 369 357 l 1,104,-1
 543 109 l 1,105,-1
 543 109 l 1,0,1
EndSplineSet
EndChar

StartChar: Y
Encoding: 89 89 60
Width: 621
Flags: W
LayerCount: 2
Back
Fore
SplineSet
236 532 m 0,0,1
 265 478 265 478 288.5 427.5 c 128,-1,2
 312 377 312 377 341 323 c 1,3,-1
 344 323 l 1,4,-1
 455 542 l 2,5,6
 464 559 464 559 464.5 568.5 c 128,-1,7
 465 578 465 578 459 583 c 128,-1,8
 453 588 453 588 440.5 589.5 c 128,-1,9
 428 591 428 591 411 591 c 0,10,11
 400 591 400 591 393.5 593 c 128,-1,12
 387 595 387 595 386 612 c 0,13,14
 386 620 386 620 390 627 c 128,-1,15
 394 634 394 634 403 634 c 0,16,17
 435 632 435 632 458.5 631.5 c 128,-1,18
 482 631 482 631 512 631 c 0,19,20
 527 631 527 631 538.5 631 c 128,-1,21
 550 631 550 631 561.5 631.5 c 128,-1,22
 573 632 573 632 585 632.5 c 128,-1,23
 597 633 597 633 613 634 c 0,24,25
 623 634 623 634 627 627 c 128,-1,26
 631 620 631 620 631 612 c 0,27,28
 630 595 630 595 623.5 593 c 128,-1,29
 617 591 617 591 606 591 c 0,30,31
 568 591 568 591 544 574.5 c 128,-1,32
 520 558 520 558 501 523 c 2,33,-1
 388 310 l 2,34,35
 381 295 381 295 376 285 c 128,-1,36
 371 275 371 275 367.5 265 c 128,-1,37
 364 255 364 255 362.5 243 c 128,-1,38
 361 231 361 231 361 214 c 2,39,-1
 361 117 l 2,40,41
 361 103 361 103 362.5 89 c 128,-1,42
 364 75 364 75 370 64 c 128,-1,43
 376 53 376 53 389 46.5 c 128,-1,44
 402 40 402 40 426 40 c 0,45,46
 437 40 437 40 443.5 38 c 128,-1,47
 450 36 450 36 451 19 c 0,48,49
 451 11 451 11 447 4 c 128,-1,50
 443 -3 443 -3 434 -3 c 0,51,52
 402 -1 402 -1 373 -0.5 c 128,-1,53
 344 0 344 0 314 0 c 0,54,55
 254 0 254 0 190 -3 c 0,56,57
 180 -3 180 -3 176 4 c 128,-1,58
 172 11 172 11 172 19 c 0,59,60
 173 36 173 36 180 38 c 128,-1,61
 187 40 187 40 197 40 c 0,62,63
 221 40 221 40 234 46.5 c 128,-1,64
 247 53 247 53 253 64 c 128,-1,65
 259 75 259 75 260.5 89 c 128,-1,66
 262 103 262 103 262 117 c 2,67,-1
 262 242 l 2,68,69
 262 248 262 248 254.5 267 c 128,-1,70
 247 286 247 286 235 312 c 128,-1,71
 223 338 223 338 208 368 c 128,-1,72
 193 398 193 398 178.5 426.5 c 128,-1,73
 164 455 164 455 151.5 478.5 c 128,-1,74
 139 502 139 502 132 515 c 0,75,76
 111 553 111 553 86 569.5 c 128,-1,77
 61 586 61 586 29 593 c 0,78,79
 15 596 15 596 9.5 598 c 128,-1,80
 4 600 4 600 4 616 c 0,81,82
 4 633 4 633 15.5 634.5 c 128,-1,83
 27 636 27 636 44 636 c 0,84,85
 79 636 79 636 107 631 c 128,-1,86
 135 626 135 626 158 614 c 128,-1,87
 181 602 181 602 200 582 c 128,-1,88
 219 562 219 562 236 532 c 0,0,1
EndSplineSet
EndChar

StartChar: Z
Encoding: 90 90 61
Width: 621
Flags: W
LayerCount: 2
Back
Fore
SplineSet
358 515 m 2,0,1
 371 543 371 543 375 558.5 c 128,-1,2
 379 574 379 574 373.5 581 c 128,-1,3
 368 588 368 588 354.5 589.5 c 128,-1,4
 341 591 341 591 319 591 c 2,5,-1
 210 591 l 2,6,7
 184 590 184 590 168 584.5 c 128,-1,8
 152 579 152 579 141 565.5 c 128,-1,9
 130 552 130 552 121.5 530 c 128,-1,10
 113 508 113 508 103 475 c 0,11,12
 100 465 100 465 90.5 462 c 128,-1,13
 81 459 81 459 70 461 c 0,14,15
 62 463 62 463 55 468.5 c 128,-1,16
 48 474 48 474 49 484 c 2,17,-1
 69 610 l 2,18,19
 72 624 72 624 78.5 627.5 c 128,-1,20
 85 631 85 631 98 631 c 2,21,-1
 441 631 l 2,22,23
 499 631 499 631 564 634 c 0,24,25
 574 634 574 634 578 627 c 128,-1,26
 582 620 582 620 582 612 c 0,27,28
 581 595 581 595 574.5 593.5 c 128,-1,29
 568 592 568 592 557 591 c 0,30,31
 539 590 539 590 525 582.5 c 128,-1,32
 511 575 511 575 500.5 564.5 c 128,-1,33
 490 554 490 554 482.5 541 c 128,-1,34
 475 528 475 528 468 515 c 2,35,-1
 249 100 l 2,36,37
 245 91 245 91 242 80.5 c 128,-1,38
 239 70 239 70 242 61 c 128,-1,39
 245 52 245 52 256.5 46 c 128,-1,40
 268 40 268 40 294 40 c 2,41,-1
 412 40 l 2,42,43
 438 41 438 41 454.5 46.5 c 128,-1,44
 471 52 471 52 482 65.5 c 128,-1,45
 493 79 493 79 501.5 101 c 128,-1,46
 510 123 510 123 520 156 c 0,47,48
 523 166 523 166 532.5 169 c 128,-1,49
 542 172 542 172 553 170 c 0,50,51
 561 168 561 168 568 162.5 c 128,-1,52
 575 157 575 157 574 147 c 2,53,-1
 554 21 l 2,54,55
 551 7 551 7 544.5 3.5 c 128,-1,56
 538 0 538 0 525 0 c 2,57,-1
 172 0 l 2,58,59
 142 0 142 0 113 -0.5 c 128,-1,60
 84 -1 84 -1 52 -3 c 0,61,62
 43 -3 43 -3 38.5 4 c 128,-1,63
 34 11 34 11 34 19 c 0,64,65
 36 36 36 36 42.5 38 c 128,-1,66
 49 40 49 40 60 40 c 0,67,68
 72 40 72 40 81 42 c 128,-1,69
 90 44 90 44 98.5 50 c 128,-1,70
 107 56 107 56 115 68 c 128,-1,71
 123 80 123 80 134 100 c 2,72,-1
 358 515 l 2,0,1
EndSplineSet
EndChar

StartChar: bracketleft
Encoding: 91 91 62
Width: 310
Flags: W
LayerCount: 2
Back
Fore
SplineSet
132 685 m 2,0,1
 122 685 122 685 122 673 c 2,2,-1
 122 -163 l 2,3,4
 122 -175 122 -175 132 -175 c 2,5,-1
 253 -175 l 2,6,7
 276 -175 276 -175 276 -196 c 0,8,9
 276 -218 276 -218 253 -218 c 2,10,-1
 109 -218 l 2,11,12
 91 -218 91 -218 79 -216 c 128,-1,13
 67 -214 67 -214 60 -206.5 c 128,-1,14
 53 -199 53 -199 50 -185.5 c 128,-1,15
 47 -172 47 -172 47 -151 c 2,16,-1
 47 661 l 2,17,18
 47 682 47 682 50 695.5 c 128,-1,19
 53 709 53 709 60 716.5 c 128,-1,20
 67 724 67 724 79 726 c 128,-1,21
 91 728 91 728 109 728 c 2,22,-1
 253 728 l 2,23,24
 276 728 276 728 276 706 c 0,25,26
 276 685 276 685 253 685 c 2,27,-1
 132 685 l 2,0,1
EndSplineSet
EndChar

StartChar: backslash
Encoding: 92 92 63
Width: 394
Flags: W
LayerCount: 2
Back
Fore
SplineSet
34 674 m 2,0,1
 32 684 32 684 39 693 c 128,-1,2
 46 702 46 702 57 704 c 0,3,4
 67 706 67 706 76.5 701 c 128,-1,5
 86 696 86 696 90 685 c 2,6,-1
 360 -166 l 2,7,8
 362 -177 362 -177 355.5 -185 c 128,-1,9
 349 -193 349 -193 338 -195 c 0,10,11
 329 -197 329 -197 319.5 -192.5 c 128,-1,12
 310 -188 310 -188 306 -177 c 2,13,-1
 34 674 l 2,0,1
EndSplineSet
EndChar

StartChar: bracketright
Encoding: 93 93 64
Width: 310
Flags: W
LayerCount: 2
Back
Fore
SplineSet
57 685 m 2,0,1
 34 685 34 685 34 706 c 0,2,3
 34 728 34 728 57 728 c 2,4,-1
 201 728 l 2,5,6
 219 728 219 728 231 726 c 128,-1,7
 243 724 243 724 250 716.5 c 128,-1,8
 257 709 257 709 260 695.5 c 128,-1,9
 263 682 263 682 263 661 c 2,10,-1
 263 -151 l 2,11,12
 263 -172 263 -172 260 -185.5 c 128,-1,13
 257 -199 257 -199 250 -206.5 c 128,-1,14
 243 -214 243 -214 231 -216 c 128,-1,15
 219 -218 219 -218 201 -218 c 2,16,-1
 57 -218 l 2,17,18
 34 -218 34 -218 34 -196 c 0,19,20
 34 -175 34 -175 57 -175 c 2,21,-1
 178 -175 l 2,22,23
 188 -175 188 -175 188 -163 c 2,24,-1
 188 673 l 2,25,26
 188 685 188 685 178 685 c 2,27,-1
 57 685 l 2,0,1
EndSplineSet
EndChar

StartChar: asciicircum
Encoding: 94 94 65
Width: 505
Flags: W
LayerCount: 2
Back
Fore
SplineSet
227 714 m 2,0,1
 236 728 236 728 253 728 c 0,2,3
 271 728 271 728 280 714 c 2,4,-1
 466 414 l 2,5,6
 474 399 474 399 464.5 390 c 128,-1,7
 455 381 455 381 441 380 c 0,8,9
 432 379 432 379 423.5 382.5 c 128,-1,10
 415 386 415 386 410 394 c 2,11,-1
 253 650 l 1,12,-1
 96 394 l 2,13,14
 91 384 91 384 82.5 381.5 c 128,-1,15
 74 379 74 379 65 380 c 0,16,17
 51 381 51 381 41 390.5 c 128,-1,18
 31 400 31 400 40 414 c 2,19,-1
 227 714 l 2,0,1
EndSplineSet
EndChar

StartChar: underscore
Encoding: 95 95 66
Width: 668
Flags: W
LayerCount: 2
Back
Fore
SplineSet
105 -123 m 2,0,1
 94 -123 94 -123 88 -114.5 c 128,-1,2
 82 -106 82 -106 82 -96 c 0,3,4
 82 -85 82 -85 88 -77 c 128,-1,5
 94 -69 94 -69 105 -69 c 2,6,-1
 563 -69 l 2,7,8
 574 -69 574 -69 580 -77 c 128,-1,9
 586 -85 586 -85 586 -96 c 0,10,11
 586 -106 586 -106 580 -114.5 c 128,-1,12
 574 -123 574 -123 563 -123 c 2,13,-1
 105 -123 l 2,0,1
EndSplineSet
EndChar

StartChar: grave
Encoding: 96 96 67
Width: 282
Flags: W
LayerCount: 2
Back
Fore
SplineSet
50 637 m 2,0,1
 41 647 41 647 41 660 c 0,2,3
 41 675 41 675 54 688.5 c 128,-1,4
 67 702 67 702 85 702 c 0,5,6
 108 702 108 702 121 679 c 2,7,-1
 196 542 l 2,8,9
 200 534 200 534 200 528 c 0,10,11
 200 517 200 517 193 511.5 c 128,-1,12
 186 506 186 506 176 506 c 0,13,14
 163 506 163 506 152 518 c 2,15,-1
 50 637 l 2,0,1
EndSplineSet
EndChar

StartChar: a
Encoding: 97 97 68
Width: 501
Flags: W
LayerCount: 2
Back
Fore
SplineSet
223 436 m 0,0,1
 194 436 194 436 170 418 c 128,-1,2
 146 400 146 400 146 366 c 0,3,4
 146 354 146 354 151 344.5 c 128,-1,5
 156 335 156 335 162 329 c 128,-1,6
 168 323 168 323 173 319 c 128,-1,7
 178 315 178 315 178 314 c 0,8,9
 178 309 178 309 166.5 299 c 128,-1,10
 155 289 155 289 135 289 c 0,11,12
 103 289 103 289 86.5 312 c 128,-1,13
 70 335 70 335 70 363 c 256,14,15
 70 391 70 391 84 410.5 c 128,-1,16
 98 430 98 430 120.5 442 c 128,-1,17
 143 454 143 454 171.5 459.5 c 128,-1,18
 200 465 200 465 229 465 c 0,19,20
 263 465 263 465 296 459.5 c 128,-1,21
 329 454 329 454 355 438 c 128,-1,22
 381 422 381 422 397.5 393.5 c 128,-1,23
 414 365 414 365 414 319 c 2,24,-1
 414 86 l 2,25,26
 414 78 414 78 416.5 68 c 128,-1,27
 419 58 419 58 425 49 c 128,-1,28
 431 40 431 40 441 33.5 c 128,-1,29
 451 27 451 27 466 27 c 0,30,31
 473 27 473 27 477 24.5 c 128,-1,32
 481 22 481 22 481 11 c 0,33,34
 481 4 481 4 475 -0.5 c 128,-1,35
 469 -5 469 -5 460 -7.5 c 128,-1,36
 451 -10 451 -10 441.5 -11 c 128,-1,37
 432 -12 432 -12 426 -12 c 0,38,39
 389 -12 389 -12 360 9.5 c 128,-1,40
 331 31 331 31 326 69 c 1,41,42
 315 49 315 49 295 34 c 128,-1,43
 275 19 275 19 251.5 8.5 c 128,-1,44
 228 -2 228 -2 203.5 -7 c 128,-1,45
 179 -12 179 -12 158 -12 c 0,46,47
 132 -12 132 -12 109.5 -2.5 c 128,-1,48
 87 7 87 7 70.5 23 c 128,-1,49
 54 39 54 39 44 60.5 c 128,-1,50
 34 82 34 82 34 107 c 0,51,52
 34 143 34 143 51.5 168 c 128,-1,53
 69 193 69 193 96 209 c 128,-1,54
 123 225 123 225 156.5 234 c 128,-1,55
 190 243 190 243 222.5 247.5 c 128,-1,56
 255 252 255 252 282.5 253.5 c 128,-1,57
 310 255 310 255 326 257 c 1,58,-1
 326 336 l 2,59,60
 326 383 326 383 303 409.5 c 128,-1,61
 280 436 280 436 223 436 c 0,0,1
326 227 m 1,62,63
 278 221 278 221 242 213 c 128,-1,64
 206 205 206 205 182.5 193 c 128,-1,65
 159 181 159 181 147 163 c 128,-1,66
 135 145 135 145 135 120 c 0,67,68
 135 88 135 88 153 65 c 128,-1,69
 171 42 171 42 200 42 c 0,70,71
 225 42 225 42 248 52 c 128,-1,72
 271 62 271 62 288.5 79 c 128,-1,73
 306 96 306 96 316 120 c 128,-1,74
 326 144 326 144 326 171 c 2,75,-1
 326 227 l 1,62,63
EndSplineSet
EndChar

StartChar: b
Encoding: 98 98 69
Width: 561
Flags: W
LayerCount: 2
Back
Fore
SplineSet
78 590 m 2,0,1
 78 603 78 603 78 615.5 c 128,-1,2
 78 628 78 628 73.5 637.5 c 128,-1,3
 69 647 69 647 58.5 652.5 c 128,-1,4
 48 658 48 658 27 658 c 0,5,6
 18 658 18 658 10.5 660.5 c 128,-1,7
 3 663 3 663 3 678 c 0,8,9
 3 684 3 684 7 689 c 128,-1,10
 11 694 11 694 19 696 c 0,11,12
 53 701 53 701 75 706.5 c 128,-1,13
 97 712 97 712 111 716.5 c 128,-1,14
 125 721 125 721 133.5 724 c 128,-1,15
 142 727 142 727 150 728 c 256,16,17
 158 729 158 729 163.5 725 c 128,-1,18
 169 721 169 721 169 709 c 2,19,-1
 169 407 l 1,20,-1
 172 407 l 1,21,22
 202 437 202 437 238.5 451 c 128,-1,23
 275 465 275 465 310 465 c 0,24,25
 354 465 354 465 392.5 448 c 128,-1,26
 431 431 431 431 459.5 400 c 128,-1,27
 488 369 488 369 504 325.5 c 128,-1,28
 520 282 520 282 520 230 c 0,29,30
 520 179 520 179 501 134.5 c 128,-1,31
 482 90 482 90 450.5 57.5 c 128,-1,32
 419 25 419 25 377.5 6.5 c 128,-1,33
 336 -12 336 -12 291 -12 c 0,34,35
 202 -12 202 -12 137 37 c 1,36,-1
 132 37 l 1,37,38
 128 29 128 29 125 20.5 c 128,-1,39
 122 12 122 12 118 4 c 128,-1,40
 114 -4 114 -4 109 -9 c 128,-1,41
 104 -14 104 -14 97 -14 c 0,42,43
 88 -14 88 -14 83 -8 c 128,-1,44
 78 -2 78 -2 78 6 c 2,45,-1
 78 590 l 2,0,1
418 226 m 0,46,47
 418 261 418 261 410 295 c 128,-1,48
 402 329 402 329 384.5 355.5 c 128,-1,49
 367 382 367 382 340 398.5 c 128,-1,50
 313 415 313 415 275 415 c 0,51,52
 241 415 241 415 215 403 c 128,-1,53
 189 391 189 391 169 369 c 1,54,-1
 169 105 l 2,55,56
 171 94 171 94 179 80 c 128,-1,57
 187 66 187 66 201.5 53 c 128,-1,58
 216 40 216 40 236 31 c 128,-1,59
 256 22 256 22 282 22 c 0,60,61
 312 22 312 22 337 36 c 128,-1,62
 362 50 362 50 380 76.5 c 128,-1,63
 398 103 398 103 408 141 c 128,-1,64
 418 179 418 179 418 226 c 0,46,47
EndSplineSet
EndChar

StartChar: c
Encoding: 99 99 70
Width: 475
Flags: W
LayerCount: 2
Back
Fore
SplineSet
411 113 m 0,0,1
 418 123 418 123 432 115 c 0,2,3
 439 111 439 111 442 104 c 128,-1,4
 445 97 445 97 440 90 c 0,5,6
 407 42 407 42 358.5 15 c 128,-1,7
 310 -12 310 -12 259 -12 c 256,8,9
 208 -12 208 -12 167.5 5 c 128,-1,10
 127 22 127 22 99 53.5 c 128,-1,11
 71 85 71 85 56 129 c 128,-1,12
 41 173 41 173 41 227 c 0,13,14
 43 279 43 279 61.5 322 c 128,-1,15
 80 365 80 365 111.5 396.5 c 128,-1,16
 143 428 143 428 185.5 445.5 c 128,-1,17
 228 463 228 463 276 465 c 0,18,19
 289 465 289 465 312.5 463 c 128,-1,20
 336 461 336 461 359.5 453 c 128,-1,21
 383 445 383 445 403 428.5 c 128,-1,22
 423 412 423 412 431 382 c 0,23,24
 435 365 435 365 432.5 347.5 c 128,-1,25
 430 330 430 330 421.5 315.5 c 128,-1,26
 413 301 413 301 398.5 292 c 128,-1,27
 384 283 384 283 365 283 c 0,28,29
 343 283 343 283 331 294 c 128,-1,30
 319 305 319 305 319 310 c 0,31,32
 319 311 319 311 324 315 c 128,-1,33
 329 319 329 319 335.5 326 c 128,-1,34
 342 333 342 333 347 342.5 c 128,-1,35
 352 352 352 352 352 365 c 0,36,37
 352 397 352 397 329 412 c 128,-1,38
 306 427 306 427 277 428 c 0,39,40
 233 428 233 428 206.5 409.5 c 128,-1,41
 180 391 180 391 166 362 c 128,-1,42
 152 333 152 333 147.5 298 c 128,-1,43
 143 263 143 263 143 230 c 0,44,45
 143 189 143 189 152.5 153.5 c 128,-1,46
 162 118 162 118 180 92.5 c 128,-1,47
 198 67 198 67 224 52.5 c 128,-1,48
 250 38 250 38 282 38 c 0,49,50
 326 38 326 38 356 56.5 c 128,-1,51
 386 75 386 75 411 113 c 0,0,1
EndSplineSet
EndChar

StartChar: d
Encoding: 100 100 71
Width: 580
Flags: W
LayerCount: 2
Back
Fore
SplineSet
391 352 m 1,0,1
 387 364 387 364 378.5 378 c 128,-1,2
 370 392 370 392 356.5 403 c 128,-1,3
 343 414 343 414 324.5 421.5 c 128,-1,4
 306 429 306 429 282 429 c 0,5,6
 253 429 253 429 228 415 c 128,-1,7
 203 401 203 401 184 374.5 c 128,-1,8
 165 348 165 348 154.5 309.5 c 128,-1,9
 144 271 144 271 144 222 c 0,10,11
 144 186 144 186 152.5 153 c 128,-1,12
 161 120 161 120 178.5 94.5 c 128,-1,13
 196 69 196 69 222.5 53.5 c 128,-1,14
 249 38 249 38 285 38 c 0,15,16
 323 38 323 38 348 53.5 c 128,-1,17
 373 69 373 69 391 88 c 1,18,-1
 391 352 l 1,0,1
482 92 m 2,19,20
 482 63 482 63 500.5 48 c 128,-1,21
 519 33 519 33 560 33 c 0,22,23
 571 33 571 33 574 27.5 c 128,-1,24
 577 22 577 22 577 17 c 0,25,26
 577 3 577 3 560 0 c 2,27,-1
 401 -11 l 2,28,29
 393 -11 393 -11 392.5 -5 c 128,-1,30
 392 1 392 1 392 9 c 2,31,-1
 392 49 l 1,32,-1
 389 49 l 1,33,34
 363 23 363 23 326 5.5 c 128,-1,35
 289 -12 289 -12 251 -12 c 0,36,37
 209 -12 209 -12 171 5.5 c 128,-1,38
 133 23 133 23 104 54.5 c 128,-1,39
 75 86 75 86 58 130 c 128,-1,40
 41 174 41 174 41 227 c 0,41,42
 41 273 41 273 58 316 c 128,-1,43
 75 359 75 359 106 392 c 128,-1,44
 137 425 137 425 179 445 c 128,-1,45
 221 465 221 465 272 465 c 0,46,47
 304 465 304 465 334.5 457.5 c 128,-1,48
 365 450 365 450 388 437 c 1,49,-1
 391 437 l 1,50,-1
 391 590 l 2,51,52
 391 603 391 603 391 615.5 c 128,-1,53
 391 628 391 628 386.5 637.5 c 128,-1,54
 382 647 382 647 371.5 652.5 c 128,-1,55
 361 658 361 658 340 658 c 0,56,57
 331 658 331 658 323.5 660.5 c 128,-1,58
 316 663 316 663 316 678 c 0,59,60
 316 684 316 684 320 689 c 128,-1,61
 324 694 324 694 332 696 c 0,62,63
 366 701 366 701 388 706.5 c 128,-1,64
 410 712 410 712 424 716.5 c 128,-1,65
 438 721 438 721 446.5 724 c 128,-1,66
 455 727 455 727 463 728 c 256,67,68
 471 729 471 729 476.5 725 c 128,-1,69
 482 721 482 721 482 709 c 2,70,-1
 482 92 l 2,19,20
EndSplineSet
EndChar

StartChar: e
Encoding: 101 101 72
Width: 502
Flags: W
LayerCount: 2
Back
Fore
SplineSet
306 278 m 2,0,1
 330 278 330 278 344 287.5 c 128,-1,2
 358 297 358 297 360 320 c 0,3,4
 360 341 360 341 354 361 c 128,-1,5
 348 381 348 381 336 396.5 c 128,-1,6
 324 412 324 412 306 421 c 128,-1,7
 288 430 288 430 264 430 c 0,8,9
 213 430 213 430 180 390 c 128,-1,10
 147 350 147 350 143 278 c 1,11,-1
 306 278 l 2,0,1
461 93 m 0,12,13
 430 44 430 44 383 16 c 128,-1,14
 336 -12 336 -12 275 -12 c 0,15,16
 217 -12 217 -12 173 7 c 128,-1,17
 129 26 129 26 100 59 c 128,-1,18
 71 92 71 92 56 136 c 128,-1,19
 41 180 41 180 41 229 c 0,20,21
 41 272 41 272 56.5 314.5 c 128,-1,22
 72 357 72 357 101 390.5 c 128,-1,23
 130 424 130 424 171 444.5 c 128,-1,24
 212 465 212 465 264 465 c 0,25,26
 310 465 310 465 344.5 452.5 c 128,-1,27
 379 440 379 440 402.5 417.5 c 128,-1,28
 426 395 426 395 439.5 364 c 128,-1,29
 453 333 453 333 456 297 c 0,30,31
 456 262 456 262 436.5 251 c 128,-1,32
 417 240 417 240 386 240 c 2,33,-1
 143 240 l 1,34,35
 143 196 143 196 152 159 c 128,-1,36
 161 122 161 122 180 95 c 128,-1,37
 199 68 199 68 229 53 c 128,-1,38
 259 38 259 38 301 38 c 256,39,40
 343 38 343 38 373 56 c 128,-1,41
 403 74 403 74 431 119 c 0,42,43
 439 129 439 129 453 120 c 0,44,45
 461 115 461 115 463 107 c 128,-1,46
 465 99 465 99 461 93 c 0,12,13
EndSplineSet
EndChar

StartChar: f
Encoding: 102 102 73
Width: 343
Flags: W
LayerCount: 2
Back
Fore
SplineSet
116 490 m 2,0,1
 116 540 116 540 128 582.5 c 128,-1,2
 140 625 140 625 163 656 c 128,-1,3
 186 687 186 687 221 705 c 128,-1,4
 256 723 256 723 301 724 c 0,5,6
 324 724 324 724 346.5 717.5 c 128,-1,7
 369 711 369 711 387 698 c 128,-1,8
 405 685 405 685 416.5 667 c 128,-1,9
 428 649 428 649 428 626 c 0,10,11
 428 598 428 598 411 574.5 c 128,-1,12
 394 551 394 551 362 551 c 0,13,14
 341 551 341 551 329.5 561.5 c 128,-1,15
 318 572 318 572 318 577 c 0,16,17
 318 579 318 579 323.5 583 c 128,-1,18
 329 587 329 587 335 594.5 c 128,-1,19
 341 602 341 602 346.5 612.5 c 128,-1,20
 352 623 352 623 352 638 c 0,21,22
 352 660 352 660 335.5 675.5 c 128,-1,23
 319 691 319 691 294 691 c 0,24,25
 261 691 261 691 243.5 670.5 c 128,-1,26
 226 650 226 650 218 621 c 128,-1,27
 210 592 210 592 209 560.5 c 128,-1,28
 208 529 208 529 208 508 c 2,29,-1
 208 453 l 1,30,-1
 306 453 l 2,31,32
 316 453 316 453 323 451.5 c 128,-1,33
 330 450 330 450 331 434 c 0,34,35
 331 426 331 426 326.5 420 c 128,-1,36
 322 414 322 414 314 414 c 2,37,-1
 208 414 l 1,38,-1
 208 103 l 2,39,40
 208 90 208 90 208 77.5 c 128,-1,41
 208 65 208 65 212.5 55.5 c 128,-1,42
 217 46 217 46 227.5 40.5 c 128,-1,43
 238 35 238 35 279 35 c 0,44,45
 289 35 289 35 295 33.5 c 128,-1,46
 301 32 301 32 302 17 c 0,47,48
 302 9 302 9 298.5 3 c 128,-1,49
 295 -3 295 -3 287 -3 c 0,50,51
 238 -1 238 -1 213 -0.5 c 128,-1,52
 188 0 188 0 162 0 c 0,53,54
 135 0 135 0 111 -0.5 c 128,-1,55
 87 -1 87 -1 58 -3 c 0,56,57
 50 -3 50 -3 46 3 c 128,-1,58
 42 9 42 9 42 17 c 0,59,60
 43 32 43 32 49 33.5 c 128,-1,61
 55 35 55 35 65 35 c 0,62,63
 86 35 86 35 96.5 40.5 c 128,-1,64
 107 46 107 46 111.5 55.5 c 128,-1,65
 116 65 116 65 116 77.5 c 128,-1,66
 116 90 116 90 116 103 c 2,67,-1
 116 414 l 1,68,-1
 49 414 l 2,69,70
 41 414 41 414 36.5 420 c 128,-1,71
 32 426 32 426 32 434 c 0,72,73
 33 450 33 450 39.5 451.5 c 128,-1,74
 46 453 46 453 56 453 c 2,75,-1
 116 453 l 1,76,-1
 116 490 l 2,0,1
EndSplineSet
EndChar

StartChar: g
Encoding: 103 103 74
Width: 523
Flags: W
LayerCount: 2
Back
Fore
SplineSet
401 414 m 1,0,-1
 401 412 l 1,1,2
 418 395 418 395 430 367 c 128,-1,3
 442 339 442 339 442 314 c 0,4,5
 442 278 442 278 426 249 c 128,-1,6
 410 220 410 220 383.5 200 c 128,-1,7
 357 180 357 180 323.5 169.5 c 128,-1,8
 290 159 290 159 256 159 c 2,9,-1
 212 159 l 2,10,11
 160 159 160 159 136.5 149 c 128,-1,12
 113 139 113 139 113 116 c 0,13,14
 113 98 113 98 125.5 88.5 c 128,-1,15
 138 79 138 79 171 77 c 2,16,-1
 308 73 l 2,17,18
 414 73 414 73 460 40.5 c 128,-1,19
 506 8 506 8 506 -51 c 0,20,21
 506 -91 506 -91 487 -122 c 128,-1,22
 468 -153 468 -153 432.5 -174.5 c 128,-1,23
 397 -196 397 -196 348 -207 c 128,-1,24
 299 -218 299 -218 239 -218 c 0,25,26
 191 -218 191 -218 151.5 -212 c 128,-1,27
 112 -206 112 -206 84.5 -192 c 128,-1,28
 57 -178 57 -178 42 -155 c 128,-1,29
 27 -132 27 -132 27 -98 c 0,30,31
 27 -65 27 -65 48 -39.5 c 128,-1,32
 69 -14 69 -14 104 -14 c 0,33,34
 116 -14 116 -14 125.5 -17.5 c 128,-1,35
 135 -21 135 -21 142 -26 c 128,-1,36
 149 -31 149 -31 153 -36 c 128,-1,37
 157 -41 157 -41 157 -44 c 0,38,39
 157 -46 157 -46 152.5 -50 c 128,-1,40
 148 -54 148 -54 142 -61 c 128,-1,41
 136 -68 136 -68 131.5 -78.5 c 128,-1,42
 127 -89 127 -89 127 -104 c 0,43,44
 127 -151 127 -151 161.5 -166 c 128,-1,45
 196 -181 196 -181 269 -181 c 0,46,47
 337 -181 337 -181 377 -155.5 c 128,-1,48
 417 -130 417 -130 417 -76 c 0,49,50
 417 -52 417 -52 403.5 -37.5 c 128,-1,51
 390 -23 390 -23 368 -15.5 c 128,-1,52
 346 -8 346 -8 317 -5.5 c 128,-1,53
 288 -3 288 -3 257 -2.5 c 128,-1,54
 226 -2 226 -2 195 -1 c 128,-1,55
 164 0 164 0 138 5 c 0,56,57
 103 11 103 11 79.5 28 c 128,-1,58
 56 45 56 45 56 86 c 0,59,60
 56 123 56 123 82 150.5 c 128,-1,61
 108 178 108 178 162 178 c 1,62,63
 130 190 130 190 109.5 205.5 c 128,-1,64
 89 221 89 221 77 238.5 c 128,-1,65
 65 256 65 256 60 275 c 128,-1,66
 55 294 55 294 55 313 c 0,67,68
 55 345 55 345 69 373 c 128,-1,69
 83 401 83 401 108.5 421.5 c 128,-1,70
 134 442 134 442 169.5 454 c 128,-1,71
 205 466 205 466 248 466 c 0,72,73
 276 466 276 466 306.5 461.5 c 128,-1,74
 337 457 337 457 359 446 c 1,75,-1
 496 472 l 2,76,77
 507 473 507 473 511 465 c 128,-1,78
 515 457 515 457 515 448 c 0,79,80
 515 434 515 434 511 422 c 128,-1,81
 507 410 507 410 500 410 c 2,82,-1
 401 414 l 1,0,-1
247 435 m 0,83,84
 202 435 202 435 173 404 c 128,-1,85
 144 373 144 373 144 316 c 0,86,87
 144 254 144 254 173.5 221 c 128,-1,88
 203 188 203 188 248 188 c 0,89,90
 294 188 294 188 323 220.5 c 128,-1,91
 352 253 352 253 352 314 c 0,92,93
 352 371 352 371 322.5 403 c 128,-1,94
 293 435 293 435 247 435 c 0,83,84
EndSplineSet
EndChar

StartChar: h
Encoding: 104 104 75
Width: 589
Flags: W
LayerCount: 2
Back
Fore
SplineSet
189 388 m 1,0,-1
 191 388 l 1,1,2
 206 402 206 402 221 415.5 c 128,-1,3
 236 429 236 429 254.5 440 c 128,-1,4
 273 451 273 451 296.5 458 c 128,-1,5
 320 465 320 465 352 465 c 0,6,7
 421 465 421 465 460.5 424 c 128,-1,8
 500 383 500 383 500 316 c 2,9,-1
 500 103 l 2,10,11
 500 90 500 90 500 77.5 c 128,-1,12
 500 65 500 65 504.5 55.5 c 128,-1,13
 509 46 509 46 519.5 40.5 c 128,-1,14
 530 35 530 35 551 35 c 0,15,16
 561 35 561 35 567 33.5 c 128,-1,17
 573 32 573 32 574 17 c 0,18,19
 574 9 574 9 570.5 3 c 128,-1,20
 567 -3 567 -3 559 -3 c 0,21,22
 530 -1 530 -1 505 -0.5 c 128,-1,23
 480 0 480 0 454 0 c 0,24,25
 427 0 427 0 403 -0.5 c 128,-1,26
 379 -1 379 -1 350 -3 c 0,27,28
 342 -3 342 -3 338 3 c 128,-1,29
 334 9 334 9 334 17 c 0,30,31
 335 32 335 32 341 33.5 c 128,-1,32
 347 35 347 35 357 35 c 0,33,34
 378 35 378 35 388.5 40.5 c 128,-1,35
 399 46 399 46 403.5 55.5 c 128,-1,36
 408 65 408 65 408 77.5 c 128,-1,37
 408 90 408 90 408 103 c 2,38,-1
 408 315 l 2,39,40
 408 340 408 340 399.5 358 c 128,-1,41
 391 376 391 376 377.5 387.5 c 128,-1,42
 364 399 364 399 347 404.5 c 128,-1,43
 330 410 330 410 313 410 c 0,44,45
 287 410 287 410 266 402.5 c 128,-1,46
 245 395 245 395 229 384 c 128,-1,47
 213 373 213 373 203 361.5 c 128,-1,48
 193 350 193 350 189 341 c 1,49,-1
 189 103 l 2,50,51
 189 90 189 90 189 77.5 c 128,-1,52
 189 65 189 65 193.5 55.5 c 128,-1,53
 198 46 198 46 208.5 40.5 c 128,-1,54
 219 35 219 35 240 35 c 0,55,56
 250 35 250 35 256 33.5 c 128,-1,57
 262 32 262 32 263 17 c 0,58,59
 263 9 263 9 259.5 3 c 128,-1,60
 256 -3 256 -3 248 -3 c 0,61,62
 219 -1 219 -1 194 -0.5 c 128,-1,63
 169 0 169 0 143 0 c 0,64,65
 116 0 116 0 92 -0.5 c 128,-1,66
 68 -1 68 -1 39 -3 c 0,67,68
 31 -3 31 -3 27 3 c 128,-1,69
 23 9 23 9 23 17 c 0,70,71
 24 32 24 32 30.5 33.5 c 128,-1,72
 37 35 37 35 46 35 c 0,73,74
 67 35 67 35 77.5 40.5 c 128,-1,75
 88 46 88 46 92.5 55.5 c 128,-1,76
 97 65 97 65 97.5 77.5 c 128,-1,77
 98 90 98 90 98 103 c 2,78,-1
 98 591 l 2,79,80
 98 604 98 604 98 616.5 c 128,-1,81
 98 629 98 629 93.5 638.5 c 128,-1,82
 89 648 89 648 78.5 653.5 c 128,-1,83
 68 659 68 659 47 659 c 0,84,85
 38 659 38 659 30.5 661.5 c 128,-1,86
 23 664 23 664 23 679 c 0,87,88
 23 685 23 685 27 690 c 128,-1,89
 31 695 31 695 39 697 c 0,90,91
 73 702 73 702 95 707.5 c 128,-1,92
 117 713 117 713 131 717.5 c 128,-1,93
 145 722 145 722 153.5 725 c 128,-1,94
 162 728 162 728 170 729 c 256,95,96
 178 730 178 730 183.5 726 c 128,-1,97
 189 722 189 722 189 710 c 2,98,-1
 189 388 l 1,0,-1
EndSplineSet
EndChar

StartChar: i
Encoding: 105 105 76
Width: 297
Flags: W
LayerCount: 2
Back
Fore
SplineSet
144 591 m 0,0,1
 133 591 133 591 121.5 594 c 128,-1,2
 110 597 110 597 100.5 604.5 c 128,-1,3
 91 612 91 612 84.5 623.5 c 128,-1,4
 78 635 78 635 78 652 c 0,5,6
 78 660 78 660 82.5 670.5 c 128,-1,7
 87 681 87 681 96.5 690 c 128,-1,8
 106 699 106 699 120 705 c 128,-1,9
 134 711 134 711 153 711 c 0,10,11
 162 711 162 711 172 707.5 c 128,-1,12
 182 704 182 704 190.5 696.5 c 128,-1,13
 199 689 199 689 204.5 677.5 c 128,-1,14
 210 666 210 666 210 649 c 0,15,16
 210 628 210 628 193 609.5 c 128,-1,17
 176 591 176 591 144 591 c 0,0,1
200 103 m 2,18,19
 200 90 200 90 200 77.5 c 128,-1,20
 200 65 200 65 204.5 55.5 c 128,-1,21
 209 46 209 46 220 40.5 c 128,-1,22
 231 35 231 35 252 35 c 0,23,24
 261 35 261 35 267.5 33.5 c 128,-1,25
 274 32 274 32 275 17 c 0,26,27
 275 9 275 9 271 3 c 128,-1,28
 267 -3 267 -3 259 -3 c 0,29,30
 230 -1 230 -1 205.5 -0.5 c 128,-1,31
 181 0 181 0 154 0 c 256,32,33
 127 0 127 0 103 -0.5 c 128,-1,34
 79 -1 79 -1 50 -3 c 0,35,36
 42 -3 42 -3 38 3 c 128,-1,37
 34 9 34 9 34 17 c 0,38,39
 36 32 36 32 42 33.5 c 128,-1,40
 48 35 48 35 58 35 c 0,41,42
 79 35 79 35 89.5 40.5 c 128,-1,43
 100 46 100 46 104.5 55.5 c 128,-1,44
 109 65 109 65 109 77.5 c 128,-1,45
 109 90 109 90 109 103 c 2,46,-1
 109 332 l 2,47,48
 109 345 109 345 109 357.5 c 128,-1,49
 109 370 109 370 104.5 379.5 c 128,-1,50
 100 389 100 389 89.5 394.5 c 128,-1,51
 79 400 79 400 58 400 c 0,52,53
 49 400 49 400 41.5 402.5 c 128,-1,54
 34 405 34 405 34 420 c 0,55,56
 34 426 34 426 38 431 c 128,-1,57
 42 436 42 436 50 438 c 0,58,59
 84 443 84 443 106 448.5 c 128,-1,60
 128 454 128 454 142 458.5 c 128,-1,61
 156 463 156 463 164.5 466 c 128,-1,62
 173 469 173 469 181 470 c 256,63,64
 189 471 189 471 194.5 467 c 128,-1,65
 200 463 200 463 200 451 c 2,66,-1
 200 103 l 2,18,19
EndSplineSet
EndChar

StartChar: j
Encoding: 106 106 77
Width: 266
Flags: W
LayerCount: 2
Back
Fore
SplineSet
98 332 m 2,0,1
 98 345 98 345 98 357.5 c 128,-1,2
 98 370 98 370 93.5 379.5 c 128,-1,3
 89 389 89 389 78.5 394.5 c 128,-1,4
 68 400 68 400 47 400 c 0,5,6
 38 400 38 400 30.5 402.5 c 128,-1,7
 23 405 23 405 23 420 c 0,8,9
 23 426 23 426 27 431 c 128,-1,10
 31 436 31 436 39 438 c 0,11,12
 73 443 73 443 95 448.5 c 128,-1,13
 117 454 117 454 131 458.5 c 128,-1,14
 145 463 145 463 153.5 466 c 128,-1,15
 162 469 162 469 170 470 c 256,16,17
 178 471 178 471 183.5 467 c 128,-1,18
 189 463 189 463 189 451 c 2,19,-1
 189 99 l 2,20,21
 189 42 189 42 180 -7.5 c 128,-1,22
 171 -57 171 -57 149.5 -97 c 128,-1,23
 128 -137 128 -137 92.5 -164.5 c 128,-1,24
 57 -192 57 -192 4 -205 c 0,25,26
 -4 -207 -4 -207 -8 -203.5 c 128,-1,27
 -12 -200 -12 -200 -16 -191 c 0,28,29
 -18 -183 -18 -183 -17 -176.5 c 128,-1,30
 -16 -170 -16 -170 -8 -167 c 0,31,32
 28 -152 28 -152 49.5 -126.5 c 128,-1,33
 71 -101 71 -101 81.5 -64 c 128,-1,34
 92 -27 92 -27 95 21.5 c 128,-1,35
 98 70 98 70 98 131 c 2,36,-1
 98 332 l 2,0,1
117 591 m 0,37,38
 106 591 106 591 94.5 594 c 128,-1,39
 83 597 83 597 73.5 604.5 c 128,-1,40
 64 612 64 612 57.5 623.5 c 128,-1,41
 51 635 51 635 51 652 c 0,42,43
 51 660 51 660 55.5 670.5 c 128,-1,44
 60 681 60 681 69.5 690 c 128,-1,45
 79 699 79 699 93 705 c 128,-1,46
 107 711 107 711 126 711 c 0,47,48
 135 711 135 711 145 707.5 c 128,-1,49
 155 704 155 704 163.5 696.5 c 128,-1,50
 172 689 172 689 177.5 677.5 c 128,-1,51
 183 666 183 666 183 649 c 0,52,53
 183 628 183 628 166 609.5 c 128,-1,54
 149 591 149 591 117 591 c 0,37,38
EndSplineSet
EndChar

StartChar: k
Encoding: 107 107 78
Width: 567
Flags: W
LayerCount: 2
Back
Fore
SplineSet
189 252 m 1,0,1
 211 257 211 257 229.5 266.5 c 128,-1,2
 248 276 248 276 261 289 c 2,3,-1
 345 375 l 2,4,5
 351 382 351 382 358.5 390 c 128,-1,6
 366 398 366 398 367 405 c 128,-1,7
 368 412 368 412 358.5 415.5 c 128,-1,8
 349 419 349 419 321 418 c 0,9,10
 310 420 310 420 309 436 c 0,11,12
 309 444 309 444 313 450 c 128,-1,13
 317 456 317 456 325 456 c 0,14,15
 348 454 348 454 380 453.5 c 128,-1,16
 412 453 412 453 435 453 c 0,17,18
 452 453 452 453 468.5 454 c 128,-1,19
 485 455 485 455 502 456 c 0,20,21
 510 456 510 456 514 450 c 128,-1,22
 518 444 518 444 518 436 c 0,23,24
 517 423 517 423 512.5 420.5 c 128,-1,25
 508 418 508 418 501 418 c 0,26,27
 462 418 462 418 438 404 c 128,-1,28
 414 390 414 390 384 359 c 2,29,-1
 300 273 l 1,30,31
 312 257 312 257 332 233.5 c 128,-1,32
 352 210 352 210 374 185 c 128,-1,33
 396 160 396 160 416.5 137.5 c 128,-1,34
 437 115 437 115 449 101 c 0,35,36
 478 70 478 70 497.5 53.5 c 128,-1,37
 517 37 517 37 546 35 c 0,38,39
 554 34 554 34 561 32.5 c 128,-1,40
 568 31 568 31 568 17 c 0,41,42
 568 9 568 9 564.5 3 c 128,-1,43
 561 -3 561 -3 552 -3 c 0,44,45
 538 -2 538 -2 529.5 -1.5 c 128,-1,46
 521 -1 521 -1 509 -0.5 c 128,-1,47
 497 0 497 0 476.5 0 c 128,-1,48
 456 0 456 0 419 0 c 1,49,50
 384 38 384 38 338.5 90.5 c 128,-1,51
 293 143 293 143 248 196 c 0,52,53
 237 207 237 207 222 216.5 c 128,-1,54
 207 226 207 226 189 224 c 1,55,-1
 189 103 l 2,56,57
 189 90 189 90 189 77.5 c 128,-1,58
 189 65 189 65 193.5 55.5 c 128,-1,59
 198 46 198 46 208.5 40.5 c 128,-1,60
 219 35 219 35 240 35 c 0,61,62
 250 35 250 35 256 33.5 c 128,-1,63
 262 32 262 32 264 17 c 0,64,65
 264 9 264 9 260 3 c 128,-1,66
 256 -3 256 -3 248 -3 c 0,67,68
 219 -1 219 -1 194 -0.5 c 128,-1,69
 169 0 169 0 143 0 c 0,70,71
 116 0 116 0 92 -0.5 c 128,-1,72
 68 -1 68 -1 39 -3 c 0,73,74
 31 -3 31 -3 27 3 c 128,-1,75
 23 9 23 9 23 17 c 0,76,77
 24 32 24 32 30.5 33.5 c 128,-1,78
 37 35 37 35 46 35 c 0,79,80
 67 35 67 35 77.5 40.5 c 128,-1,81
 88 46 88 46 92.5 55.5 c 128,-1,82
 97 65 97 65 97.5 77.5 c 128,-1,83
 98 90 98 90 98 103 c 2,84,-1
 98 590 l 2,85,86
 98 603 98 603 98 615.5 c 128,-1,87
 98 628 98 628 93.5 637.5 c 128,-1,88
 89 647 89 647 78.5 652.5 c 128,-1,89
 68 658 68 658 47 658 c 0,90,91
 38 658 38 658 30.5 660.5 c 128,-1,92
 23 663 23 663 23 678 c 0,93,94
 23 684 23 684 27 689 c 128,-1,95
 31 694 31 694 39 696 c 0,96,97
 73 701 73 701 95 706.5 c 128,-1,98
 117 712 117 712 131 716.5 c 128,-1,99
 145 721 145 721 153.5 724 c 128,-1,100
 162 727 162 727 170 728 c 256,101,102
 178 729 178 729 183.5 725 c 128,-1,103
 189 721 189 721 189 709 c 2,104,-1
 189 252 l 1,0,1
EndSplineSet
EndChar

StartChar: l
Encoding: 108 108 79
Width: 286
Flags: W
LayerCount: 2
Back
Fore
SplineSet
98 591 m 2,0,1
 98 604 98 604 98 616.5 c 128,-1,2
 98 629 98 629 93.5 638.5 c 128,-1,3
 89 648 89 648 78.5 653.5 c 128,-1,4
 68 659 68 659 47 659 c 0,5,6
 38 659 38 659 30.5 661.5 c 128,-1,7
 23 664 23 664 23 679 c 0,8,9
 23 685 23 685 27 690 c 128,-1,10
 31 695 31 695 39 697 c 0,11,12
 73 702 73 702 95 707.5 c 128,-1,13
 117 713 117 713 131 717.5 c 128,-1,14
 145 722 145 722 153.5 725 c 128,-1,15
 162 728 162 728 170 729 c 256,16,17
 178 730 178 730 183.5 726 c 128,-1,18
 189 722 189 722 189 710 c 2,19,-1
 189 103 l 2,20,21
 189 90 189 90 189 77.5 c 128,-1,22
 189 65 189 65 193.5 55.5 c 128,-1,23
 198 46 198 46 209 40.5 c 128,-1,24
 220 35 220 35 241 35 c 0,25,26
 250 35 250 35 256.5 33.5 c 128,-1,27
 263 32 263 32 264 17 c 0,28,29
 264 9 264 9 260 3 c 128,-1,30
 256 -3 256 -3 248 -3 c 0,31,32
 219 -1 219 -1 194.5 -0.5 c 128,-1,33
 170 0 170 0 143 0 c 256,34,35
 116 0 116 0 92 -0.5 c 128,-1,36
 68 -1 68 -1 39 -3 c 0,37,38
 31 -3 31 -3 27 3 c 128,-1,39
 23 9 23 9 23 17 c 0,40,41
 24 32 24 32 30.5 33.5 c 128,-1,42
 37 35 37 35 46 35 c 0,43,44
 67 35 67 35 77.5 40.5 c 128,-1,45
 88 46 88 46 92.5 55.5 c 128,-1,46
 97 65 97 65 97.5 77.5 c 128,-1,47
 98 90 98 90 98 103 c 2,48,-1
 98 591 l 2,0,1
EndSplineSet
EndChar

StartChar: m
Encoding: 109 109 80
Width: 896
Flags: W
LayerCount: 2
Back
Fore
SplineSet
199 388 m 1,0,-1
 202 388 l 1,1,2
 217 402 217 402 231 415.5 c 128,-1,3
 245 429 245 429 262 440 c 128,-1,4
 279 451 279 451 301.5 458 c 128,-1,5
 324 465 324 465 356 465 c 0,6,7
 405 465 405 465 439.5 444.5 c 128,-1,8
 474 424 474 424 491 388 c 1,9,-1
 493 388 l 1,10,11
 508 402 508 402 524 415.5 c 128,-1,12
 540 429 540 429 559.5 440 c 128,-1,13
 579 451 579 451 603 458 c 128,-1,14
 627 465 627 465 659 465 c 0,15,16
 728 465 728 465 767.5 424 c 128,-1,17
 807 383 807 383 807 316 c 2,18,-1
 807 103 l 2,19,20
 807 90 807 90 807 77.5 c 128,-1,21
 807 65 807 65 811.5 55.5 c 128,-1,22
 816 46 816 46 827 40.5 c 128,-1,23
 838 35 838 35 859 35 c 0,24,25
 868 35 868 35 874.5 33.5 c 128,-1,26
 881 32 881 32 882 17 c 0,27,28
 882 9 882 9 878 3 c 128,-1,29
 874 -3 874 -3 866 -3 c 0,30,31
 837 -1 837 -1 812.5 -0.5 c 128,-1,32
 788 0 788 0 761 0 c 256,33,34
 734 0 734 0 710 -0.5 c 128,-1,35
 686 -1 686 -1 657 -3 c 0,36,37
 649 -3 649 -3 645 3 c 128,-1,38
 641 9 641 9 641 17 c 0,39,40
 642 32 642 32 648.5 33.5 c 128,-1,41
 655 35 655 35 664 35 c 0,42,43
 685 35 685 35 695.5 40.5 c 128,-1,44
 706 46 706 46 710.5 55.5 c 128,-1,45
 715 65 715 65 715.5 77.5 c 128,-1,46
 716 90 716 90 716 103 c 2,47,-1
 716 315 l 2,48,49
 716 340 716 340 707.5 358 c 128,-1,50
 699 376 699 376 685.5 387.5 c 128,-1,51
 672 399 672 399 654.5 404.5 c 128,-1,52
 637 410 637 410 620 410 c 0,53,54
 594 410 594 410 574 402.5 c 128,-1,55
 554 395 554 395 540 384 c 128,-1,56
 526 373 526 373 517 361.5 c 128,-1,57
 508 350 508 350 504 341 c 1,58,-1
 504 103 l 2,59,60
 504 90 504 90 503.5 77.5 c 128,-1,61
 503 65 503 65 507 55.5 c 128,-1,62
 511 46 511 46 521 40.5 c 128,-1,63
 531 35 531 35 552 35 c 0,64,65
 562 35 562 35 568 33.5 c 128,-1,66
 574 32 574 32 575 17 c 0,67,68
 575 9 575 9 571 3 c 128,-1,69
 567 -3 567 -3 559 -3 c 0,70,71
 530 -1 530 -1 507 -0.5 c 128,-1,72
 484 0 484 0 457 0 c 0,73,74
 431 0 431 0 408.5 -0.5 c 128,-1,75
 386 -1 386 -1 357 -3 c 0,76,77
 349 -3 349 -3 345 3 c 128,-1,78
 341 9 341 9 341 17 c 0,79,80
 342 32 342 32 348 33.5 c 128,-1,81
 354 35 354 35 364 35 c 0,82,83
 385 35 385 35 395 40.5 c 128,-1,84
 405 46 405 46 409 55.5 c 128,-1,85
 413 65 413 65 412.5 77.5 c 128,-1,86
 412 90 412 90 412 103 c 2,87,-1
 412 315 l 2,88,89
 412 340 412 340 403.5 358 c 128,-1,90
 395 376 395 376 381.5 387.5 c 128,-1,91
 368 399 368 399 351 404.5 c 128,-1,92
 334 410 334 410 317 410 c 0,93,94
 291 410 291 410 271 402.5 c 128,-1,95
 251 395 251 395 236.5 384 c 128,-1,96
 222 373 222 373 213 361.5 c 128,-1,97
 204 350 204 350 200 341 c 1,98,-1
 200 103 l 2,99,100
 200 90 200 90 200 77.5 c 128,-1,101
 200 65 200 65 204.5 55.5 c 128,-1,102
 209 46 209 46 220 40.5 c 128,-1,103
 231 35 231 35 252 35 c 0,104,105
 261 35 261 35 267.5 33.5 c 128,-1,106
 274 32 274 32 275 17 c 0,107,108
 275 9 275 9 271 3 c 128,-1,109
 267 -3 267 -3 259 -3 c 0,110,111
 230 -1 230 -1 205.5 -0.5 c 128,-1,112
 181 0 181 0 154 0 c 256,113,114
 127 0 127 0 103 -0.5 c 128,-1,115
 79 -1 79 -1 50 -3 c 0,116,117
 42 -3 42 -3 38 3 c 128,-1,118
 34 9 34 9 34 17 c 0,119,120
 35 32 35 32 41.5 33.5 c 128,-1,121
 48 35 48 35 57 35 c 0,122,123
 78 35 78 35 88.5 40.5 c 128,-1,124
 99 46 99 46 103.5 55.5 c 128,-1,125
 108 65 108 65 108.5 77.5 c 128,-1,126
 109 90 109 90 109 103 c 2,127,-1
 109 332 l 2,128,129
 109 345 109 345 109 357.5 c 128,-1,130
 109 370 109 370 104.5 379.5 c 128,-1,131
 100 389 100 389 89.5 394.5 c 128,-1,132
 79 400 79 400 58 400 c 0,133,134
 49 400 49 400 41.5 402.5 c 128,-1,135
 34 405 34 405 34 420 c 0,136,137
 34 426 34 426 38 431 c 128,-1,138
 42 436 42 436 50 438 c 0,139,140
 84 443 84 443 106 448.5 c 128,-1,141
 128 454 128 454 142 458.5 c 128,-1,142
 156 463 156 463 164 466 c 128,-1,143
 172 469 172 469 180 470 c 256,144,145
 188 471 188 471 193.5 467 c 128,-1,146
 199 463 199 463 199 451 c 2,147,-1
 199 388 l 1,0,-1
EndSplineSet
EndChar

StartChar: n
Encoding: 110 110 81
Width: 599
Flags: W
LayerCount: 2
Back
Fore
SplineSet
198 388 m 1,0,-1
 201 388 l 1,1,2
 216 402 216 402 231 415.5 c 128,-1,3
 246 429 246 429 264.5 440 c 128,-1,4
 283 451 283 451 306.5 458 c 128,-1,5
 330 465 330 465 362 465 c 0,6,7
 431 465 431 465 470.5 424 c 128,-1,8
 510 383 510 383 510 316 c 2,9,-1
 510 103 l 2,10,11
 510 90 510 90 510 77.5 c 128,-1,12
 510 65 510 65 514.5 55.5 c 128,-1,13
 519 46 519 46 530 40.5 c 128,-1,14
 541 35 541 35 562 35 c 0,15,16
 571 35 571 35 577.5 33.5 c 128,-1,17
 584 32 584 32 585 17 c 0,18,19
 585 9 585 9 581 3 c 128,-1,20
 577 -3 577 -3 569 -3 c 0,21,22
 540 -1 540 -1 515.5 -0.5 c 128,-1,23
 491 0 491 0 464 0 c 256,24,25
 437 0 437 0 413 -0.5 c 128,-1,26
 389 -1 389 -1 360 -3 c 0,27,28
 352 -3 352 -3 348 3 c 128,-1,29
 344 9 344 9 344 17 c 0,30,31
 345 32 345 32 351.5 33.5 c 128,-1,32
 358 35 358 35 367 35 c 0,33,34
 388 35 388 35 398.5 40.5 c 128,-1,35
 409 46 409 46 413.5 55.5 c 128,-1,36
 418 65 418 65 418.5 77.5 c 128,-1,37
 419 90 419 90 419 103 c 2,38,-1
 419 315 l 2,39,40
 419 340 419 340 410.5 358 c 128,-1,41
 402 376 402 376 388.5 387.5 c 128,-1,42
 375 399 375 399 357.5 404.5 c 128,-1,43
 340 410 340 410 323 410 c 0,44,45
 297 410 297 410 276 402.5 c 128,-1,46
 255 395 255 395 239.5 384 c 128,-1,47
 224 373 224 373 213.5 361.5 c 128,-1,48
 203 350 203 350 199 341 c 1,49,-1
 199 103 l 2,50,51
 199 90 199 90 199 77.5 c 128,-1,52
 199 65 199 65 203.5 55.5 c 128,-1,53
 208 46 208 46 219 40.5 c 128,-1,54
 230 35 230 35 251 35 c 0,55,56
 260 35 260 35 266.5 33.5 c 128,-1,57
 273 32 273 32 274 17 c 0,58,59
 274 9 274 9 270 3 c 128,-1,60
 266 -3 266 -3 258 -3 c 0,61,62
 229 -1 229 -1 204.5 -0.5 c 128,-1,63
 180 0 180 0 153 0 c 256,64,65
 126 0 126 0 102 -0.5 c 128,-1,66
 78 -1 78 -1 49 -3 c 0,67,68
 41 -3 41 -3 37 3 c 128,-1,69
 33 9 33 9 33 17 c 0,70,71
 35 32 35 32 41 33.5 c 128,-1,72
 47 35 47 35 57 35 c 0,73,74
 78 35 78 35 88.5 40.5 c 128,-1,75
 99 46 99 46 103.5 55.5 c 128,-1,76
 108 65 108 65 108 77.5 c 128,-1,77
 108 90 108 90 108 103 c 2,78,-1
 108 332 l 2,79,80
 108 345 108 345 108 357.5 c 128,-1,81
 108 370 108 370 103.5 379.5 c 128,-1,82
 99 389 99 389 88.5 394.5 c 128,-1,83
 78 400 78 400 57 400 c 0,84,85
 48 400 48 400 40.5 402.5 c 128,-1,86
 33 405 33 405 33 420 c 0,87,88
 33 426 33 426 37 431 c 128,-1,89
 41 436 41 436 49 438 c 0,90,91
 83 443 83 443 105 448.5 c 128,-1,92
 127 454 127 454 141 458.5 c 128,-1,93
 155 463 155 463 163 466 c 128,-1,94
 171 469 171 469 179 470 c 256,95,96
 187 471 187 471 192.5 467 c 128,-1,97
 198 463 198 463 198 451 c 2,98,-1
 198 388 l 1,0,-1
EndSplineSet
EndChar

StartChar: o
Encoding: 111 111 82
Width: 548
Flags: W
LayerCount: 2
Back
Fore
SplineSet
274 465 m 0,0,1
 326 465 326 465 369 445.5 c 128,-1,2
 412 426 412 426 443 394 c 128,-1,3
 474 362 474 362 490.5 320 c 128,-1,4
 507 278 507 278 507 233 c 0,5,6
 507 174 507 174 485 128 c 128,-1,7
 463 82 463 82 429.5 51 c 128,-1,8
 396 20 396 20 354.5 4 c 128,-1,9
 313 -12 313 -12 274 -12 c 0,10,11
 221 -12 221 -12 178.5 7.5 c 128,-1,12
 136 27 136 27 105 59 c 128,-1,13
 74 91 74 91 57.5 133 c 128,-1,14
 41 175 41 175 41 220 c 0,15,16
 41 279 41 279 62.5 325 c 128,-1,17
 84 371 84 371 117.5 402 c 128,-1,18
 151 433 151 433 192.5 449 c 128,-1,19
 234 465 234 465 274 465 c 0,0,1
274 25 m 256,20,21
 310 25 310 25 335 42 c 128,-1,22
 360 59 360 59 375.5 87.5 c 128,-1,23
 391 116 391 116 398 153.5 c 128,-1,24
 405 191 405 191 405 233 c 0,25,26
 405 272 405 272 397.5 307.5 c 128,-1,27
 390 343 390 343 374.5 370 c 128,-1,28
 359 397 359 397 334 412.5 c 128,-1,29
 309 428 309 428 274 428 c 0,30,31
 237 428 237 428 212 411.5 c 128,-1,32
 187 395 187 395 171.5 366.5 c 128,-1,33
 156 338 156 338 149.5 301 c 128,-1,34
 143 264 143 264 143 222 c 0,35,36
 143 183 143 183 150 147.5 c 128,-1,37
 157 112 157 112 172.5 84.5 c 128,-1,38
 188 57 188 57 213 41 c 128,-1,39
 238 25 238 25 274 25 c 256,20,21
EndSplineSet
EndChar

StartChar: p
Encoding: 112 112 83
Width: 584
Flags: W
LayerCount: 2
Back
Fore
SplineSet
305 22 m 0,0,1
 344 22 344 22 370 41.5 c 128,-1,2
 396 61 396 61 411.5 91 c 128,-1,3
 427 121 427 121 433.5 156.5 c 128,-1,4
 440 192 440 192 440 224 c 0,5,6
 440 259 440 259 432 293 c 128,-1,7
 424 327 424 327 406.5 354 c 128,-1,8
 389 381 389 381 362 398 c 128,-1,9
 335 415 335 415 297 415 c 256,10,11
 259 415 259 415 234 399.5 c 128,-1,12
 209 384 209 384 189 363 c 1,13,-1
 189 95 l 1,14,15
 194 82 194 82 204 69 c 128,-1,16
 214 56 214 56 229 45.5 c 128,-1,17
 244 35 244 35 263 28.5 c 128,-1,18
 282 22 282 22 305 22 c 0,0,1
191 403 m 1,19,20
 219 429 219 429 258 447 c 128,-1,21
 297 465 297 465 333 465 c 0,22,23
 378 465 378 465 416.5 447.5 c 128,-1,24
 455 430 455 430 483 398.5 c 128,-1,25
 511 367 511 367 526.5 323.5 c 128,-1,26
 542 280 542 280 542 227 c 0,27,28
 542 173 542 173 522.5 128.5 c 128,-1,29
 503 84 503 84 471 53 c 128,-1,30
 439 22 439 22 398 5 c 128,-1,31
 357 -12 357 -12 313 -12 c 0,32,33
 268 -12 268 -12 240.5 -2.5 c 128,-1,34
 213 7 213 7 193 19 c 1,35,-1
 189 19 l 1,36,-1
 189 -102 l 2,37,38
 189 -115 189 -115 189.5 -127.5 c 128,-1,39
 190 -140 190 -140 195 -149.5 c 128,-1,40
 200 -159 200 -159 210.5 -164.5 c 128,-1,41
 221 -170 221 -170 241 -170 c 0,42,43
 250 -170 250 -170 256.5 -171.5 c 128,-1,44
 263 -173 263 -173 264 -188 c 0,45,46
 264 -196 264 -196 260 -202 c 128,-1,47
 256 -208 256 -208 248 -208 c 0,48,49
 219 -206 219 -206 194.5 -205.5 c 128,-1,50
 170 -205 170 -205 143 -205 c 256,51,52
 116 -205 116 -205 92 -205.5 c 128,-1,53
 68 -206 68 -206 39 -208 c 0,54,55
 31 -208 31 -208 27 -202 c 128,-1,56
 23 -196 23 -196 23 -188 c 0,57,58
 24 -173 24 -173 30.5 -171.5 c 128,-1,59
 37 -170 37 -170 46 -170 c 0,60,61
 66 -170 66 -170 76.5 -164.5 c 128,-1,62
 87 -159 87 -159 92 -149.5 c 128,-1,63
 97 -140 97 -140 97.5 -127.5 c 128,-1,64
 98 -115 98 -115 98 -102 c 2,65,-1
 98 332 l 2,66,67
 98 345 98 345 98 357.5 c 128,-1,68
 98 370 98 370 93.5 379.5 c 128,-1,69
 89 389 89 389 78.5 394.5 c 128,-1,70
 68 400 68 400 47 400 c 0,71,72
 38 400 38 400 30.5 402.5 c 128,-1,73
 23 405 23 405 23 420 c 0,74,75
 23 426 23 426 27 431 c 128,-1,76
 31 436 31 436 39 438 c 0,77,78
 73 443 73 443 95 448.5 c 128,-1,79
 117 454 117 454 131 458.5 c 128,-1,80
 145 463 145 463 153 466 c 128,-1,81
 161 469 161 469 169 470 c 256,82,83
 177 471 177 471 182.5 467 c 128,-1,84
 188 463 188 463 188 451 c 2,85,-1
 188 403 l 1,86,-1
 191 403 l 1,19,20
EndSplineSet
EndChar

StartChar: q
Encoding: 113 113 84
Width: 559
Flags: W
LayerCount: 2
Back
Fore
SplineSet
390 355 m 1,0,1
 386 367 386 367 377.5 380 c 128,-1,2
 369 393 369 393 355.5 404.5 c 128,-1,3
 342 416 342 416 322.5 423 c 128,-1,4
 303 430 303 430 277 430 c 0,5,6
 248 430 248 430 223.5 415.5 c 128,-1,7
 199 401 199 401 181 374 c 128,-1,8
 163 347 163 347 152.5 308.5 c 128,-1,9
 142 270 142 270 142 222 c 0,10,11
 142 186 142 186 150 153 c 128,-1,12
 158 120 158 120 175 94 c 128,-1,13
 192 68 192 68 220 52.5 c 128,-1,14
 248 37 248 37 287 37 c 0,15,16
 323 37 323 37 347.5 51 c 128,-1,17
 372 65 372 65 390 84 c 1,18,-1
 390 355 l 1,0,1
482 -102 m 2,19,20
 482 -115 482 -115 482.5 -127.5 c 128,-1,21
 483 -140 483 -140 487.5 -149.5 c 128,-1,22
 492 -159 492 -159 502.5 -164.5 c 128,-1,23
 513 -170 513 -170 533 -170 c 0,24,25
 543 -170 543 -170 549 -171.5 c 128,-1,26
 555 -173 555 -173 556 -188 c 0,27,28
 556 -196 556 -196 552 -202 c 128,-1,29
 548 -208 548 -208 540 -208 c 0,30,31
 511 -206 511 -206 486.5 -205.5 c 128,-1,32
 462 -205 462 -205 435 -205 c 0,33,34
 409 -205 409 -205 384.5 -205.5 c 128,-1,35
 360 -206 360 -206 331 -208 c 0,36,37
 323 -208 323 -208 319.5 -202 c 128,-1,38
 316 -196 316 -196 316 -188 c 0,39,40
 317 -173 317 -173 323 -171.5 c 128,-1,41
 329 -170 329 -170 339 -170 c 0,42,43
 358 -170 358 -170 368.5 -164.5 c 128,-1,44
 379 -159 379 -159 384 -149.5 c 128,-1,45
 389 -140 389 -140 389.5 -127.5 c 128,-1,46
 390 -115 390 -115 390 -102 c 2,47,-1
 390 45 l 1,48,-1
 387 45 l 1,49,50
 369 25 369 25 334.5 6.5 c 128,-1,51
 300 -12 300 -12 254 -12 c 0,52,53
 210 -12 210 -12 171.5 5 c 128,-1,54
 133 22 133 22 104 54 c 128,-1,55
 75 86 75 86 58 131 c 128,-1,56
 41 176 41 176 41 232 c 0,57,58
 41 281 41 281 60 324 c 128,-1,59
 79 367 79 367 111 398 c 128,-1,60
 143 429 143 429 185 447 c 128,-1,61
 227 465 227 465 272 465 c 0,62,63
 301 465 301 465 323.5 460 c 128,-1,64
 346 455 346 455 363.5 448 c 128,-1,65
 381 441 381 441 393.5 433 c 128,-1,66
 406 425 406 425 416 420 c 1,67,-1
 421 420 l 1,68,69
 425 427 425 427 429 437 c 128,-1,70
 433 447 433 447 438 455.5 c 128,-1,71
 443 464 443 464 449 470 c 128,-1,72
 455 476 455 476 463 476 c 0,73,74
 472 476 472 476 477 470 c 128,-1,75
 482 464 482 464 482 456 c 2,76,-1
 482 -102 l 2,19,20
EndSplineSet
EndChar

StartChar: r
Encoding: 114 114 85
Width: 425
Flags: W
LayerCount: 2
Back
Fore
SplineSet
108 332 m 2,0,1
 108 345 108 345 108 357.5 c 128,-1,2
 108 370 108 370 103.5 379.5 c 128,-1,3
 99 389 99 389 88.5 394.5 c 128,-1,4
 78 400 78 400 57 400 c 0,5,6
 48 400 48 400 40.5 402.5 c 128,-1,7
 33 405 33 405 33 420 c 0,8,9
 33 426 33 426 37 431 c 128,-1,10
 41 436 41 436 49 438 c 0,11,12
 83 443 83 443 105 448.5 c 128,-1,13
 127 454 127 454 141 458.5 c 128,-1,14
 155 463 155 463 163 466 c 128,-1,15
 171 469 171 469 179 470 c 256,16,17
 187 471 187 471 192.5 467 c 128,-1,18
 198 463 198 463 198 451 c 2,19,-1
 198 389 l 1,20,-1
 201 389 l 1,21,22
 235 422 235 422 271 443.5 c 128,-1,23
 307 465 307 465 337 465 c 0,24,25
 355 465 355 465 368.5 458 c 128,-1,26
 382 451 382 451 391 439.5 c 128,-1,27
 400 428 400 428 404.5 413.5 c 128,-1,28
 409 399 409 399 409 384 c 0,29,30
 409 371 409 371 405 358.5 c 128,-1,31
 401 346 401 346 393 335.5 c 128,-1,32
 385 325 385 325 373 318.5 c 128,-1,33
 361 312 361 312 345 312 c 256,34,35
 329 312 329 312 319.5 318.5 c 128,-1,36
 310 325 310 325 309 328 c 0,37,38
 309 330 309 330 318.5 340 c 128,-1,39
 328 350 328 350 328 365 c 0,40,41
 328 383 328 383 318.5 394 c 128,-1,42
 309 405 309 405 293 405 c 0,43,44
 276 405 276 405 249.5 388 c 128,-1,45
 223 371 223 371 199 347 c 1,46,-1
 199 103 l 2,47,48
 199 90 199 90 199 77.5 c 128,-1,49
 199 65 199 65 203.5 55.5 c 128,-1,50
 208 46 208 46 219 40.5 c 128,-1,51
 230 35 230 35 251 35 c 0,52,53
 260 35 260 35 266.5 33.5 c 128,-1,54
 273 32 273 32 274 17 c 0,55,56
 274 9 274 9 270 3 c 128,-1,57
 266 -3 266 -3 258 -3 c 0,58,59
 229 -1 229 -1 204.5 -0.5 c 128,-1,60
 180 0 180 0 153 0 c 256,61,62
 126 0 126 0 102 -0.5 c 128,-1,63
 78 -1 78 -1 49 -3 c 0,64,65
 41 -3 41 -3 37 3 c 128,-1,66
 33 9 33 9 33 17 c 0,67,68
 35 32 35 32 41 33.5 c 128,-1,69
 47 35 47 35 57 35 c 0,70,71
 78 35 78 35 88.5 40.5 c 128,-1,72
 99 46 99 46 103.5 55.5 c 128,-1,73
 108 65 108 65 108 77.5 c 128,-1,74
 108 90 108 90 108 103 c 2,75,-1
 108 332 l 2,0,1
EndSplineSet
EndChar

StartChar: s
Encoding: 115 115 86
Width: 443
Flags: W
LayerCount: 2
Back
Fore
SplineSet
218 -12 m 0,0,1
 179 -12 179 -12 146 -5 c 128,-1,2
 113 2 113 2 89 15.5 c 128,-1,3
 65 29 65 29 51.5 49 c 128,-1,4
 38 69 38 69 38 95 c 0,5,6
 38 124 38 124 55.5 142 c 128,-1,7
 73 160 73 160 101 160 c 0,8,9
 119 160 119 160 130.5 150.5 c 128,-1,10
 142 141 142 141 142 137 c 0,11,12
 142 135 142 135 138.5 132 c 128,-1,13
 135 129 135 129 130.5 123.5 c 128,-1,14
 126 118 126 118 122.5 109.5 c 128,-1,15
 119 101 119 101 119 90 c 0,16,17
 119 61 119 61 145.5 43 c 128,-1,18
 172 25 172 25 226 25 c 0,19,20
 273 25 273 25 299.5 45 c 128,-1,21
 326 65 326 65 326 103 c 0,22,23
 326 133 326 133 306 149 c 128,-1,24
 286 165 286 165 256 176 c 128,-1,25
 226 187 226 187 191 196 c 128,-1,26
 156 205 156 205 126 221 c 128,-1,27
 96 237 96 237 76 263 c 128,-1,28
 56 289 56 289 56 333 c 0,29,30
 56 366 56 366 72 391 c 128,-1,31
 88 416 88 416 114 432.5 c 128,-1,32
 140 449 140 449 172 457 c 128,-1,33
 204 465 204 465 237 465 c 0,34,35
 264 465 264 465 290.5 459 c 128,-1,36
 317 453 317 453 337.5 441 c 128,-1,37
 358 429 358 429 370.5 411.5 c 128,-1,38
 383 394 383 394 383 370 c 0,39,40
 383 344 383 344 367 324.5 c 128,-1,41
 351 305 351 305 323 305 c 0,42,43
 305 305 305 305 293.5 314.5 c 128,-1,44
 282 324 282 324 282 328 c 0,45,46
 282 329 282 329 286.5 332.5 c 128,-1,47
 291 336 291 336 296.5 341.5 c 128,-1,48
 302 347 302 347 306.5 355.5 c 128,-1,49
 311 364 311 364 311 375 c 0,50,51
 310 389 310 389 302.5 400 c 128,-1,52
 295 411 295 411 283 418 c 128,-1,53
 271 425 271 425 256 428.5 c 128,-1,54
 241 432 241 432 225 432 c 0,55,56
 207 432 207 432 190 427.5 c 128,-1,57
 173 423 173 423 159.5 415 c 128,-1,58
 146 407 146 407 138 394.5 c 128,-1,59
 130 382 130 382 130 366 c 0,60,61
 130 344 130 344 137 330 c 128,-1,62
 144 316 144 316 159 305.5 c 128,-1,63
 174 295 174 295 197.5 286.5 c 128,-1,64
 221 278 221 278 254 268 c 0,65,66
 287 257 287 257 314 246.5 c 128,-1,67
 341 236 341 236 360.5 221.5 c 128,-1,68
 380 207 380 207 391 185.5 c 128,-1,69
 402 164 402 164 402 133 c 0,70,71
 402 101 402 101 388 74.5 c 128,-1,72
 374 48 374 48 349.5 29 c 128,-1,73
 325 10 325 10 291.5 -1 c 128,-1,74
 258 -12 258 -12 218 -12 c 0,0,1
EndSplineSet
EndChar

StartChar: t
Encoding: 116 116 87
Width: 379
Flags: W
LayerCount: 2
Back
Fore
SplineSet
188 414 m 1,0,-1
 188 110 l 2,1,2
 188 95 188 95 191 81.5 c 128,-1,3
 194 68 194 68 200.5 57 c 128,-1,4
 207 46 207 46 218 39.5 c 128,-1,5
 229 33 229 33 246 33 c 0,6,7
 257 33 257 33 270.5 34.5 c 128,-1,8
 284 36 284 36 301 44 c 0,9,10
 305 46 305 46 309 47.5 c 128,-1,11
 313 49 313 49 317 49 c 0,12,13
 325 49 325 49 329 42.5 c 128,-1,14
 333 36 333 36 336 29 c 0,15,16
 339 20 339 20 331 15 c 0,17,18
 300 -5 300 -5 274 -11 c 128,-1,19
 248 -17 248 -17 216 -17 c 0,20,21
 193 -17 193 -17 172 -8.5 c 128,-1,22
 151 0 151 0 134 17 c 128,-1,23
 117 34 117 34 107 60.5 c 128,-1,24
 97 87 97 87 97 122 c 2,25,-1
 97 416 l 1,26,-1
 39 414 l 2,27,28
 32 414 32 414 28.5 419.5 c 128,-1,29
 25 425 25 425 25 432 c 0,30,31
 25 440 25 440 28.5 446.5 c 128,-1,32
 32 453 32 453 39 455 c 0,33,34
 67 460 67 460 84 471 c 128,-1,35
 101 482 101 482 112 496.5 c 128,-1,36
 123 511 123 511 130 529.5 c 128,-1,37
 137 548 137 548 144 568 c 0,38,39
 147 576 147 576 152.5 578.5 c 128,-1,40
 158 581 158 581 166 581 c 0,41,42
 172 581 172 581 179.5 578 c 128,-1,43
 187 575 187 575 187 567 c 2,44,-1
 180 453 l 1,45,-1
 297 460 l 2,46,47
 306 461 306 461 309 455 c 128,-1,48
 312 449 312 449 312 441 c 0,49,50
 312 430 312 430 308.5 420.5 c 128,-1,51
 305 411 305 411 300 411 c 2,52,-1
 188 414 l 1,0,-1
EndSplineSet
EndChar

StartChar: u
Encoding: 117 117 88
Width: 596
Flags: W
LayerCount: 2
Back
Fore
SplineSet
494 95 m 2,0,1
 494 36 494 36 573 36 c 0,2,3
 584 36 584 36 587 30 c 128,-1,4
 590 24 590 24 590 17 c 0,5,6
 590 3 590 3 573 0 c 2,7,-1
 412 -11 l 2,8,9
 404 -11 404 -11 403.5 -5 c 128,-1,10
 403 1 403 1 403 9 c 2,11,-1
 403 65 l 1,12,-1
 401 65 l 1,13,14
 386 51 386 51 371 37.5 c 128,-1,15
 356 24 356 24 337.5 13 c 128,-1,16
 319 2 319 2 295 -5 c 128,-1,17
 271 -12 271 -12 240 -12 c 0,18,19
 171 -12 171 -12 131.5 29 c 128,-1,20
 92 70 92 70 92 137 c 2,21,-1
 92 322 l 2,22,23
 92 335 92 335 92 347.5 c 128,-1,24
 92 360 92 360 87.5 369.5 c 128,-1,25
 83 379 83 379 72.5 384.5 c 128,-1,26
 62 390 62 390 41 390 c 0,27,28
 32 390 32 390 24.5 392.5 c 128,-1,29
 17 395 17 395 17 410 c 0,30,31
 17 416 17 416 21 421 c 128,-1,32
 25 426 25 426 33 428 c 0,33,34
 67 433 67 433 89 438.5 c 128,-1,35
 111 444 111 444 125 448.5 c 128,-1,36
 139 453 139 453 147.5 456 c 128,-1,37
 156 459 156 459 164 460 c 256,38,39
 172 461 172 461 177.5 457 c 128,-1,40
 183 453 183 453 183 441 c 2,41,-1
 183 138 l 2,42,43
 183 113 183 113 191.5 95 c 128,-1,44
 200 77 200 77 213.5 65.5 c 128,-1,45
 227 54 227 54 244.5 48.5 c 128,-1,46
 262 43 262 43 279 43 c 0,47,48
 305 43 305 43 326 50.5 c 128,-1,49
 347 58 347 58 363 69 c 128,-1,50
 379 80 379 80 389 91.5 c 128,-1,51
 399 103 399 103 403 112 c 1,52,-1
 403 322 l 2,53,54
 403 335 403 335 403 347.5 c 128,-1,55
 403 360 403 360 398.5 369.5 c 128,-1,56
 394 379 394 379 383.5 384.5 c 128,-1,57
 373 390 373 390 352 390 c 0,58,59
 343 390 343 390 335.5 392.5 c 128,-1,60
 328 395 328 395 328 410 c 0,61,62
 328 416 328 416 332 421 c 128,-1,63
 336 426 336 426 344 428 c 0,64,65
 378 433 378 433 400 438.5 c 128,-1,66
 422 444 422 444 436 448.5 c 128,-1,67
 450 453 450 453 458.5 456 c 128,-1,68
 467 459 467 459 475 460 c 256,69,70
 483 461 483 461 488.5 457 c 128,-1,71
 494 453 494 453 494 441 c 2,72,-1
 494 95 l 2,0,1
EndSplineSet
EndChar

StartChar: v
Encoding: 118 118 89
Width: 551
Flags: W
LayerCount: 2
Back
Fore
SplineSet
252 -10 m 1,0,1
 233 31 233 31 214.5 79 c 128,-1,2
 196 127 196 127 177.5 174.5 c 128,-1,3
 159 222 159 222 141 266 c 128,-1,4
 123 310 123 310 107 345 c 0,5,6
 99 363 99 363 91.5 376 c 128,-1,7
 84 389 84 389 75.5 397.5 c 128,-1,8
 67 406 67 406 56.5 410.5 c 128,-1,9
 46 415 46 415 31 417 c 0,10,11
 18 419 18 419 13.5 420.5 c 128,-1,12
 9 422 9 422 8 436 c 0,13,14
 7 453 7 453 17.5 454.5 c 128,-1,15
 28 456 28 456 43 457 c 0,16,17
 104 460 104 460 139 439 c 128,-1,18
 174 418 174 418 197 368 c 0,19,20
 207 344 207 344 220 312 c 128,-1,21
 233 280 233 280 246.5 245 c 128,-1,22
 260 210 260 210 274 175.5 c 128,-1,23
 288 141 288 141 302 113 c 1,24,-1
 305 113 l 1,25,-1
 404 375 l 2,26,27
 414 404 414 404 405 411 c 128,-1,28
 396 418 396 418 366 418 c 0,29,30
 357 418 357 418 351 419.5 c 128,-1,31
 345 421 345 421 344 436 c 0,32,33
 344 442 344 442 347 449 c 128,-1,34
 350 456 350 456 358 456 c 0,35,36
 387 454 387 454 408 453.5 c 128,-1,37
 429 453 429 453 455 453 c 0,38,39
 468 453 468 453 477 453 c 128,-1,40
 486 453 486 453 495 453.5 c 128,-1,41
 504 454 504 454 513.5 454.5 c 128,-1,42
 523 455 523 455 538 456 c 0,43,44
 546 456 546 456 549.5 449 c 128,-1,45
 553 442 553 442 553 436 c 0,46,47
 552 421 552 421 545.5 419.5 c 128,-1,48
 539 418 539 418 531 418 c 0,49,50
 498 418 498 418 478.5 406 c 128,-1,51
 459 394 459 394 445 359 c 2,52,-1
 371 175 l 2,53,54
 357 140 357 140 343.5 107 c 128,-1,55
 330 74 330 74 319 48 c 128,-1,56
 308 22 308 22 301 6 c 128,-1,57
 294 -10 294 -10 294 -10 c 1,58,-1
 252 -10 l 1,0,1
EndSplineSet
EndChar

StartChar: w
Encoding: 119 119 90
Width: 798
Flags: W
LayerCount: 2
Back
Fore
SplineSet
290 109 m 1,0,-1
 293 109 l 1,1,2
 300 130 300 130 308.5 159.5 c 128,-1,3
 317 189 317 189 326.5 222 c 128,-1,4
 336 255 336 255 345.5 290 c 128,-1,5
 355 325 355 325 363.5 356 c 128,-1,6
 372 387 372 387 379 412.5 c 128,-1,7
 386 438 386 438 390 453 c 1,8,-1
 438 453 l 1,9,-1
 575 109 l 1,10,-1
 578 109 l 1,11,12
 588 140 588 140 598 177.5 c 128,-1,13
 608 215 608 215 617 251 c 128,-1,14
 626 287 626 287 634 319.5 c 128,-1,15
 642 352 642 352 648 375 c 0,16,17
 654 402 654 402 646 410 c 128,-1,18
 638 418 638 418 610 418 c 0,19,20
 601 418 601 418 595 419.5 c 128,-1,21
 589 421 589 421 588 436 c 0,22,23
 588 442 588 442 591 449 c 128,-1,24
 594 456 594 456 602 456 c 0,25,26
 631 454 631 454 652.5 453.5 c 128,-1,27
 674 453 674 453 700 453 c 0,28,29
 713 453 713 453 722.5 453 c 128,-1,30
 732 453 732 453 740.5 453.5 c 128,-1,31
 749 454 749 454 759 454.5 c 128,-1,32
 769 455 769 455 784 456 c 0,33,34
 792 456 792 456 795.5 449 c 128,-1,35
 799 442 799 442 799 436 c 0,36,37
 798 421 798 421 791.5 419.5 c 128,-1,38
 785 418 785 418 777 418 c 0,39,40
 741 418 741 418 720.5 406 c 128,-1,41
 700 394 700 394 691 359 c 2,42,-1
 580 -10 l 1,43,-1
 521 -10 l 1,44,-1
 394 317 l 1,45,-1
 295 -10 l 1,46,-1
 236 -10 l 1,47,-1
 108 345 l 2,48,49
 100 363 100 363 92.5 376 c 128,-1,50
 85 389 85 389 76.5 397.5 c 128,-1,51
 68 406 68 406 57.5 410.5 c 128,-1,52
 47 415 47 415 32 417 c 0,53,54
 19 419 19 419 14.5 420.5 c 128,-1,55
 10 422 10 422 9 436 c 0,56,57
 8 453 8 453 18.5 454.5 c 128,-1,58
 29 456 29 456 44 457 c 0,59,60
 105 460 105 460 140 439 c 128,-1,61
 175 418 175 418 198 368 c 1,62,-1
 290 109 l 1,0,-1
EndSplineSet
EndChar

StartChar: x
Encoding: 120 120 91
Width: 541
Flags: W
LayerCount: 2
Back
Fore
SplineSet
434 94 m 0,0,1
 450 71 450 71 469 53 c 128,-1,2
 488 35 488 35 514 35 c 0,3,4
 523 35 523 35 529.5 33.5 c 128,-1,5
 536 32 536 32 537 17 c 0,6,7
 537 9 537 9 533 3 c 128,-1,8
 529 -3 529 -3 521 -3 c 0,9,10
 492 -1 492 -1 472 -0.5 c 128,-1,11
 452 0 452 0 425 0 c 256,12,13
 398 0 398 0 373 -0.5 c 128,-1,14
 348 -1 348 -1 319 -3 c 0,15,16
 311 -3 311 -3 307 3 c 128,-1,17
 303 9 303 9 303 17 c 0,18,19
 304 32 304 32 310.5 33.5 c 128,-1,20
 317 35 317 35 326 35 c 0,21,22
 346 35 346 35 347 46.5 c 128,-1,23
 348 58 348 58 333 78 c 2,24,-1
 255 182 l 1,25,-1
 169 78 l 2,26,27
 148 51 148 51 153.5 43 c 128,-1,28
 159 35 159 35 194 35 c 0,29,30
 203 35 203 35 209 33.5 c 128,-1,31
 215 32 215 32 216 17 c 0,32,33
 216 11 216 11 213 4 c 128,-1,34
 210 -3 210 -3 202 -3 c 0,35,36
 188 -2 188 -2 178 -1.5 c 128,-1,37
 168 -1 168 -1 159 -0.5 c 128,-1,38
 150 0 150 0 140.5 0 c 128,-1,39
 131 0 131 0 118 0 c 256,40,41
 105 0 105 0 95.5 0 c 128,-1,42
 86 0 86 0 76.5 -0.5 c 128,-1,43
 67 -1 67 -1 57 -1.5 c 128,-1,44
 47 -2 47 -2 32 -3 c 0,45,46
 24 -3 24 -3 20.5 4 c 128,-1,47
 17 11 17 11 17 17 c 0,48,49
 18 32 18 32 24.5 33.5 c 128,-1,50
 31 35 31 35 39 35 c 0,51,52
 55 35 55 35 66 38.5 c 128,-1,53
 77 42 77 42 86 49.5 c 128,-1,54
 95 57 95 57 104.5 68 c 128,-1,55
 114 79 114 79 126 94 c 0,56,57
 145 115 145 115 171.5 148 c 128,-1,58
 198 181 198 181 227 216 c 1,59,-1
 113 377 l 2,60,61
 100 394 100 394 86 403 c 128,-1,62
 72 412 72 412 50 417 c 0,63,64
 37 419 37 419 32.5 420.5 c 128,-1,65
 28 422 28 422 27 436 c 0,66,67
 26 453 26 453 36.5 454.5 c 128,-1,68
 47 456 47 456 62 457 c 0,69,70
 164 462 164 462 210 401 c 0,71,72
 221 387 221 387 239 356.5 c 128,-1,73
 257 326 257 326 286 288 c 1,74,-1
 353 375 l 2,75,76
 362 388 362 388 367 396.5 c 128,-1,77
 372 405 372 405 370 409.5 c 128,-1,78
 368 414 368 414 358 416 c 128,-1,79
 348 418 348 418 328 418 c 0,80,81
 319 418 319 418 313 419.5 c 128,-1,82
 307 421 307 421 306 436 c 0,83,84
 306 442 306 442 309 449 c 128,-1,85
 312 456 312 456 320 456 c 0,86,87
 334 455 334 455 344 454.5 c 128,-1,88
 354 454 354 454 363 453.5 c 128,-1,89
 372 453 372 453 381.5 453 c 128,-1,90
 391 453 391 453 404 453 c 256,91,92
 417 453 417 453 426.5 453 c 128,-1,93
 436 453 436 453 445.5 453.5 c 128,-1,94
 455 454 455 454 465 454.5 c 128,-1,95
 475 455 475 455 490 456 c 0,96,97
 498 456 498 456 501.5 449 c 128,-1,98
 505 442 505 442 505 436 c 0,99,100
 504 421 504 421 497.5 420 c 128,-1,101
 491 419 491 419 483 418 c 0,102,103
 468 417 468 417 457.5 414 c 128,-1,104
 447 411 447 411 438 404.5 c 128,-1,105
 429 398 429 398 419 387 c 128,-1,106
 409 376 409 376 396 359 c 0,107,108
 383 344 383 344 361.5 316 c 128,-1,109
 340 288 340 288 312 254 c 1,110,111
 345 211 345 211 377.5 168.5 c 128,-1,112
 410 126 410 126 434 94 c 0,0,1
EndSplineSet
EndChar

StartChar: y
Encoding: 121 121 92
Width: 552
Flags: W
LayerCount: 2
Back
Fore
SplineSet
296 -10 m 0,0,1
 283 -42 283 -42 264.5 -78 c 128,-1,2
 246 -114 246 -114 221.5 -145.5 c 128,-1,3
 197 -177 197 -177 166 -197.5 c 128,-1,4
 135 -218 135 -218 97 -218 c 0,5,6
 75 -218 75 -218 55 -210.5 c 128,-1,7
 35 -203 35 -203 20 -190 c 128,-1,8
 5 -177 5 -177 -4 -160 c 128,-1,9
 -13 -143 -13 -143 -13 -124 c 0,10,11
 -12 -97 -12 -97 -1 -83 c 128,-1,12
 10 -69 10 -69 22 -62.5 c 128,-1,13
 34 -56 34 -56 43.5 -55.5 c 128,-1,14
 53 -55 53 -55 51 -55 c 1,15,16
 70 -55 70 -55 80 -62.5 c 128,-1,17
 90 -70 90 -70 90 -75 c 0,18,19
 90 -77 90 -77 82.5 -84.5 c 128,-1,20
 75 -92 75 -92 74 -111 c 0,21,22
 73 -129 73 -129 85 -146 c 128,-1,23
 97 -163 97 -163 122 -163 c 0,24,25
 143 -163 143 -163 161 -150.5 c 128,-1,26
 179 -138 179 -138 194.5 -119.5 c 128,-1,27
 210 -101 210 -101 222.5 -78 c 128,-1,28
 235 -55 235 -55 245 -34 c 0,29,30
 252 -12 252 -12 244 12 c 0,31,32
 226 52 226 52 208.5 97 c 128,-1,33
 191 142 191 142 174.5 186.5 c 128,-1,34
 158 231 158 231 141.5 272 c 128,-1,35
 125 313 125 313 110 345 c 0,36,37
 102 363 102 363 94.5 376 c 128,-1,38
 87 389 87 389 78.5 397.5 c 128,-1,39
 70 406 70 406 59.5 410.5 c 128,-1,40
 49 415 49 415 34 417 c 0,41,42
 21 419 21 419 16.5 420.5 c 128,-1,43
 12 422 12 422 11 436 c 0,44,45
 10 453 10 453 20.5 454.5 c 128,-1,46
 31 456 31 456 46 457 c 0,47,48
 107 460 107 460 142 439 c 128,-1,49
 177 418 177 418 200 368 c 0,50,51
 210 344 210 344 222.5 312 c 128,-1,52
 235 280 235 280 248.5 245 c 128,-1,53
 262 210 262 210 276 175.5 c 128,-1,54
 290 141 290 141 304 113 c 1,55,-1
 307 113 l 1,56,-1
 405 375 l 2,57,58
 415 404 415 404 406 411 c 128,-1,59
 397 418 397 418 367 418 c 0,60,61
 358 418 358 418 352 419.5 c 128,-1,62
 346 421 346 421 345 436 c 0,63,64
 345 442 345 442 348 449 c 128,-1,65
 351 456 351 456 359 456 c 0,66,67
 388 454 388 454 409 453.5 c 128,-1,68
 430 453 430 453 456 453 c 0,69,70
 469 453 469 453 478 453 c 128,-1,71
 487 453 487 453 496 453.5 c 128,-1,72
 505 454 505 454 514.5 454.5 c 128,-1,73
 524 455 524 455 539 456 c 0,74,75
 547 456 547 456 550.5 449 c 128,-1,76
 554 442 554 442 554 436 c 0,77,78
 553 421 553 421 546.5 419.5 c 128,-1,79
 540 418 540 418 532 418 c 0,80,81
 499 418 499 418 479.5 406 c 128,-1,82
 460 394 460 394 446 359 c 2,83,-1
 372 177 l 2,84,85
 358 142 358 142 344.5 109 c 128,-1,86
 331 76 331 76 320.5 50 c 128,-1,87
 310 24 310 24 303 7.5 c 128,-1,88
 296 -9 296 -9 296 -10 c 0,0,1
EndSplineSet
EndChar

StartChar: z
Encoding: 122 122 93
Width: 502
Flags: W
LayerCount: 2
Back
Fore
SplineSet
310 32 m 2,0,1
 334 32 334 32 350.5 36 c 128,-1,2
 367 40 367 40 378.5 52.5 c 128,-1,3
 390 65 390 65 397 87.5 c 128,-1,4
 404 110 404 110 409 148 c 0,5,6
 410 156 410 156 419 160 c 128,-1,7
 428 164 428 164 439 164 c 0,8,9
 447 164 447 164 454 159.5 c 128,-1,10
 461 155 461 155 461 146 c 2,11,-1
 444 23 l 2,12,13
 442 8 442 8 436 4 c 128,-1,14
 430 0 430 0 421 0 c 2,15,-1
 132 0 l 2,16,17
 119 0 119 0 110 0 c 128,-1,18
 101 0 101 0 93 -0.5 c 128,-1,19
 85 -1 85 -1 75.5 -1.5 c 128,-1,20
 66 -2 66 -2 52 -3 c 0,21,22
 44 -3 44 -3 40 3 c 128,-1,23
 36 9 36 9 36 17 c 0,24,25
 37 32 37 32 43 33.5 c 128,-1,26
 49 35 49 35 59 35 c 0,27,28
 73 35 73 35 82.5 36.5 c 128,-1,29
 92 38 92 38 99 43 c 128,-1,30
 106 48 106 48 112.5 57.5 c 128,-1,31
 119 67 119 67 127 83 c 2,32,-1
 265 370 l 2,33,34
 274 388 274 388 276 398.5 c 128,-1,35
 278 409 278 409 274.5 414 c 128,-1,36
 271 419 271 419 262 420 c 128,-1,37
 253 421 253 421 239 421 c 2,38,-1
 197 421 l 2,39,40
 173 421 173 421 156.5 417 c 128,-1,41
 140 413 140 413 128.5 400.5 c 128,-1,42
 117 388 117 388 110 365 c 128,-1,43
 103 342 103 342 98 305 c 0,44,45
 97 297 97 297 88 293 c 128,-1,46
 79 289 79 289 68 289 c 0,47,48
 60 289 60 289 53 293.5 c 128,-1,49
 46 298 46 298 46 307 c 2,50,-1
 63 430 l 2,51,52
 65 445 65 445 71 449 c 128,-1,53
 77 453 77 453 86 453 c 2,54,-1
 360 453 l 2,55,56
 373 453 373 453 382 453 c 128,-1,57
 391 453 391 453 399.5 453.5 c 128,-1,58
 408 454 408 454 417 454.5 c 128,-1,59
 426 455 426 455 441 456 c 0,60,61
 449 456 449 456 453 450 c 128,-1,62
 457 444 457 444 457 436 c 0,63,64
 456 421 456 421 449.5 419.5 c 128,-1,65
 443 418 443 418 434 418 c 0,66,67
 420 418 420 418 410.5 416.5 c 128,-1,68
 401 415 401 415 393.5 410 c 128,-1,69
 386 405 386 405 379.5 395.5 c 128,-1,70
 373 386 373 386 365 370 c 2,71,-1
 228 83 l 2,72,73
 219 65 219 65 217 54.5 c 128,-1,74
 215 44 215 44 218.5 39 c 128,-1,75
 222 34 222 34 231 33 c 128,-1,76
 240 32 240 32 254 32 c 2,77,-1
 310 32 l 2,0,1
EndSplineSet
EndChar

StartChar: braceleft
Encoding: 123 123 94
Width: 286
Flags: W
LayerCount: 2
Back
Fore
SplineSet
249 -218 m 0,0,1
 225 -217 225 -217 199.5 -212 c 128,-1,2
 174 -207 174 -207 153 -192.5 c 128,-1,3
 132 -178 132 -178 118.5 -152 c 128,-1,4
 105 -126 105 -126 105 -84 c 0,5,6
 105 -57 105 -57 106 -26.5 c 128,-1,7
 107 4 107 4 108.5 34.5 c 128,-1,8
 110 65 110 65 111.5 94.5 c 128,-1,9
 113 124 113 124 113 149 c 0,10,11
 113 162 113 162 111 176 c 128,-1,12
 109 190 109 190 101 202 c 128,-1,13
 93 214 93 214 76 223 c 128,-1,14
 59 232 59 232 28 235 c 0,15,16
 23 236 23 236 20 242.5 c 128,-1,17
 17 249 17 249 17 254 c 256,18,19
 17 259 17 259 20 265.5 c 128,-1,20
 23 272 23 272 28 273 c 0,21,22
 59 276 59 276 76 285 c 128,-1,23
 93 294 93 294 101 306 c 128,-1,24
 109 318 109 318 111 332 c 128,-1,25
 113 346 113 346 113 359 c 0,26,27
 113 384 113 384 111.5 413.5 c 128,-1,28
 110 443 110 443 108.5 473.5 c 128,-1,29
 107 504 107 504 106 533.5 c 128,-1,30
 105 563 105 563 105 588 c 0,31,32
 105 631 105 631 118 657.5 c 128,-1,33
 131 684 131 684 151.5 699 c 128,-1,34
 172 714 172 714 197 720 c 128,-1,35
 222 726 222 726 246 727 c 0,36,37
 254 727 254 727 259.5 726 c 128,-1,38
 265 725 265 725 266 711 c 0,39,40
 266 705 266 705 262.5 700 c 128,-1,41
 259 695 259 695 251 693 c 0,42,43
 225 688 225 688 209.5 679 c 128,-1,44
 194 670 194 670 186 657.5 c 128,-1,45
 178 645 178 645 175.5 629.5 c 128,-1,46
 173 614 173 614 173 598 c 0,47,48
 173 573 173 573 175 544.5 c 128,-1,49
 177 516 177 516 180 486.5 c 128,-1,50
 183 457 183 457 185 428.5 c 128,-1,51
 187 400 187 400 187 375 c 0,52,53
 187 333 187 333 167.5 299.5 c 128,-1,54
 148 266 148 266 100 256 c 1,55,-1
 100 252 l 1,56,57
 147 242 147 242 167 209 c 128,-1,58
 187 176 187 176 187 133 c 0,59,60
 187 107 187 107 185 78.5 c 128,-1,61
 183 50 183 50 180 21 c 128,-1,62
 177 -8 177 -8 175 -35.5 c 128,-1,63
 173 -63 173 -63 173 -87 c 0,64,65
 173 -104 173 -104 175.5 -119.5 c 128,-1,66
 178 -135 178 -135 185.5 -148 c 128,-1,67
 193 -161 193 -161 207.5 -170 c 128,-1,68
 222 -179 222 -179 246 -184 c 0,69,70
 254 -186 254 -186 259.5 -187.5 c 128,-1,71
 265 -189 265 -189 266 -200 c 0,72,73
 267 -207 267 -207 263 -212.5 c 128,-1,74
 259 -218 259 -218 249 -218 c 0,0,1
EndSplineSet
EndChar

StartChar: bar
Encoding: 124 124 95
Width: 212
Flags: W
LayerCount: 2
Back
Fore
SplineSet
134 -195 m 2,0,1
 134 -206 134 -206 125 -212 c 128,-1,2
 116 -218 116 -218 106 -218 c 0,3,4
 95 -218 95 -218 86.5 -212 c 128,-1,5
 78 -206 78 -206 78 -195 c 2,6,-1
 78 705 l 2,7,8
 78 716 78 716 86.5 722 c 128,-1,9
 95 728 95 728 106 728 c 0,10,11
 116 728 116 728 125 722 c 128,-1,12
 134 716 134 716 134 705 c 2,13,-1
 134 -195 l 2,0,1
EndSplineSet
EndChar

StartChar: braceright
Encoding: 125 125 96
Width: 286
Flags: W
LayerCount: 2
Back
Fore
SplineSet
37 -218 m 0,0,1
 27 -218 27 -218 23 -212.5 c 128,-1,2
 19 -207 19 -207 20 -200 c 0,3,4
 21 -189 21 -189 26.5 -187.5 c 128,-1,5
 32 -186 32 -186 40 -184 c 0,6,7
 64 -179 64 -179 78.5 -170 c 128,-1,8
 93 -161 93 -161 100.5 -148 c 128,-1,9
 108 -135 108 -135 110.5 -119.5 c 128,-1,10
 113 -104 113 -104 113 -87 c 0,11,12
 113 -63 113 -63 111 -35.5 c 128,-1,13
 109 -8 109 -8 106 21 c 128,-1,14
 103 50 103 50 101 78.5 c 128,-1,15
 99 107 99 107 99 133 c 0,16,17
 99 176 99 176 119 209 c 128,-1,18
 139 242 139 242 186 252 c 1,19,-1
 186 256 l 1,20,21
 138 266 138 266 118.5 299.5 c 128,-1,22
 99 333 99 333 99 375 c 0,23,24
 99 400 99 400 101 428.5 c 128,-1,25
 103 457 103 457 106 486.5 c 128,-1,26
 109 516 109 516 111 544.5 c 128,-1,27
 113 573 113 573 113 598 c 0,28,29
 113 614 113 614 110.5 629.5 c 128,-1,30
 108 645 108 645 100 657.5 c 128,-1,31
 92 670 92 670 76.5 679 c 128,-1,32
 61 688 61 688 35 693 c 0,33,34
 27 695 27 695 23.5 700 c 128,-1,35
 20 705 20 705 20 711 c 0,36,37
 21 725 21 725 26.5 726 c 128,-1,38
 32 727 32 727 40 727 c 0,39,40
 64 726 64 726 89 720 c 128,-1,41
 114 714 114 714 134.5 699 c 128,-1,42
 155 684 155 684 168 657.5 c 128,-1,43
 181 631 181 631 181 588 c 0,44,45
 181 563 181 563 179.5 533.5 c 128,-1,46
 178 504 178 504 176.5 473.5 c 128,-1,47
 175 443 175 443 174 413.5 c 128,-1,48
 173 384 173 384 173 359 c 0,49,50
 173 346 173 346 174.5 332 c 128,-1,51
 176 318 176 318 184.5 306 c 128,-1,52
 193 294 193 294 210 285 c 128,-1,53
 227 276 227 276 258 273 c 0,54,55
 263 272 263 272 266 265.5 c 128,-1,56
 269 259 269 259 269 254 c 256,57,58
 269 249 269 249 266 242.5 c 128,-1,59
 263 236 263 236 258 235 c 0,60,61
 227 232 227 232 210 223 c 128,-1,62
 193 214 193 214 184.5 202 c 128,-1,63
 176 190 176 190 174.5 176 c 128,-1,64
 173 162 173 162 173 149 c 0,65,66
 173 124 173 124 174 94.5 c 128,-1,67
 175 65 175 65 176.5 34.5 c 128,-1,68
 178 4 178 4 179.5 -26.5 c 128,-1,69
 181 -57 181 -57 181 -84 c 0,70,71
 181 -126 181 -126 167.5 -152 c 128,-1,72
 154 -178 154 -178 133 -192.5 c 128,-1,73
 112 -207 112 -207 86.5 -212 c 128,-1,74
 61 -217 61 -217 37 -218 c 0,0,1
EndSplineSet
EndChar

StartChar: asciitilde
Encoding: 126 126 97
Width: 556
Flags: W
LayerCount: 2
Back
Fore
SplineSet
86 182 m 0,0,1
 81 170 81 170 74 167 c 128,-1,2
 67 164 67 164 58 167 c 0,3,4
 50 170 50 170 45.5 175.5 c 128,-1,5
 41 181 41 181 44 191 c 0,6,7
 53 214 53 214 66.5 239 c 128,-1,8
 80 264 80 264 99 285 c 128,-1,9
 118 306 118 306 142 319.5 c 128,-1,10
 166 333 166 333 195 333 c 0,11,12
 225 333 225 333 253 323 c 128,-1,13
 281 313 281 313 307.5 300.5 c 128,-1,14
 334 288 334 288 358 278 c 128,-1,15
 382 268 382 268 403 268 c 0,16,17
 423 268 423 268 440.5 282.5 c 128,-1,18
 458 297 458 297 473 333 c 0,19,20
 478 344 478 344 485 346 c 128,-1,21
 492 348 492 348 500 346 c 256,22,23
 508 344 508 344 512.5 339 c 128,-1,24
 517 334 517 334 514 323 c 0,25,26
 507 301 507 301 493.5 276 c 128,-1,27
 480 251 480 251 461 230.5 c 128,-1,28
 442 210 442 210 417.5 197 c 128,-1,29
 393 184 393 184 364 185 c 0,30,31
 326 186 326 186 299 196.5 c 128,-1,32
 272 207 272 207 250 219 c 128,-1,33
 228 231 228 231 208.5 240.5 c 128,-1,34
 189 250 189 250 165 250 c 0,35,36
 133 250 133 250 117 229.5 c 128,-1,37
 101 209 101 209 86 182 c 0,0,1
EndSplineSet
EndChar

StartChar: exclamdown
Encoding: 161 161 99
Width: 242
Flags: W
LayerCount: 2
Back
Fore
SplineSet
122 465 m 0,0,1
 149 465 149 465 167 447.5 c 128,-1,2
 185 430 185 430 185 401 c 0,3,4
 185 375 185 375 167 356.5 c 128,-1,5
 149 338 149 338 121 338 c 256,6,7
 93 338 93 338 75 356.5 c 128,-1,8
 57 375 57 375 57 401 c 0,9,10
 57 430 57 430 75 447.5 c 128,-1,11
 93 465 93 465 122 465 c 0,0,1
97 232 m 0,12,13
 97 240 97 240 104.5 243 c 128,-1,14
 112 246 112 246 121 246 c 0,15,16
 129 246 129 246 137 242.5 c 128,-1,17
 145 239 145 239 145 232 c 0,18,19
 145 201 145 201 149.5 158 c 128,-1,20
 154 115 154 115 160 67.5 c 128,-1,21
 166 20 166 20 170.5 -28 c 128,-1,22
 175 -76 175 -76 175 -117 c 0,23,24
 175 -168 175 -168 163.5 -201 c 128,-1,25
 152 -234 152 -234 121 -234 c 256,26,27
 90 -234 90 -234 78.5 -201 c 128,-1,28
 67 -168 67 -168 67 -117 c 0,29,30
 67 -76 67 -76 71.5 -28 c 128,-1,31
 76 20 76 20 82 67.5 c 128,-1,32
 88 115 88 115 92.5 158 c 128,-1,33
 97 201 97 201 97 232 c 0,12,13
EndSplineSet
EndChar

StartChar: cent
Encoding: 162 162 100
Width: 490
Flags: W
LayerCount: 2
Back
Fore
SplineSet
272 -52 m 2,0,1
 272 -77 272 -77 250 -77 c 0,2,3
 238 -77 238 -77 233.5 -70.5 c 128,-1,4
 229 -64 229 -64 229 -52 c 2,5,-1
 229 -10 l 1,6,7
 141 1 141 1 92.5 64 c 128,-1,8
 44 127 44 127 44 227 c 0,9,10
 45 272 45 272 59.5 310 c 128,-1,11
 74 348 74 348 98.5 378 c 128,-1,12
 123 408 123 408 156.5 428.5 c 128,-1,13
 190 449 190 449 229 458 c 1,14,-1
 229 485 l 2,15,16
 229 496 229 496 233.5 503 c 128,-1,17
 238 510 238 510 250 510 c 0,18,19
 272 510 272 510 272 485 c 2,20,-1
 272 464 l 1,21,-1
 287 464 l 2,22,23
 306 464 306 464 331.5 460.5 c 128,-1,24
 357 457 357 457 380 446 c 128,-1,25
 403 435 403 435 419.5 414.5 c 128,-1,26
 436 394 436 394 436 360 c 0,27,28
 436 331 436 331 418.5 307 c 128,-1,29
 401 283 401 283 368 283 c 0,30,31
 346 283 346 283 334 294 c 128,-1,32
 322 305 322 305 322 310 c 0,33,34
 322 311 322 311 327 315 c 128,-1,35
 332 319 332 319 338.5 326 c 128,-1,36
 345 333 345 333 350 342.5 c 128,-1,37
 355 352 355 352 355 365 c 0,38,39
 355 397 355 397 332 412 c 128,-1,40
 309 427 309 427 280 428 c 2,41,-1
 272 428 l 1,42,-1
 272 38 l 1,43,-1
 285 38 l 2,44,45
 330 38 330 38 359.5 56.5 c 128,-1,46
 389 75 389 75 414 113 c 0,47,48
 418 118 418 118 424 118 c 0,49,50
 431 118 431 118 438.5 112 c 128,-1,51
 446 106 446 106 446 98 c 0,52,53
 446 94 446 94 443 90 c 0,54,55
 411 45 411 45 365.5 18 c 128,-1,56
 320 -9 320 -9 272 -11 c 1,57,-1
 272 -52 l 2,0,1
146 230 m 0,58,59
 146 167 146 167 167.5 119.5 c 128,-1,60
 189 72 189 72 229 51 c 1,61,-1
 229 419 l 1,62,63
 202 409 202 409 186 388.5 c 128,-1,64
 170 368 170 368 161 342 c 128,-1,65
 152 316 152 316 149 286.5 c 128,-1,66
 146 257 146 257 146 230 c 0,58,59
EndSplineSet
EndChar

StartChar: sterling
Encoding: 163 163 101
Width: 545
Flags: W
LayerCount: 2
Back
Fore
SplineSet
64 0 m 2,0,1
 54 0 54 0 49 7.5 c 128,-1,2
 44 15 44 15 44 27 c 0,3,4
 44 38 44 38 49 47 c 128,-1,5
 54 56 54 56 64 60 c 0,6,7
 91 69 91 69 108.5 87.5 c 128,-1,8
 126 106 126 106 136 130.5 c 128,-1,9
 146 155 146 155 149.5 183.5 c 128,-1,10
 153 212 153 212 153 241 c 1,11,-1
 100 241 l 2,12,13
 91 241 91 241 86 246.5 c 128,-1,14
 81 252 81 252 81 259 c 256,15,16
 81 266 81 266 86 272.5 c 128,-1,17
 91 279 91 279 99 280 c 2,18,-1
 153 280 l 1,19,20
 153 287 153 287 152 299.5 c 128,-1,21
 151 312 151 312 149.5 325.5 c 128,-1,22
 148 339 148 339 147 352.5 c 128,-1,23
 146 366 146 366 146 376 c 0,24,25
 146 416 146 416 160 451 c 128,-1,26
 174 486 174 486 198.5 511.5 c 128,-1,27
 223 537 223 537 257.5 551.5 c 128,-1,28
 292 566 292 566 334 566 c 0,29,30
 349 566 349 566 371.5 563 c 128,-1,31
 394 560 394 560 415.5 551.5 c 128,-1,32
 437 543 437 543 455 526.5 c 128,-1,33
 473 510 473 510 480 483 c 0,34,35
 484 466 484 466 481.5 448.5 c 128,-1,36
 479 431 479 431 470.5 416.5 c 128,-1,37
 462 402 462 402 447.5 393 c 128,-1,38
 433 384 433 384 414 384 c 0,39,40
 392 384 392 384 380 395 c 128,-1,41
 368 406 368 406 368 411 c 0,42,43
 368 412 368 412 373 416 c 128,-1,44
 378 420 378 420 384.5 427 c 128,-1,45
 391 434 391 434 396 443.5 c 128,-1,46
 401 453 401 453 401 466 c 0,47,48
 401 497 401 497 380.5 512.5 c 128,-1,49
 360 528 360 528 332 529 c 0,50,51
 319 529 319 529 302.5 525 c 128,-1,52
 286 521 286 521 271 509.5 c 128,-1,53
 256 498 256 498 245.5 476.5 c 128,-1,54
 235 455 235 455 235 420 c 0,55,56
 235 409 235 409 235.5 390 c 128,-1,57
 236 371 236 371 237 350.5 c 128,-1,58
 238 330 238 330 238.5 311 c 128,-1,59
 239 292 239 292 239 280 c 1,60,-1
 382 280 l 2,61,62
 390 279 390 279 395 272.5 c 128,-1,63
 400 266 400 266 400 259 c 256,64,65
 400 252 400 252 395 246.5 c 128,-1,66
 390 241 390 241 381 241 c 2,67,-1
 239 241 l 1,68,69
 239 189 239 189 214.5 145.5 c 128,-1,70
 190 102 190 102 142 71 c 1,71,-1
 445 71 l 2,72,73
 465 71 465 71 479 66.5 c 128,-1,74
 493 62 493 62 493 36 c 0,75,76
 493 19 493 19 485 9.5 c 128,-1,77
 477 0 477 0 458 0 c 2,78,-1
 64 0 l 2,0,1
EndSplineSet
EndChar

StartChar: currency
Encoding: 164 164 102
Width: 608
Flags: W
LayerCount: 2
Back
Fore
SplineSet
105 27 m 2,0,1
 97 20 97 20 88.5 22 c 128,-1,2
 80 24 80 24 73 32 c 0,3,4
 67 39 67 39 66.5 48 c 128,-1,5
 66 57 66 57 72 63 c 2,6,-1
 137 127 l 1,7,8
 132 133 132 133 124.5 145 c 128,-1,9
 117 157 117 157 110 174 c 128,-1,10
 103 191 103 191 97.5 212.5 c 128,-1,11
 92 234 92 234 92 260 c 0,12,13
 92 288 92 288 101.5 323.5 c 128,-1,14
 111 359 111 359 137 392 c 1,15,16
 120 407 120 407 104 423.5 c 128,-1,17
 88 440 88 440 71 457 c 0,18,19
 65 463 65 463 66 472 c 128,-1,20
 67 481 67 481 73 488 c 0,21,22
 80 496 80 496 88.5 498 c 128,-1,23
 97 500 97 500 105 493 c 2,24,-1
 173 424 l 1,25,26
 180 430 180 430 191.5 438 c 128,-1,27
 203 446 203 446 219 453.5 c 128,-1,28
 235 461 235 461 256 466.5 c 128,-1,29
 277 472 277 472 303 472 c 0,30,31
 331 472 331 472 352.5 466.5 c 128,-1,32
 374 461 374 461 390.5 453.5 c 128,-1,33
 407 446 407 446 418 437.5 c 128,-1,34
 429 429 429 429 435 424 c 1,35,-1
 503 493 l 2,36,37
 511 500 511 500 519.5 498 c 128,-1,38
 528 496 528 496 535 488 c 0,39,40
 541 481 541 481 542 472 c 128,-1,41
 543 463 543 463 537 457 c 2,42,-1
 471 392 l 1,43,44
 497 357 497 357 506.5 322.5 c 128,-1,45
 516 288 516 288 516 260 c 0,46,47
 516 231 516 231 506 195.5 c 128,-1,48
 496 160 496 160 470 127 c 1,49,-1
 536 63 l 2,50,51
 542 57 542 57 541.5 48 c 128,-1,52
 541 39 541 39 535 32 c 0,53,54
 528 24 528 24 519.5 22 c 128,-1,55
 511 20 511 20 503 27 c 2,56,-1
 435 95 l 1,57,58
 417 81 417 81 398 71.5 c 128,-1,59
 379 62 379 62 361 56.5 c 128,-1,60
 343 51 343 51 328 49 c 128,-1,61
 313 47 313 47 303 47 c 0,62,63
 277 47 277 47 256 52.5 c 128,-1,64
 235 58 235 58 218.5 65.5 c 128,-1,65
 202 73 202 73 190.5 81.5 c 128,-1,66
 179 90 179 90 173 95 c 1,67,-1
 105 27 l 2,0,1
139 260 m 256,68,69
 139 224 139 224 151.5 193 c 128,-1,70
 164 162 164 162 186.5 138.5 c 128,-1,71
 209 115 209 115 238.5 101.5 c 128,-1,72
 268 88 268 88 303 88 c 0,73,74
 337 88 337 88 367.5 101.5 c 128,-1,75
 398 115 398 115 421 138.5 c 128,-1,76
 444 162 444 162 457 193 c 128,-1,77
 470 224 470 224 470 260 c 0,78,79
 470 295 470 295 457 326 c 128,-1,80
 444 357 444 357 421 380 c 128,-1,81
 398 403 398 403 367.5 416.5 c 128,-1,82
 337 430 337 430 303 430 c 0,83,84
 268 430 268 430 238.5 417 c 128,-1,85
 209 404 209 404 186.5 381 c 128,-1,86
 164 358 164 358 151.5 327 c 128,-1,87
 139 296 139 296 139 260 c 256,68,69
EndSplineSet
EndChar

StartChar: yen
Encoding: 165 165 103
Width: 633
Flags: W
LayerCount: 2
Back
Fore
SplineSet
359 103 m 1,0,-1
 359 102 l 2,1,2
 359 90 359 90 360.5 78 c 128,-1,3
 362 66 362 66 367.5 56.5 c 128,-1,4
 373 47 373 47 384 41 c 128,-1,5
 395 35 395 35 416 35 c 0,6,7
 425 35 425 35 431 33.5 c 128,-1,8
 437 32 437 32 438 16 c 0,9,10
 438 9 438 9 434.5 3 c 128,-1,11
 431 -3 431 -3 423 -3 c 0,12,13
 394 -1 394 -1 369 -0.5 c 128,-1,14
 344 0 344 0 317 0 c 0,15,16
 266 0 266 0 209 -3 c 0,17,18
 200 -3 200 -3 196.5 3 c 128,-1,19
 193 9 193 9 193 16 c 0,20,21
 194 32 194 32 200.5 33.5 c 128,-1,22
 207 35 207 35 215 35 c 0,23,24
 236 35 236 35 247.5 41 c 128,-1,25
 259 47 259 47 264.5 56.5 c 128,-1,26
 270 66 270 66 271 78 c 128,-1,27
 272 90 272 90 272 102 c 2,28,-1
 272 103 l 1,29,-1
 175 103 l 2,30,31
 166 103 166 103 161 108.5 c 128,-1,32
 156 114 156 114 156 121 c 256,33,34
 156 128 156 128 161 134.5 c 128,-1,35
 166 141 166 141 174 142 c 2,36,-1
 272 142 l 1,37,-1
 272 203 l 1,38,-1
 175 203 l 2,39,40
 166 203 166 203 161 208.5 c 128,-1,41
 156 214 156 214 156 221 c 256,42,43
 156 228 156 228 161 234.5 c 128,-1,44
 166 241 166 241 174 242 c 2,45,-1
 261 242 l 1,46,47
 251 263 251 263 235.5 293.5 c 128,-1,48
 220 324 220 324 203.5 354.5 c 128,-1,49
 187 385 187 385 172 411.5 c 128,-1,50
 157 438 157 438 149 452 c 0,51,52
 131 485 131 485 109.5 499.5 c 128,-1,53
 88 514 88 514 59 520 c 0,54,55
 46 522 46 522 41.5 524 c 128,-1,56
 37 526 37 526 37 540 c 0,57,58
 37 555 37 555 47.5 556.5 c 128,-1,59
 58 558 58 558 72 558 c 0,60,61
 133 558 133 558 172 539 c 128,-1,62
 211 520 211 520 241 466 c 0,63,64
 267 419 267 419 291.5 374.5 c 128,-1,65
 316 330 316 330 341 283 c 1,66,-1
 344 283 l 1,67,-1
 442 475 l 2,68,69
 457 505 457 505 445 511.5 c 128,-1,70
 433 518 433 518 403 518 c 0,71,72
 394 518 394 518 388 519.5 c 128,-1,73
 382 521 382 521 381 537 c 0,74,75
 381 544 381 544 384.5 550 c 128,-1,76
 388 556 388 556 396 556 c 0,77,78
 425 554 425 554 445.5 553.5 c 128,-1,79
 466 553 466 553 492 553 c 0,80,81
 505 553 505 553 515 553 c 128,-1,82
 525 553 525 553 534.5 553.5 c 128,-1,83
 544 554 544 554 555 554.5 c 128,-1,84
 566 555 566 555 580 556 c 0,85,86
 589 556 589 556 592.5 550 c 128,-1,87
 596 544 596 544 596 537 c 0,88,89
 595 521 595 521 589 519.5 c 128,-1,90
 583 518 583 518 574 518 c 0,91,92
 540 518 540 518 519.5 504 c 128,-1,93
 499 490 499 490 482 459 c 2,94,-1
 383 272 l 2,95,96
 378 262 378 262 374 255 c 128,-1,97
 370 248 370 248 368 242 c 1,98,-1
 457 242 l 2,99,100
 465 241 465 241 470 234.5 c 128,-1,101
 475 228 475 228 475 221 c 256,102,103
 475 214 475 214 470 208.5 c 128,-1,104
 465 203 465 203 456 203 c 2,105,-1
 359 203 l 1,106,-1
 359 187 l 1,107,-1
 359 142 l 1,108,-1
 457 142 l 2,109,110
 465 141 465 141 470 134.5 c 128,-1,111
 475 128 475 128 475 121 c 256,112,113
 475 114 475 114 470 108.5 c 128,-1,114
 465 103 465 103 456 103 c 2,115,-1
 359 103 l 1,0,-1
EndSplineSet
EndChar

StartChar: brokenbar
Encoding: 166 166 104
Width: 212
Flags: W
LayerCount: 2
Back
Fore
SplineSet
134 129 m 2,0,-1
 134 -195 l 2,1,2
 134 -206 134 -206 125 -212 c 128,-1,3
 116 -218 116 -218 106 -218 c 0,4,5
 95 -218 95 -218 86.5 -212 c 128,-1,6
 78 -206 78 -206 78 -195 c 2,7,-1
 78 129 l 2,8,9
 78 140 78 140 86.5 146 c 128,-1,10
 95 152 95 152 106 152 c 0,11,12
 116 152 116 152 125 146 c 128,-1,13
 134 140 134 140 134 129 c 2,0,-1
134 368 m 2,14,15
 134 357 134 357 125.5 351 c 128,-1,16
 117 345 117 345 106 345 c 0,17,18
 96 345 96 345 87 351 c 128,-1,19
 78 357 78 357 78 368 c 2,20,-1
 78 705 l 2,21,22
 78 716 78 716 86.5 722 c 128,-1,23
 95 728 95 728 106 728 c 0,24,25
 116 728 116 728 125 722 c 128,-1,26
 134 716 134 716 134 705 c 2,27,-1
 134 368 l 2,14,15
EndSplineSet
EndChar

StartChar: section
Encoding: 167 167 105
Width: 469
Flags: W
LayerCount: 2
Back
Fore
SplineSet
193 538 m 0,0,1
 198 516 198 516 216.5 487 c 128,-1,2
 235 458 235 458 259.5 423.5 c 128,-1,3
 284 389 284 389 311 349.5 c 128,-1,4
 338 310 338 310 361 267 c 128,-1,5
 384 224 384 224 399 178.5 c 128,-1,6
 414 133 414 133 414 87 c 0,7,8
 414 36 414 36 398.5 -8 c 128,-1,9
 383 -52 383 -52 353.5 -84 c 128,-1,10
 324 -116 324 -116 282 -134.5 c 128,-1,11
 240 -153 240 -153 187 -153 c 0,12,13
 169 -153 169 -153 148.5 -147.5 c 128,-1,14
 128 -142 128 -142 111 -130.5 c 128,-1,15
 94 -119 94 -119 82.5 -100.5 c 128,-1,16
 71 -82 71 -82 71 -55 c 0,17,18
 71 -25 71 -25 88.5 0.5 c 128,-1,19
 106 26 106 26 141 26 c 0,20,21
 161 26 161 26 172 17.5 c 128,-1,22
 183 9 183 9 185 4 c 0,23,24
 185 2 185 2 180.5 -2.5 c 128,-1,25
 176 -7 176 -7 170.5 -14 c 128,-1,26
 165 -21 165 -21 160.5 -30.5 c 128,-1,27
 156 -40 156 -40 156 -52 c 0,28,29
 156 -67 156 -67 162 -79 c 128,-1,30
 168 -91 168 -91 178 -98.5 c 128,-1,31
 188 -106 188 -106 200 -110 c 128,-1,32
 212 -114 212 -114 223 -114 c 0,33,34
 251 -114 251 -114 265 -96.5 c 128,-1,35
 279 -79 279 -79 279 -56 c 0,36,37
 279 -31 279 -31 262.5 -2 c 128,-1,38
 246 27 246 27 221 63.5 c 128,-1,39
 196 100 196 100 166.5 142.5 c 128,-1,40
 137 185 137 185 112 230.5 c 128,-1,41
 87 276 87 276 70.5 324.5 c 128,-1,42
 54 373 54 373 54 422 c 0,43,44
 54 484 54 484 74 527.5 c 128,-1,45
 94 571 94 571 126 598 c 128,-1,46
 158 625 158 625 199.5 637.5 c 128,-1,47
 241 650 241 650 283 650 c 0,48,49
 301 650 301 650 321 644.5 c 128,-1,50
 341 639 341 639 358.5 627 c 128,-1,51
 376 615 376 615 387.5 596.5 c 128,-1,52
 399 578 399 578 399 552 c 0,53,54
 399 522 399 522 381.5 496.5 c 128,-1,55
 364 471 364 471 329 471 c 0,56,57
 309 471 309 471 298 479.5 c 128,-1,58
 287 488 287 488 285 493 c 0,59,60
 285 494 285 494 289.5 498.5 c 128,-1,61
 294 503 294 503 299.5 510 c 128,-1,62
 305 517 305 517 309.5 526.5 c 128,-1,63
 314 536 314 536 314 548 c 0,64,65
 314 564 314 564 307.5 575.5 c 128,-1,66
 301 587 301 587 291.5 595 c 128,-1,67
 282 603 282 603 270 607 c 128,-1,68
 258 611 258 611 247 611 c 0,69,70
 220 611 220 611 205.5 594.5 c 128,-1,71
 191 578 191 578 191 555 c 0,72,73
 191 551 191 551 191.5 547 c 128,-1,74
 192 543 192 543 193 538 c 0,0,1
139 564 m 1,75,76
 122 536 122 536 115.5 503.5 c 128,-1,77
 109 471 109 471 109 442 c 0,78,79
 109 382 109 382 135.5 319 c 128,-1,80
 162 256 162 256 198 194.5 c 128,-1,81
 234 133 234 133 270.5 73.5 c 128,-1,82
 307 14 307 14 327 -40 c 1,83,84
 343 -10 343 -10 349.5 22 c 128,-1,85
 356 54 356 54 356 82 c 0,86,87
 356 144 356 144 328 203 c 128,-1,88
 300 262 300 262 263 321 c 128,-1,89
 226 380 226 380 190.5 440 c 128,-1,90
 155 500 155 500 139 564 c 1,75,76
EndSplineSet
EndChar

StartChar: dieresis
Encoding: 168 168 106
Width: 387
Flags: W
LayerCount: 2
Back
Fore
SplineSet
114 667 m 256,0,1
 140 667 140 667 157 650 c 128,-1,2
 174 633 174 633 174 607 c 0,3,4
 174 583 174 583 156.5 565 c 128,-1,5
 139 547 139 547 113 547 c 256,6,7
 87 547 87 547 69 565 c 128,-1,8
 51 583 51 583 51 607 c 0,9,10
 51 633 51 633 69.5 650 c 128,-1,11
 88 667 88 667 114 667 c 256,0,1
287 667 m 256,12,13
 313 667 313 667 330 650 c 128,-1,14
 347 633 347 633 347 607 c 0,15,16
 347 583 347 583 329.5 565 c 128,-1,17
 312 547 312 547 286 547 c 256,18,19
 260 547 260 547 242 565 c 128,-1,20
 224 583 224 583 224 607 c 0,21,22
 224 633 224 633 242.5 650 c 128,-1,23
 261 667 261 667 287 667 c 256,12,13
EndSplineSet
EndChar

StartChar: copyright
Encoding: 169 169 107
Width: 828
Flags: W
LayerCount: 2
Back
Fore
SplineSet
582 208 m 0,0,1
 556 154 556 154 516 132.5 c 128,-1,2
 476 111 476 111 416 111 c 0,3,4
 378 111 378 111 344.5 125 c 128,-1,5
 311 139 311 139 285.5 164.5 c 128,-1,6
 260 190 260 190 245 227 c 128,-1,7
 230 264 230 264 230 311 c 0,8,9
 230 357 230 357 244.5 394.5 c 128,-1,10
 259 432 259 432 285 459 c 128,-1,11
 311 486 311 486 347 500.5 c 128,-1,12
 383 515 383 515 426 515 c 0,13,14
 436 515 436 515 457.5 512.5 c 128,-1,15
 479 510 479 510 501.5 501 c 128,-1,16
 524 492 524 492 541.5 475 c 128,-1,17
 559 458 559 458 562 429 c 0,18,19
 562 402 562 402 546 381 c 128,-1,20
 530 360 530 360 501 360 c 0,21,22
 478 360 478 360 469 370.5 c 128,-1,23
 460 381 460 381 460 386 c 0,24,25
 460 389 460 389 465 393 c 128,-1,26
 470 397 470 397 476 402.5 c 128,-1,27
 482 408 482 408 487 416 c 128,-1,28
 492 424 492 424 492 436 c 0,29,30
 492 459 492 459 473 471 c 128,-1,31
 454 483 454 483 425 484 c 0,32,33
 371 482 371 482 339 439 c 128,-1,34
 307 396 307 396 307 314 c 0,35,36
 307 279 307 279 316.5 249 c 128,-1,37
 326 219 326 219 343 196.5 c 128,-1,38
 360 174 360 174 384 161 c 128,-1,39
 408 148 408 148 438 148 c 0,40,41
 480 148 480 148 505.5 170 c 128,-1,42
 531 192 531 192 545 221 c 0,43,44
 553 235 553 235 562 235 c 0,45,46
 570 235 570 235 577 229.5 c 128,-1,47
 584 224 584 224 584 217 c 0,48,49
 584 214 584 214 582 208 c 0,0,1
751 174 m 0,50,51
 722 108 722 108 671.5 58 c 128,-1,52
 621 8 621 8 554.5 -21 c 128,-1,53
 488 -50 488 -50 414 -50 c 256,54,55
 340 -50 340 -50 273 -21 c 128,-1,56
 206 8 206 8 156 58 c 128,-1,57
 106 108 106 108 76.5 174.5 c 128,-1,58
 47 241 47 241 47 317 c 256,59,60
 47 393 47 393 76.5 459.5 c 128,-1,61
 106 526 106 526 156 576 c 128,-1,62
 206 626 206 626 273 655 c 128,-1,63
 340 684 340 684 414 684 c 256,64,65
 488 684 488 684 554.5 655 c 128,-1,66
 621 626 621 626 671.5 576 c 128,-1,67
 722 526 722 526 751.5 459.5 c 128,-1,68
 781 393 781 393 781 317 c 256,69,70
 781 241 781 241 751 174 c 0,50,51
541 17 m 0,71,72
 600 43 600 43 644 87.5 c 128,-1,73
 688 132 688 132 713 191 c 128,-1,74
 738 250 738 250 738 317 c 256,75,76
 738 384 738 384 713 443 c 128,-1,77
 688 502 688 502 644 546 c 128,-1,78
 600 590 600 590 541 616 c 128,-1,79
 482 642 482 642 414 642 c 256,80,81
 346 642 346 642 287 616 c 128,-1,82
 228 590 228 590 184 546 c 128,-1,83
 140 502 140 502 115 443 c 128,-1,84
 90 384 90 384 90 317 c 256,85,86
 90 250 90 250 115 191 c 128,-1,87
 140 132 140 132 184 87.5 c 128,-1,88
 228 43 228 43 287 17.5 c 128,-1,89
 346 -8 346 -8 414 -8 c 256,90,91
 482 -8 482 -8 541 17 c 0,71,72
EndSplineSet
EndChar

StartChar: ordfeminine
Encoding: 170 170 108
Width: 396
Flags: W
LayerCount: 2
Back
Fore
SplineSet
248 464 m 1,0,1
 181 455 181 455 149 440.5 c 128,-1,2
 117 426 117 426 117 390 c 0,3,4
 117 367 117 367 128.5 352 c 128,-1,5
 140 337 140 337 160 337 c 0,6,7
 197 337 197 337 222.5 362 c 128,-1,8
 248 387 248 387 248 425 c 2,9,-1
 248 464 l 1,0,1
246 488 m 1,10,-1
 246 541 l 2,11,12
 246 571 246 571 230.5 589 c 128,-1,13
 215 607 215 607 177 607 c 0,14,15
 158 607 158 607 142 595.5 c 128,-1,16
 126 584 126 584 126 562 c 0,17,18
 126 549 126 549 133.5 540 c 128,-1,19
 141 531 141 531 148 526 c 0,20,21
 148 524 148 524 139.5 514.5 c 128,-1,22
 131 505 131 505 116 505 c 0,23,24
 92 505 92 505 79 522 c 128,-1,25
 66 539 66 539 66 560 c 0,26,27
 66 580 66 580 76.5 594 c 128,-1,28
 87 608 87 608 103.5 616.5 c 128,-1,29
 120 625 120 625 140.5 629 c 128,-1,30
 161 633 161 633 181 633 c 0,31,32
 205 633 205 633 228 629.5 c 128,-1,33
 251 626 251 626 270 614.5 c 128,-1,34
 289 603 289 603 300.5 582.5 c 128,-1,35
 312 562 312 562 312 529 c 2,36,-1
 312 367 l 2,37,38
 312 362 312 362 314 355 c 128,-1,39
 316 348 316 348 319.5 342 c 128,-1,40
 323 336 323 336 329.5 332 c 128,-1,41
 336 328 336 328 346 328 c 0,42,43
 353 328 353 328 356.5 326 c 128,-1,44
 360 324 360 324 360 314 c 0,45,46
 360 308 360 308 355.5 304.5 c 128,-1,47
 351 301 351 301 344.5 298.5 c 128,-1,48
 338 296 338 296 331 295.5 c 128,-1,49
 324 295 324 295 319 295 c 0,50,51
 294 295 294 295 274 308.5 c 128,-1,52
 254 322 254 322 248 345 c 1,53,54
 239 332 239 332 225.5 322.5 c 128,-1,55
 212 313 212 313 195.5 307 c 128,-1,56
 179 301 179 301 162.5 298 c 128,-1,57
 146 295 146 295 131 295 c 0,58,59
 93 295 93 295 67.5 320 c 128,-1,60
 42 345 42 345 42 381 c 0,61,62
 42 415 42 415 63 435.5 c 128,-1,63
 84 456 84 456 113.5 467 c 128,-1,64
 143 478 143 478 175 481.5 c 128,-1,65
 207 485 207 485 230 487 c 2,66,-1
 246 488 l 1,10,-1
EndSplineSet
EndChar

StartChar: guillemotleft
Encoding: 171 171 109
Width: 474
Flags: W
LayerCount: 2
Back
Fore
SplineSet
402 394 m 0,0,1
 409 397 409 397 416.5 391 c 128,-1,2
 424 385 424 385 422 374 c 0,3,4
 420 366 420 366 407 342.5 c 128,-1,5
 394 319 394 319 366 282 c 2,6,-1
 325 234 l 1,7,8
 367 174 367 174 393.5 140.5 c 128,-1,9
 420 107 420 107 422 94 c 0,10,11
 423 79 423 79 409.5 76.5 c 128,-1,12
 396 74 396 74 387 83 c 0,13,14
 356 115 356 115 325 146.5 c 128,-1,15
 294 178 294 178 253 212 c 0,16,17
 240 224 240 224 240 235 c 256,18,19
 240 246 240 246 253 257 c 0,20,21
 272 275 272 275 297 298.5 c 128,-1,22
 322 322 322 322 344 343 c 128,-1,23
 366 364 366 364 382.5 378.5 c 128,-1,24
 399 393 399 393 402 394 c 0,0,1
202 394 m 0,25,26
 209 397 209 397 216.5 391 c 128,-1,27
 224 385 224 385 222 374 c 0,28,29
 220 366 220 366 207 342.5 c 128,-1,30
 194 319 194 319 166 282 c 2,31,-1
 125 234 l 1,32,33
 167 174 167 174 193.5 140.5 c 128,-1,34
 220 107 220 107 222 94 c 0,35,36
 223 79 223 79 209.5 76.5 c 128,-1,37
 196 74 196 74 187 83 c 0,38,39
 156 115 156 115 125 146.5 c 128,-1,40
 94 178 94 178 53 212 c 0,41,42
 40 224 40 224 40 235 c 256,43,44
 40 246 40 246 53 257 c 0,45,46
 72 275 72 275 97 298.5 c 128,-1,47
 122 322 122 322 144 343 c 128,-1,48
 166 364 166 364 182.5 378.5 c 128,-1,49
 199 393 199 393 202 394 c 0,25,26
EndSplineSet
EndChar

StartChar: logicalnot
Encoding: 172 172 110
Width: 632
Flags: W
LayerCount: 2
Back
Fore
SplineSet
500 291 m 1,0,1
 537 292 537 292 549.5 279 c 128,-1,2
 562 266 562 266 562 223 c 2,3,-1
 562 101 l 2,4,5
 562 90 562 90 552.5 84 c 128,-1,6
 543 78 543 78 533 78 c 0,7,8
 522 78 522 78 512.5 84 c 128,-1,9
 503 90 503 90 503 101 c 2,10,-1
 503 225 l 2,11,12
 503 237 503 237 493 237 c 2,13,-1
 90 237 l 2,14,15
 80 237 80 237 74 244.5 c 128,-1,16
 68 252 68 252 68 262 c 256,17,18
 68 272 68 272 74 281.5 c 128,-1,19
 80 291 80 291 90 291 c 2,20,-1
 500 291 l 1,21,-1
 500 291 l 1,0,1
EndSplineSet
EndChar

StartChar: uni00AD
Encoding: 173 173 111
Width: 456
Flags: W
LayerCount: 2
Back
Fore
SplineSet
85 209 m 2,0,1
 74 209 74 209 68 217.5 c 128,-1,2
 62 226 62 226 62 236 c 0,3,4
 62 247 62 247 68 255 c 128,-1,5
 74 263 74 263 85 263 c 2,6,-1
 371 263 l 2,7,8
 382 263 382 263 388 255 c 128,-1,9
 394 247 394 247 394 236 c 0,10,11
 394 226 394 226 388 217.5 c 128,-1,12
 382 209 382 209 371 209 c 2,13,-1
 85 209 l 2,0,1
EndSplineSet
EndChar

StartChar: registered
Encoding: 174 174 112
Width: 828
Flags: W
LayerCount: 2
Back
Fore
SplineSet
472 286 m 2,0,1
 482 270 482 270 495 248.5 c 128,-1,2
 508 227 508 227 523 207 c 128,-1,3
 538 187 538 187 555.5 172 c 128,-1,4
 573 157 573 157 593 154 c 0,5,6
 599 153 599 153 605 151.5 c 128,-1,7
 611 150 611 150 611 137 c 0,8,9
 611 126 611 126 601 122.5 c 128,-1,10
 591 119 591 119 580 119 c 0,11,12
 545 119 545 119 520 131.5 c 128,-1,13
 495 144 495 144 476 164.5 c 128,-1,14
 457 185 457 185 441.5 211.5 c 128,-1,15
 426 238 426 238 408 266 c 0,16,17
 401 276 401 276 393 281.5 c 128,-1,18
 385 287 385 287 365 287 c 2,19,-1
 352 287 l 1,20,-1
 352 196 l 2,21,22
 352 177 352 177 357.5 166.5 c 128,-1,23
 363 156 363 156 389 154 c 0,24,25
 395 154 395 154 400.5 152 c 128,-1,26
 406 150 406 150 406 137 c 0,27,28
 406 131 406 131 402.5 125.5 c 128,-1,29
 399 120 399 120 391 120 c 0,30,31
 374 121 374 121 362.5 121.5 c 128,-1,32
 351 122 351 122 346 122 c 2,33,-1
 317 122 l 2,34,35
 298 122 298 122 281 121 c 128,-1,36
 264 120 264 120 248 120 c 0,37,38
 237 120 237 120 235 126.5 c 128,-1,39
 233 133 233 133 233 140 c 0,40,41
 233 152 233 152 241.5 153 c 128,-1,42
 250 154 250 154 260 155 c 128,-1,43
 270 156 270 156 278.5 163 c 128,-1,44
 287 170 287 170 287 195 c 2,45,-1
 287 202 l 1,46,-1
 287 433 l 2,47,48
 285 456 285 456 276.5 462.5 c 128,-1,49
 268 469 268 469 258 469.5 c 128,-1,50
 248 470 248 470 240.5 472 c 128,-1,51
 233 474 233 474 233 488 c 0,52,53
 233 496 233 496 236 500 c 128,-1,54
 239 504 239 504 248 504 c 0,55,56
 267 503 267 503 283.5 503 c 128,-1,57
 300 503 300 503 318 503 c 2,58,-1
 419 503 l 2,59,60
 456 502 456 502 482.5 493 c 128,-1,61
 509 484 509 484 525.5 470 c 128,-1,62
 542 456 542 456 549.5 438 c 128,-1,63
 557 420 557 420 557 402 c 0,64,65
 557 370 557 370 532 342 c 128,-1,66
 507 314 507 314 462 301 c 1,67,-1
 472 286 l 2,0,1
390 472 m 0,68,69
 367 471 367 471 359.5 463 c 128,-1,70
 352 455 352 455 352 428 c 2,71,-1
 352 319 l 1,72,-1
 401 319 l 2,73,74
 429 319 429 319 445.5 327 c 128,-1,75
 462 335 462 335 471 347 c 128,-1,76
 480 359 480 359 482.5 372.5 c 128,-1,77
 485 386 485 386 485 397 c 0,78,79
 485 411 485 411 480.5 424.5 c 128,-1,80
 476 438 476 438 465 449 c 128,-1,81
 454 460 454 460 436 466.5 c 128,-1,82
 418 473 418 473 390 472 c 0,68,69
47 316 m 256,83,84
 47 392 47 392 76.5 458.5 c 128,-1,85
 106 525 106 525 156 575 c 128,-1,86
 206 625 206 625 273 654 c 128,-1,87
 340 683 340 683 414 683 c 256,88,89
 488 683 488 683 554.5 654 c 128,-1,90
 621 625 621 625 671.5 575 c 128,-1,91
 722 525 722 525 751.5 458.5 c 128,-1,92
 781 392 781 392 781 316 c 256,93,94
 781 240 781 240 751.5 173.5 c 128,-1,95
 722 107 722 107 671.5 57 c 128,-1,96
 621 7 621 7 554.5 -22 c 128,-1,97
 488 -51 488 -51 414 -51 c 256,98,99
 340 -51 340 -51 273 -22 c 128,-1,100
 206 7 206 7 156 57 c 128,-1,101
 106 107 106 107 76.5 173.5 c 128,-1,102
 47 240 47 240 47 316 c 256,83,84
90 316 m 256,103,104
 90 249 90 249 115 190 c 128,-1,105
 140 131 140 131 184 86.5 c 128,-1,106
 228 42 228 42 287 16.5 c 128,-1,107
 346 -9 346 -9 414 -9 c 256,108,109
 482 -9 482 -9 541 16.5 c 128,-1,110
 600 42 600 42 644 86.5 c 128,-1,111
 688 131 688 131 713 190 c 128,-1,112
 738 249 738 249 738 316 c 256,113,114
 738 383 738 383 713 442 c 128,-1,115
 688 501 688 501 644 545 c 128,-1,116
 600 589 600 589 541 615 c 128,-1,117
 482 641 482 641 414 641 c 256,118,119
 346 641 346 641 287 615 c 128,-1,120
 228 589 228 589 184 545 c 128,-1,121
 140 501 140 501 115 442 c 128,-1,122
 90 383 90 383 90 316 c 256,103,104
EndSplineSet
EndChar

StartChar: macron
Encoding: 175 175 113
Width: 604
Flags: W
LayerCount: 2
Back
Fore
SplineSet
73 730 m 2,0,1
 62 730 62 730 56 738.5 c 128,-1,2
 50 747 50 747 50 757 c 0,3,4
 50 768 50 768 56 776 c 128,-1,5
 62 784 62 784 73 784 c 2,6,-1
 531 784 l 2,7,8
 542 784 542 784 548 776 c 128,-1,9
 554 768 554 768 554 757 c 0,10,11
 554 747 554 747 548 738.5 c 128,-1,12
 542 730 542 730 531 730 c 2,13,-1
 73 730 l 2,0,1
EndSplineSet
EndChar

StartChar: degree
Encoding: 176 176 114
Width: 405
Flags: W
LayerCount: 2
Back
Fore
SplineSet
203 633 m 0,0,1
 240 633 240 633 270.5 620.5 c 128,-1,2
 301 608 301 608 323 587.5 c 128,-1,3
 345 567 345 567 357 540.5 c 128,-1,4
 369 514 369 514 369 485 c 0,5,6
 369 447 369 447 353.5 418 c 128,-1,7
 338 389 338 389 313.5 369 c 128,-1,8
 289 349 289 349 259.5 338.5 c 128,-1,9
 230 328 230 328 203 328 c 0,10,11
 165 328 165 328 134.5 340.5 c 128,-1,12
 104 353 104 353 82.5 373.5 c 128,-1,13
 61 394 61 394 49 420.5 c 128,-1,14
 37 447 37 447 37 476 c 0,15,16
 37 514 37 514 52 543 c 128,-1,17
 67 572 67 572 91 592 c 128,-1,18
 115 612 115 612 144.5 622.5 c 128,-1,19
 174 633 174 633 203 633 c 0,0,1
203 359 m 256,20,21
 228 359 228 359 244.5 369 c 128,-1,22
 261 379 261 379 271 396.5 c 128,-1,23
 281 414 281 414 285.5 436.5 c 128,-1,24
 290 459 290 459 290 485 c 0,25,26
 290 509 290 509 285.5 530.5 c 128,-1,27
 281 552 281 552 270.5 567.5 c 128,-1,28
 260 583 260 583 243.5 592.5 c 128,-1,29
 227 602 227 602 203 602 c 0,30,31
 178 602 178 602 161 592.5 c 128,-1,32
 144 583 144 583 134 566 c 128,-1,33
 124 549 124 549 119.5 526.5 c 128,-1,34
 115 504 115 504 115 478 c 0,35,36
 115 454 115 454 119.5 432.5 c 128,-1,37
 124 411 124 411 134.5 394.5 c 128,-1,38
 145 378 145 378 161.5 368.5 c 128,-1,39
 178 359 178 359 203 359 c 256,20,21
EndSplineSet
EndChar

StartChar: plusminus
Encoding: 177 177 115
Width: 586
Flags: W
LayerCount: 2
Back
Fore
SplineSet
262 479 m 2,0,1
 262 490 262 490 272 497 c 128,-1,2
 282 504 282 504 294 504 c 0,3,4
 305 504 305 504 315 497 c 128,-1,5
 325 490 325 490 325 479 c 2,6,-1
 325 291 l 1,7,-1
 518 291 l 2,8,9
 528 291 528 291 534 282.5 c 128,-1,10
 540 274 540 274 540 264 c 256,11,12
 540 254 540 254 534 245.5 c 128,-1,13
 528 237 528 237 518 237 c 2,14,-1
 325 237 l 1,15,-1
 325 105 l 2,16,17
 325 94 325 94 315 87 c 128,-1,18
 305 80 305 80 293 80 c 0,19,20
 282 80 282 80 272 87 c 128,-1,21
 262 94 262 94 262 105 c 2,22,-1
 262 237 l 1,23,-1
 68 237 l 2,24,25
 58 237 58 237 52 245.5 c 128,-1,26
 46 254 46 254 46 264 c 256,27,28
 46 274 46 274 52 282.5 c 128,-1,29
 58 291 58 291 68 291 c 2,30,-1
 262 291 l 1,31,-1
 262 479 l 2,0,1
69 0 m 2,32,33
 58 0 58 0 52 8.5 c 128,-1,34
 46 17 46 17 46 27 c 0,35,36
 46 38 46 38 52 46 c 128,-1,37
 58 54 58 54 69 54 c 2,38,-1
 517 54 l 2,39,40
 528 54 528 54 534 46 c 128,-1,41
 540 38 540 38 540 27 c 0,42,43
 540 17 540 17 534 8.5 c 128,-1,44
 528 0 528 0 517 0 c 2,45,-1
 69 0 l 2,32,33
EndSplineSet
EndChar

StartChar: twosuperior
Encoding: 178 178 116
Width: 379
Flags: W
LayerCount: 2
Back
Fore
SplineSet
58 545 m 0,0,1
 58 568 58 568 70 585 c 128,-1,2
 82 602 82 602 100.5 612.5 c 128,-1,3
 119 623 119 623 141 628 c 128,-1,4
 163 633 163 633 184 633 c 0,5,6
 208 633 208 633 231 627 c 128,-1,7
 254 621 254 621 272.5 608.5 c 128,-1,8
 291 596 291 596 302.5 575.5 c 128,-1,9
 314 555 314 555 314 526 c 0,10,11
 314 487 314 487 294 458 c 128,-1,12
 274 429 274 429 245 405.5 c 128,-1,13
 216 382 216 382 183 361.5 c 128,-1,14
 150 341 150 341 123 320 c 1,15,-1
 296 320 l 2,16,17
 313 320 313 320 323 315.5 c 128,-1,18
 333 311 333 311 333 291 c 0,19,20
 333 279 333 279 326 271 c 128,-1,21
 319 263 319 263 304 263 c 2,22,-1
 76 263 l 2,23,24
 61 263 61 263 54.5 271 c 128,-1,25
 48 279 48 279 48 291 c 0,26,27
 48 308 48 308 57.5 318 c 128,-1,28
 67 328 67 328 81 337 c 0,29,30
 106 353 106 353 134 373 c 128,-1,31
 162 393 162 393 186 417 c 128,-1,32
 210 441 210 441 225.5 470.5 c 128,-1,33
 241 500 241 500 241 535 c 0,34,35
 241 566 241 566 224.5 583 c 128,-1,36
 208 600 208 600 178 600 c 0,37,38
 154 600 154 600 138 588 c 128,-1,39
 122 576 122 576 122 555 c 0,40,41
 122 546 122 546 125.5 540 c 128,-1,42
 129 534 129 534 133 530 c 128,-1,43
 137 526 137 526 140.5 523 c 128,-1,44
 144 520 144 520 144 517 c 0,45,46
 144 512 144 512 134 503.5 c 128,-1,47
 124 495 124 495 109 495 c 0,48,49
 83 495 83 495 70.5 509 c 128,-1,50
 58 523 58 523 58 545 c 0,0,1
EndSplineSet
EndChar

StartChar: threesuperior
Encoding: 179 179 117
Width: 359
Flags: W
LayerCount: 2
Back
Fore
SplineSet
148 431 m 2,0,1
 140 431 140 431 137 436.5 c 128,-1,2
 134 442 134 442 134 449 c 256,3,4
 134 456 134 456 137 462 c 128,-1,5
 140 468 140 468 148 468 c 2,6,-1
 174 468 l 2,7,8
 199 471 199 471 213.5 491.5 c 128,-1,9
 228 512 228 512 228 540 c 0,10,11
 228 566 228 566 215.5 583 c 128,-1,12
 203 600 203 600 172 600 c 0,13,14
 149 600 149 600 133 590.5 c 128,-1,15
 117 581 117 581 117 559 c 0,16,17
 117 551 117 551 120.5 545.5 c 128,-1,18
 124 540 124 540 128.5 535.5 c 128,-1,19
 133 531 133 531 137 528 c 128,-1,20
 141 525 141 525 141 522 c 0,21,22
 141 517 141 517 130.5 509 c 128,-1,23
 120 501 120 501 104 501 c 0,24,25
 79 501 79 501 66 516 c 128,-1,26
 53 531 53 531 53 553 c 0,27,28
 53 574 53 574 63.5 589 c 128,-1,29
 74 604 74 604 91.5 614 c 128,-1,30
 109 624 109 624 130.5 628.5 c 128,-1,31
 152 633 152 633 173 633 c 0,32,33
 195 633 195 633 217.5 628.5 c 128,-1,34
 240 624 240 624 258 613 c 128,-1,35
 276 602 276 602 287 584 c 128,-1,36
 298 566 298 566 298 540 c 0,37,38
 298 515 298 515 282 490.5 c 128,-1,39
 266 466 266 466 233 451 c 1,40,41
 248 448 248 448 262.5 442 c 128,-1,42
 277 436 277 436 289 425 c 128,-1,43
 301 414 301 414 308 398 c 128,-1,44
 315 382 315 382 315 359 c 0,45,46
 315 328 315 328 303 307 c 128,-1,47
 291 286 291 286 270.5 272.5 c 128,-1,48
 250 259 250 259 223.5 253 c 128,-1,49
 197 247 197 247 169 247 c 0,50,51
 148 247 148 247 126 251.5 c 128,-1,52
 104 256 104 256 86.5 265.5 c 128,-1,53
 69 275 69 275 57.5 290.5 c 128,-1,54
 46 306 46 306 46 329 c 0,55,56
 46 349 46 349 58 365 c 128,-1,57
 70 381 70 381 96 381 c 0,58,59
 114 381 114 381 123 371 c 128,-1,60
 132 361 132 361 132 356 c 0,61,62
 130 351 130 351 119.5 342 c 128,-1,63
 109 333 109 333 109 322 c 0,64,65
 109 302 109 302 126.5 291.5 c 128,-1,66
 144 281 144 281 171 281 c 0,67,68
 200 281 200 281 220 298.5 c 128,-1,69
 240 316 240 316 240 358 c 0,70,71
 240 389 240 389 224.5 409 c 128,-1,72
 209 429 209 429 174 431 c 2,73,-1
 148 431 l 2,0,1
EndSplineSet
EndChar

StartChar: acute
Encoding: 180 180 118
Width: 221
Flags: W
LayerCount: 2
Back
Fore
SplineSet
85 518 m 2,0,1
 74 506 74 506 61 506 c 0,2,3
 51 506 51 506 44 511.5 c 128,-1,4
 37 517 37 517 37 528 c 0,5,6
 37 535 37 535 41 542 c 2,7,-1
 116 679 l 2,8,9
 127 702 127 702 152 702 c 0,10,11
 170 702 170 702 182.5 688.5 c 128,-1,12
 195 675 195 675 195 660 c 0,13,14
 195 646 195 646 187 637 c 2,15,-1
 85 518 l 2,0,1
EndSplineSet
EndChar

